<svg width="48" height="48" version="1.1" xmlns="http://www.w3.org/2000/svg" desc="Created with imagetracer.js version 1.2.6" ><path fill="rgb(32,75,228)" stroke="rgb(32,75,228)" stroke-width="1" opacity="0.596078431372549" d="M 0.5 9 L 48 9.5 L 0.5 10 L 0.5 9 Z " /><path fill="rgb(32,75,228)" stroke="rgb(32,75,228)" stroke-width="1" opacity="0.596078431372549" d="M 0.5 11 L 1 14.5 L 0 14.5 L 0.5 11 Z " /><path fill="rgb(32,75,228)" stroke="rgb(32,75,228)" stroke-width="1" opacity="0.596078431372549" d="M 47.5 11 L 48 14.5 L 47 14.5 L 47.5 11 Z " /><path fill="rgb(32,75,228)" stroke="rgb(32,75,228)" stroke-width="1" opacity="0.596078431372549" d="M 1.5 19 L 2 21.5 L 1 21.5 L 1.5 19 Z " /><path fill="rgb(32,75,228)" stroke="rgb(32,75,228)" stroke-width="1" opacity="0.596078431372549" d="M 46.5 19 L 47 21.5 L 46 21.5 L 46.5 19 Z " /><path fill="rgb(32,75,228)" stroke="rgb(32,75,228)" stroke-width="1" opacity="0.596078431372549" d="M 2.5 27 L 3 29.5 L 2 29.5 L 2.5 27 Z " /><path fill="rgb(32,75,228)" stroke="rgb(32,75,228)" stroke-width="1" opacity="0.596078431372549" d="M 45.5 27 L 46 29.5 L 45 29.5 L 45.5 27 Z " /><path fill="rgb(32,75,228)" stroke="rgb(32,75,228)" stroke-width="1" opacity="0.596078431372549" d="M 3.5 35 L 4 37.5 L 3 37.5 L 3.5 35 Z " /><path fill="rgb(32,75,228)" stroke="rgb(32,75,228)" stroke-width="1" opacity="0.596078431372549" d="M 44.5 35 L 45 37.5 L 44 37.5 L 44.5 35 Z " /><path fill="rgb(32,75,228)" stroke="rgb(32,75,228)" stroke-width="1" opacity="0.596078431372549" d="M 4.5 43 L 8 44.5 L 5.5 45 L 4.5 43 Z " /><path fill="rgb(32,75,228)" stroke="rgb(32,75,228)" stroke-width="1" opacity="0.596078431372549" d="M 43.5 43 L 42.5 45 L 40 44.5 L 43.5 43 Z " /><path fill="rgb(23,70,222)" stroke="rgb(23,70,222)" stroke-width="1" opacity="0.1803921568627451" d="M 0.5 15 L 1 17.5 L 0 17.5 L 0.5 15 Z " /><path fill="rgb(23,70,222)" stroke="rgb(23,70,222)" stroke-width="1" opacity="0.1803921568627451" d="M 47.5 15 L 48 17.5 L 47 17.5 L 47.5 15 Z " /><path fill="rgb(23,70,222)" stroke="rgb(23,70,222)" stroke-width="1" opacity="0.1803921568627451" d="M 1.5 22 L 2 25.5 L 1 25.5 L 1.5 22 Z " /><path fill="rgb(23,70,222)" stroke="rgb(23,70,222)" stroke-width="1" opacity="0.1803921568627451" d="M 46.5 22 L 47 25.5 L 46 25.5 L 46.5 22 Z " /><path fill="rgb(23,70,222)" stroke="rgb(23,70,222)" stroke-width="1" opacity="0.1803921568627451" d="M 2.5 30 L 3 33.5 L 2 33.5 L 2.5 30 Z " /><path fill="rgb(23,70,222)" stroke="rgb(23,70,222)" stroke-width="1" opacity="0.1803921568627451" d="M 45.5 30 L 46 33.5 L 45 33.5 L 45.5 30 Z " /><path fill="rgb(23,70,222)" stroke="rgb(23,70,222)" stroke-width="1" opacity="0.1803921568627451" d="M 3.5 38 L 4 41.5 L 3 41.5 L 3.5 38 Z " /><path fill="rgb(23,70,222)" stroke="rgb(23,70,222)" stroke-width="1" opacity="0.1803921568627451" d="M 44.5 38 L 45 41.5 L 44 41.5 L 44.5 38 Z " /><path fill="rgb(23,70,222)" stroke="rgb(23,70,222)" stroke-width="1" opacity="0.1803921568627451" d="M 8.5 45 L 11 45.5 L 8.5 46 L 8.5 45 Z " /><path fill="rgb(24,83,240)" stroke="rgb(24,83,240)" stroke-width="1" opacity="1" d="M 24.5 15 L 39 15.5 L 24.5 16 L 24.5 15 Z " /><path fill="rgb(24,83,240)" stroke="rgb(24,83,240)" stroke-width="1" opacity="1" d="M 39.5 18 L 40 23.5 L 39 23.5 L 39.5 18 Z " /><path fill="rgb(24,83,240)" stroke="rgb(24,83,240)" stroke-width="1" opacity="1" d="M 24.5 21 L 31.5 21 L 32 22.5 L 30.5 25 L 30 23.5 L 30.5 22 L 24.5 22 L 24.5 21 Z " /><path fill="rgb(24,83,240)" stroke="rgb(24,83,240)" stroke-width="1" opacity="1" d="M 38.5 26 L 39 31.5 L 38 31.5 L 38.5 26 Z " /><path fill="rgb(24,83,240)" stroke="rgb(24,83,240)" stroke-width="1" opacity="1" d="M 24.5 30 L 31 30.5 L 24.5 31 L 24.5 30 Z " /><path fill="rgb(24,83,240)" stroke="rgb(24,83,240)" stroke-width="1" opacity="1" d="M 29.5 33 L 30 35 L 25 34.5 L 29.5 33 Z " /><path fill="rgb(24,83,240)" stroke="rgb(24,83,240)" stroke-width="1" opacity="1" d="M 37.5 34 L 38 37.5 L 37 37.5 L 37.5 34 Z " /><path fill="rgb(24,83,240)" stroke="rgb(24,83,240)" stroke-width="1" opacity="1" d="M 33.5 39 L 36 39.5 L 33.5 40 L 33.5 39 Z " /><path fill="rgb(24,83,240)" stroke="rgb(24,83,240)" stroke-width="1" opacity="1" d="M 28.5 40 L 32 40.5 L 28.5 41 L 28.5 40 Z " /><path fill="rgb(24,83,240)" stroke="rgb(24,83,240)" stroke-width="1" opacity="1" d="M 24.5 41 L 27 41.5 L 24.5 42 L 24.5 41 Z " /><path fill="rgb(36,82,249)" stroke="rgb(36,82,249)" stroke-width="1" opacity="1" d="M 1.5 10 L 47 10.5 L 1.5 11 L 1.5 10 Z " /><path fill="rgb(36,82,249)" stroke="rgb(36,82,249)" stroke-width="1" opacity="1" d="M 2.5 18 L 3 23.5 L 2 23.5 L 2.5 18 Z " /><path fill="rgb(36,82,249)" stroke="rgb(36,82,249)" stroke-width="1" opacity="1" d="M 45.5 18 L 46 23.5 L 45 23.5 L 45.5 18 Z " /><path fill="rgb(36,82,249)" stroke="rgb(36,82,249)" stroke-width="1" opacity="1" d="M 3.5 26 L 4 31.5 L 3 31.5 L 3.5 26 Z " /><path fill="rgb(36,82,249)" stroke="rgb(36,82,249)" stroke-width="1" opacity="1" d="M 44.5 26 L 45 31.5 L 44 31.5 L 44.5 26 Z " /><path fill="rgb(36,82,249)" stroke="rgb(36,82,249)" stroke-width="1" opacity="1" d="M 4.5 34 L 5 39.5 L 4 39.5 L 4.5 34 Z " /><path fill="rgb(36,82,249)" stroke="rgb(36,82,249)" stroke-width="1" opacity="1" d="M 43.5 34 L 44 39.5 L 43 39.5 L 43.5 34 Z " /><path fill="rgb(36,82,249)" stroke="rgb(36,82,249)" stroke-width="1" opacity="1" d="M 5.5 42 L 8 43.5 L 5 44 L 5.5 42 Z " /><path fill="rgb(36,82,249)" stroke="rgb(36,82,249)" stroke-width="1" opacity="1" d="M 42.5 42 L 43 44 L 40 43.5 L 42.5 42 Z " /><path fill="rgb(36,82,249)" stroke="rgb(36,82,249)" stroke-width="1" opacity="1" d="M 10.5 44 L 14 44.5 L 10.5 45 L 10.5 44 Z " /><path fill="rgb(36,82,249)" stroke="rgb(36,82,249)" stroke-width="1" opacity="1" d="M 35.5 44 L 38 44.5 L 35.5 45 L 35.5 44 Z " /><path fill="rgb(36,82,249)" stroke="rgb(36,82,249)" stroke-width="1" opacity="1" d="M 15.5 45 L 19 45.5 L 15.5 46 L 15.5 45 Z " /><path fill="rgb(36,82,249)" stroke="rgb(36,82,249)" stroke-width="1" opacity="1" d="M 29.5 45 L 33 45.5 L 29.5 46 L 29.5 45 Z " /><path fill="rgb(243,242,237)" stroke="rgb(243,242,237)" stroke-width="1" opacity="1" d="M 9.5 17 L 11.5 17 L 22.5 17 L 24 18.5 L 23.5 20 L 11.5 20 L 9.5 17 Z " /><path fill="rgb(243,242,237)" stroke="rgb(243,242,237)" stroke-width="1" opacity="1" d="M 12.5 26 L 23.5 26 L 24 29 L 12.5 29 L 11 27.5 L 12.5 26 Z " /><path fill="rgb(243,242,237)" stroke="rgb(243,242,237)" stroke-width="1" opacity="1" d="M 11.5 32 L 13.5 32 L 15.5 33 L 17 32.5 L 18.5 36 L 20.5 37 L 22.5 36 L 24 38.5 L 20.5 40 L 15.5 39 L 12 35.5 L 11.5 32 Z " /><path fill="rgb(247,249,254)" stroke="rgb(247,249,254)" stroke-width="1" opacity="1" d="M 33.5 19 L 32.5 21 L 33.5 19 Z " /><path fill="rgb(247,249,254)" stroke="rgb(247,249,254)" stroke-width="1" opacity="1" d="M 32.5 23 L 33 24.5 Q 31.3 27.8 24.5 26 L 24.5 25 Q 32.6 26.8 32.5 23 Z " /><path fill="rgb(198,208,240)" stroke="rgb(198,208,240)" stroke-width="1" opacity="1" d="M 9.5 18 L 10 20 L 31.5 20 L 33 21.5 L 32.5 23 L 32 21 L 10.5 21 L 9 19.5 L 9.5 18 Z " /><path fill="rgb(198,208,240)" stroke="rgb(198,208,240)" stroke-width="1" opacity="1" d="M 10 25 L 24 25.5 L 11 26 L 10.5 28 L 10 25 Z " /><path fill="rgb(0,0,0)" stroke="rgb(0,0,0)" stroke-width="1" opacity="0.7764705882352941" d="M 11 0 L 18.5 0 L 19 2 Q 15.2 1 14 3.5 L 19 4 L 17.5 7 Q 12.3 8.3 11 5.5 L 11 0 Z " /><path fill="rgb(0,0,0)" stroke="rgb(0,0,0)" stroke-width="1" opacity="0.7764705882352941" d="M 20 0 L 27 0 L 27 7 L 20 7 L 20 0 Z " /><path fill="rgb(0,0,0)" stroke="rgb(0,0,0)" stroke-width="1" opacity="0.7764705882352941" d="M 29 0 L 36 0 L 36 7 L 29 7 L 29 0 Z " /><path fill="rgb(0,0,0)" stroke="rgb(0,0,0)" stroke-width="1" opacity="0" d="M 0 0 L 11 0 L 11 5.5 Q 12.3 8.3 17.5 7 L 19 4 L 14 3.5 Q 15.2 1 19 2 L 19.5 0 L 20 1.5 L 20 3.5 L 20 7 L 27 7 L 27 0.5 L 29 0 L 29 7 L 36 7 L 36 0 L 48 0 L 48 8.5 L 47.5 9 L 0 9 L 0 0 Z " /><path fill="rgb(0,0,0)" stroke="rgb(0,0,0)" stroke-width="1" opacity="0" d="M 0.5 18 L 4 45 L 19 47.5 L 0 48 L 0.5 18 Z " /><path fill="rgb(0,0,0)" stroke="rgb(0,0,0)" stroke-width="1" opacity="0" d="M 47.5 18 L 48 48 L 29 47.5 L 44 45 L 47.5 18 Z " /><path fill="rgb(15,63,228)" stroke="rgb(15,63,228)" stroke-width="1" opacity="1" d="M 9.5 15 L 24 15.5 L 9.5 16 L 9.5 15 Z " /><path fill="rgb(15,63,228)" stroke="rgb(15,63,228)" stroke-width="1" opacity="1" d="M 10.5 21 L 24 21.5 L 10.5 22 L 10.5 21 Z " /><path fill="rgb(15,63,228)" stroke="rgb(15,63,228)" stroke-width="1" opacity="1" d="M 10.5 30 L 24 30.5 L 10.5 31 L 10.5 30 Z " /><path fill="rgb(15,63,228)" stroke="rgb(15,63,228)" stroke-width="1" opacity="1" d="M 18.5 33 L 23 34.5 L 18 35 L 18.5 33 Z " /><path fill="rgb(15,63,228)" stroke="rgb(15,63,228)" stroke-width="1" opacity="1" d="M 10.5 34 L 11 37.5 L 10 37.5 L 10.5 34 Z " /><path fill="rgb(15,63,228)" stroke="rgb(15,63,228)" stroke-width="1" opacity="1" d="M 12.5 39 L 15 39.5 L 12.5 40 L 12.5 39 Z " /><path fill="rgb(15,63,228)" stroke="rgb(15,63,228)" stroke-width="1" opacity="1" d="M 16.5 40 L 20 40.5 L 16.5 41 L 16.5 40 Z " /><path fill="rgb(15,63,228)" stroke="rgb(15,63,228)" stroke-width="1" opacity="1" d="M 21.5 41 L 24 41.5 L 21.5 42 L 21.5 41 Z " /><path fill="rgb(108,139,235)" stroke="rgb(108,139,235)" stroke-width="1" opacity="1" d="M 11.5 29 L 24 29.5 L 11.5 30 L 11.5 29 Z " /><path fill="rgb(108,139,235)" stroke="rgb(108,139,235)" stroke-width="1" opacity="1" d="M 11.5 37 L 12.5 39 L 11.5 37 Z " /><path fill="rgb(135,164,240)" stroke="rgb(135,164,240)" stroke-width="1" opacity="1" d="M 9.5 16 L 39 16.5 L 9.5 17 L 9.5 16 Z " /><path fill="rgb(135,164,240)" stroke="rgb(135,164,240)" stroke-width="1" opacity="1" d="M 24.5 29 L 30 29.5 L 24.5 30 L 24.5 29 Z " /><path fill="rgb(135,164,240)" stroke="rgb(135,164,240)" stroke-width="1" opacity="1" d="M 11.5 31 L 16 31.5 L 11.5 32 L 11.5 31 Z " /><path fill="rgb(135,164,240)" stroke="rgb(135,164,240)" stroke-width="1" opacity="1" d="M 36.5 36 L 37 37.5 L 34.5 39 L 34.5 38 Q 37 38.7 36.5 36 Z " /><path fill="rgb(255,254,253)" stroke="rgb(255,254,253)" stroke-width="1" opacity="1" d="M 23.5 17 L 38 17 L 38 23.5 L 37 24.5 L 36 38 L 23.5 40 L 24 38.5 L 25.5 36 Q 30 37 31 34.5 L 32 29 L 24 29 L 24 26 L 31.5 26 L 33 24.5 L 33 20 L 24.5 20 L 24 18.5 L 23.5 17 Z " /><path fill="rgb(255,254,253)" stroke="rgb(255,254,253)" stroke-width="1" opacity="1" d="M 12.5 36 L 13.5 38 Q 10.7 38.7 12.5 36 Z " /><path fill="rgb(35,99,240)" stroke="rgb(35,99,240)" stroke-width="1" opacity="1" d="M 24 12 L 43.5 12 L 44 13.5 L 43 14.5 L 43 21.5 L 42 22.5 L 42 29.5 L 40 42 L 24 45 Q 22.3 40.9 26.5 42 L 26.5 40 L 31.5 41 L 31.5 39 L 36 40 Q 35 37 38 38 L 38 34.5 L 37 31.5 L 39 31.5 L 38 23.5 L 40 23.5 L 39 15 L 24.5 15 L 24 12 Z " /><path fill="rgb(35,99,240)" stroke="rgb(35,99,240)" stroke-width="1" opacity="1" d="M 24 22 Q 30.1 20.3 32 23.5 L 31.5 25 L 30.5 23 L 30 25 L 24 25 L 24 22 Z " /><path fill="rgb(35,99,240)" stroke="rgb(35,99,240)" stroke-width="1" opacity="1" d="M 24 31 L 31 31 L 31 33.5 L 28.5 34 L 25 34.5 L 25.5 36 L 24 36 L 24 31 Z " /><path fill="rgb(32,75,229)" stroke="rgb(32,75,229)" stroke-width="1" opacity="0.9921568627450981" d="M 2 11 L 45.5 11 L 46 14.5 L 47 18.5 L 46 18.5 L 45.5 17 L 45 23.5 L 46 26.5 L 45 26.5 L 44.5 25 L 44 31.5 L 45 34.5 L 44 34.5 L 43.5 33 L 43 39.5 L 44 42.5 L 43 42.5 L 42.5 41 L 42 43 L 39 43.5 L 39.5 45 L 34.5 44 L 34.5 46 L 29.5 45 L 29.5 47 L 25 46 Q 26 49 23 48 Q 24.3 45 20.5 46 L 18.5 47 L 18.5 45 L 13.5 46 L 13.5 44 L 8.5 45 L 8.5 43 Q 5.2 44.1 6 41.5 L 5 41.5 L 4.5 43 L 4 40.5 Q 6.5 39 5 33.5 L 4 33.5 L 3.5 35 L 3 32.5 Q 5.5 31 4 25.5 L 3 25.5 L 2.5 27 L 2 24.5 Q 4.5 23 3 17.5 L 2 17.5 L 1.5 19 L 1 15.5 L 2 11 Z M 24 12 L 24 15 L 9 15 L 8 21 L 11 22 L 24 22 L 24 25 L 10 25 L 9 28 L 11 32 L 9 33 L 11 33 L 10 35 L 10 38 Q 13 37 12 40 L 15 40 L 16 40 Q 15 43 20 41 L 21 41 Q 20 43 24 42 L 24 45 L 40 42 L 42 30 L 42 23 L 43 22 L 43 15 L 44 14 L 44 12 L 24 12 Z " /><path fill="rgb(32,75,229)" stroke="rgb(32,75,229)" stroke-width="1" opacity="0.9921568627450981" d="M 17 31 L 24 31 L 24 35.5 L 23 35.5 Q 23.9 32.5 19.5 34 L 17 33 L 17 31 Z " /></svg>