<svg width="512" height="512" version="1.1" xmlns="http://www.w3.org/2000/svg" desc="Created with imagetracer.js version 1.2.6" ><path fill="rgb(0,0,0)" stroke="rgb(0,0,0)" stroke-width="1" opacity="0" d="M 0 0 L 512 0 L 512 512 L 0 512 L 0 0 Z M 172 35 L 169 37 L 161 38 L 159 40 Q 153 38 154 42 L 151 42 L 141 49 Q 137 48 138 51 L 127 58 L 115 75 Q 116 77 113 76 L 108 88 L 108 91 L 106 93 Q 107 98 104 99 L 104 106 L 102 110 L 102 131 L 104 134 L 104 141 Q 107 142 106 148 L 108 150 L 111 160 L 122 176 L 134 186 L 135 189 L 122 201 Q 123 203 120 202 L 117 208 Q 118 210 115 209 L 115 212 L 111 217 L 111 220 L 106 229 Q 107 234 104 235 L 104 243 L 102 246 L 102 267 Q 106 269 104 278 L 106 280 L 106 284 L 111 293 L 111 296 L 115 301 Q 114 304 117 303 L 120 309 L 122 312 L 133 321 L 135 325 L 133 326 Q 120 337 111 353 L 108 363 L 106 365 Q 107 370 104 372 L 104 379 L 102 382 L 102 403 Q 105 405 104 413 L 111 432 L 113 434 Q 112 437 115 436 L 122 448 L 137 461 Q 139 460 138 463 L 141 463 L 151 470 Q 155 469 154 472 L 165 475 L 169 475 L 172 477 L 205 477 L 208 475 L 213 475 L 226 470 L 233 465 Q 236 466 235 463 L 243 458 Q 245 459 244 456 L 253 449 Q 252 446 255 447 L 266 430 L 267 424 L 271 417 L 271 412 L 273 409 L 273 326 L 294 337 L 298 337 L 306 340 L 311 340 L 314 342 L 335 342 L 338 340 L 349 339 Q 350 336 355 337 L 375 326 L 390 312 Q 389 309 392 310 L 404 289 Q 403 284 406 284 L 406 280 L 408 278 L 408 270 L 410 267 L 410 246 Q 406 243 408 235 L 406 233 L 406 229 L 401 220 L 401 217 L 397 212 Q 398 208 395 209 L 392 204 L 390 201 L 380 191 L 377 188 L 380 186 Q 392 175 401 160 L 404 150 L 406 148 Q 405 142 408 141 L 408 134 L 410 131 L 410 110 Q 406 107 408 99 L 406 97 L 406 93 L 404 91 L 401 81 L 399 79 Q 400 75 397 76 L 394 70 L 385 58 L 376 51 Q 373 52 374 49 L 362 42 Q 357 43 358 40 L 354 40 L 352 38 L 344 37 L 341 35 L 172 35 Z " /><path fill="rgb(0,0,0)" stroke="rgb(0,0,0)" stroke-width="1" opacity="0" d="M 180.5 70 L 239 70 L 239 170 L 179.5 170 L 165.5 165 Q 155.2 159.3 148 150.5 L 139 132.5 L 138 114.5 Q 140.5 113 139 107.5 L 143 97.5 Q 148 87.5 156.5 81 L 165.5 75 L 180.5 70 Z " /><path fill="rgb(0,0,0)" stroke="rgb(0,0,0)" stroke-width="1" opacity="0" d="M 273 70 L 331.5 70 L 346.5 75 Q 356.9 80.7 364 89.5 L 373 107.5 L 374 125.5 Q 371.5 127 373 132.5 L 369 142.5 Q 364 152.5 355.5 159 L 344.5 166 L 339.5 168 L 335.5 168 L 332.5 170 L 273 170 L 273 70 Z " /><path fill="rgb(0,0,0)" stroke="rgb(0,0,0)" stroke-width="1" opacity="0" d="M 187.5 205 L 239 205 L 239 307 L 187.5 307 Q 183.5 304 175.5 305 L 157 296 Q 158.1 293.3 155.5 294 L 150 287 Q 147.3 288.1 148 285.5 L 143 278.5 L 139 268.5 L 138 250.5 L 141 237.5 L 148 225 Q 150.7 226.1 150 223.5 L 163.5 212 L 175.5 207 Q 183.5 208 187.5 205 Z " /><path fill="rgb(0,0,0)" stroke="rgb(0,0,0)" stroke-width="1" opacity="0" d="M 323.5 205 L 342.5 209 L 354.5 216 L 362 223.5 L 364 226.5 L 369 233.5 L 373 243.5 L 374 260.5 L 371 274.5 L 364 287 Q 361.3 285.9 362 288.5 L 355 294 Q 356.1 296.7 353.5 296 L 342.5 303 L 323.5 307 L 318.5 305 L 311.5 305 Q 310.1 302.4 305.5 303 L 287 291 Q 279.7 282 275 269.5 L 274 250.5 L 276 239.5 L 287 221 L 305.5 209 L 323.5 205 Z " /><path fill="rgb(0,0,0)" stroke="rgb(0,0,0)" stroke-width="1" opacity="0" d="M 179.5 342 L 239 342 L 239 391.5 L 236 408.5 L 229 421.5 L 219.5 431 L 203.5 440 Q 197.8 439.3 195.5 442 L 180.5 442 L 161 435 Q 162.1 432.3 159.5 433 L 148 422.5 L 139 404.5 L 138 386.5 Q 140.5 385 139 379.5 L 143 369.5 Q 148.4 358.9 157.5 352 L 161 351 Q 159.8 348 163.5 349 L 171.5 344 Q 177.5 345 179.5 342 Z " /><path fill="rgb(254,254,254)" stroke="rgb(254,254,254)" stroke-width="1" opacity="0.7647058823529411" d="M 179.5 36 L 332.5 36 Q 334 38.5 339.5 37 Q 372.7 44.3 390 67.5 Q 398.6 77.4 403 91.5 L 402 91.5 Q 393.9 68.6 376.5 55 L 358.5 44 L 344.5 39 L 333.5 38 L 332.5 37 L 179.5 37 L 178.5 38 L 167.5 39 L 147.5 47 Q 133.6 54.6 124 66.5 Q 114.7 77.2 109.5 92 L 109 90.5 Q 117.8 67.8 135.5 54 L 155.5 42 L 167.5 38 L 178.5 37 L 179.5 36 Z " /><path fill="rgb(254,254,254)" stroke="rgb(254,254,254)" stroke-width="1" opacity="0.7647058823529411" d="M 181.5 67 L 239.5 67 L 241 68.5 L 241 171.5 L 239.5 173 L 183 172.5 L 240 172 L 240 68 L 182.5 68 Q 159.7 71.7 148 86.5 Q 141.5 94 138 104.5 L 136 114.5 L 136 125.5 Q 139.7 148.3 154.5 160 Q 162.8 167.7 176 170.5 L 172.5 171 Q 155.8 165.2 146 152.5 L 137 135.5 L 135 125.5 L 135 114.5 Q 139.1 90.1 155.5 78 Q 165.8 69.8 181.5 67 Z " /><path fill="rgb(254,254,254)" stroke="rgb(254,254,254)" stroke-width="1" opacity="0.7647058823529411" d="M 272.5 67 L 330.5 67 L 342 70.5 L 340.5 71 L 329.5 68 L 272 68 L 272 172 L 328.5 172 L 328.5 173 L 272.5 173 L 271 171.5 L 271 68.5 L 272.5 67 Z " /><path fill="rgb(254,254,254)" stroke="rgb(254,254,254)" stroke-width="1" opacity="0.7647058823529411" d="M 343.5 71 Q 357.7 76.3 366 87.5 L 375 104.5 L 377 114.5 L 377 125.5 Q 372.9 149.9 356.5 162 L 342.5 170 L 336.5 171 L 336.5 170 Q 354.6 166.1 364 153.5 Q 370.5 146 374 135.5 L 376 125.5 L 376 114.5 Q 372.3 91.7 357.5 80 L 343.5 72 L 343.5 71 Z " /><path fill="rgb(254,254,254)" stroke="rgb(254,254,254)" stroke-width="1" opacity="0.7647058823529411" d="M 108.5 93 L 109 95.5 L 107 99.5 L 106 110.5 L 105 111.5 L 105 128.5 L 106 129.5 L 107 140.5 L 111 151.5 L 110 151.5 L 105 135.5 L 104 111.5 L 105 110.5 L 106 99.5 L 108.5 93 Z " /><path fill="rgb(254,254,254)" stroke="rgb(254,254,254)" stroke-width="1" opacity="0.7647058823529411" d="M 403.5 93 L 406 99.5 L 407 110.5 L 408 111.5 L 408 128.5 L 405 143.5 L 401.5 152 L 401 150.5 L 404 143.5 L 407 128.5 L 407 111.5 L 403.5 93 Z " /><path fill="rgb(254,254,254)" stroke="rgb(254,254,254)" stroke-width="1" opacity="0.7647058823529411" d="M 111.5 153 Q 119.5 172 134.5 184 L 139 187.5 L 135.5 192 L 124 202.5 Q 114.5 213 109.5 228 L 109 226.5 Q 117.8 203.8 135.5 190 L 138 188.5 L 135.5 185 L 122 172.5 Q 114.1 164 111.5 153 Z " /><path fill="rgb(254,254,254)" stroke="rgb(254,254,254)" stroke-width="1" opacity="0.7647058823529411" d="M 400.5 153 L 401 154.5 Q 392.1 173.6 376.5 186 L 374 187.5 L 375.5 190 L 390 203.5 Q 398.5 213.5 403 227.5 L 402 227.5 Q 394.3 205.2 377.5 192 L 373 188.5 L 376.5 184 L 388 173.5 L 400.5 153 Z " /><path fill="rgb(254,254,254)" stroke="rgb(254,254,254)" stroke-width="1" opacity="0.7647058823529411" d="M 177.5 171 L 182 171.5 L 177.5 172 L 177.5 171 Z " /><path fill="rgb(254,254,254)" stroke="rgb(254,254,254)" stroke-width="1" opacity="0.7647058823529411" d="M 330.5 171 L 335 171.5 L 330.5 172 L 330.5 171 Z " /><path fill="rgb(254,254,254)" stroke="rgb(254,254,254)" stroke-width="1" opacity="0.7647058823529411" d="M 185.5 203 L 239 203.5 L 185.5 204 L 185.5 203 Z " /><path fill="rgb(254,254,254)" stroke="rgb(254,254,254)" stroke-width="1" opacity="0.7647058823529411" d="M 321.5 203 L 327 203.5 L 321.5 204 L 321.5 203 Z " /><path fill="rgb(254,254,254)" stroke="rgb(254,254,254)" stroke-width="1" opacity="0.7647058823529411" d="M 177.5 204 L 181 204.5 L 177.5 205 L 177.5 204 Z " /><path fill="rgb(254,254,254)" stroke="rgb(254,254,254)" stroke-width="1" opacity="0.7647058823529411" d="M 240.5 204 L 241 307.5 L 240 307.5 L 240.5 204 Z " /><path fill="rgb(254,254,254)" stroke="rgb(254,254,254)" stroke-width="1" opacity="0.7647058823529411" d="M 313.5 204 L 318 204.5 L 313.5 205 L 313.5 204 Z " /><path fill="rgb(254,254,254)" stroke="rgb(254,254,254)" stroke-width="1" opacity="0.7647058823529411" d="M 331.5 204 L 335 204.5 L 331.5 205 L 331.5 204 Z " /><path fill="rgb(254,254,254)" stroke="rgb(254,254,254)" stroke-width="1" opacity="0.7647058823529411" d="M 170.5 206 L 172 206.5 L 159.5 213 L 161.5 210 L 170.5 206 Z " /><path fill="rgb(254,254,254)" stroke="rgb(254,254,254)" stroke-width="1" opacity="0.7647058823529411" d="M 306.5 206 L 308 206.5 Q 292.8 211.3 284 222.5 L 276.5 235 L 276 233.5 Q 281.2 222.2 290.5 215 L 306.5 206 Z " /><path fill="rgb(254,254,254)" stroke="rgb(254,254,254)" stroke-width="1" opacity="0.7647058823529411" d="M 340.5 206 Q 348.8 207.2 353 212.5 L 350.5 211 L 340.5 207 L 340.5 206 Z " /><path fill="rgb(254,254,254)" stroke="rgb(254,254,254)" stroke-width="1" opacity="0.7647058823529411" d="M 157.5 213 L 155.5 216 L 148 222.5 L 143.5 229 L 144 227.5 Q 147.7 218.7 155.5 214 L 157.5 213 Z " /><path fill="rgb(254,254,254)" stroke="rgb(254,254,254)" stroke-width="1" opacity="0.7647058823529411" d="M 354.5 213 L 366 223.5 L 369 228.5 L 367 227.5 L 357.5 216 L 354.5 213 Z " /><path fill="rgb(254,254,254)" stroke="rgb(254,254,254)" stroke-width="1" opacity="0.7647058823529411" d="M 108.5 229 L 109 231.5 L 107 235.5 L 106 246.5 L 105 247.5 L 105 264.5 L 109 282.5 L 108 282.5 L 104 265.5 L 104 246.5 L 108.5 229 Z " /><path fill="rgb(254,254,254)" stroke="rgb(254,254,254)" stroke-width="1" opacity="0.7647058823529411" d="M 403.5 229 L 406 235.5 L 407 246.5 L 408 247.5 L 408 264.5 L 407 265.5 L 406 276.5 L 403.5 283 L 403 280.5 L 405 276.5 L 405 271.5 L 407 264.5 L 407 247.5 L 403.5 229 Z " /><path fill="rgb(254,254,254)" stroke="rgb(254,254,254)" stroke-width="1" opacity="0.7647058823529411" d="M 142.5 230 L 142 231.5 L 137 244.5 L 136 261.5 L 138 271.5 L 143 281.5 L 141 280.5 Q 134 269.5 135 250.5 L 138 237.5 L 142.5 230 Z " /><path fill="rgb(254,254,254)" stroke="rgb(254,254,254)" stroke-width="1" opacity="0.7647058823529411" d="M 369.5 230 Q 375.8 236.7 376 249.5 L 375 249.5 L 375 244.5 L 369.5 230 Z " /><path fill="rgb(254,254,254)" stroke="rgb(254,254,254)" stroke-width="1" opacity="0.7647058823529411" d="M 275.5 236 L 276 237.5 L 273 244.5 L 272 261.5 L 276 275.5 L 275 275.5 L 271 262.5 L 271 249.5 L 273 240.5 L 275.5 236 Z " /><path fill="rgb(254,254,254)" stroke="rgb(254,254,254)" stroke-width="1" opacity="0.7647058823529411" d="M 376.5 251 L 377 260.5 L 376 260.5 L 376.5 251 Z " /><path fill="rgb(254,254,254)" stroke="rgb(254,254,254)" stroke-width="1" opacity="0.7647058823529411" d="M 375.5 262 L 376 267.5 Q 374.4 276.4 369.5 282 L 370 280.5 L 375 267.5 L 375.5 262 Z " /><path fill="rgb(254,254,254)" stroke="rgb(254,254,254)" stroke-width="1" opacity="0.7647058823529411" d="M 276.5 277 Q 281.4 288.6 290.5 296 Q 297.7 302.3 308 305.5 L 306.5 306 Q 291.2 300.3 282 288.5 L 276 278.5 L 276.5 277 Z " /><path fill="rgb(254,254,254)" stroke="rgb(254,254,254)" stroke-width="1" opacity="0.7647058823529411" d="M 143.5 283 L 154.5 296 L 158 298.5 L 156.5 298 L 146 288.5 L 143.5 283 Z " /><path fill="rgb(254,254,254)" stroke="rgb(254,254,254)" stroke-width="1" opacity="0.7647058823529411" d="M 368.5 283 L 368 284.5 Q 364.3 293.3 356.5 298 L 354.5 299 L 356.5 296 L 364 289.5 L 368.5 283 Z " /><path fill="rgb(254,254,254)" stroke="rgb(254,254,254)" stroke-width="1" opacity="0.7647058823529411" d="M 109.5 284 L 111 287.5 L 110 287.5 L 109.5 284 Z " /><path fill="rgb(254,254,254)" stroke="rgb(254,254,254)" stroke-width="1" opacity="0.7647058823529411" d="M 402.5 284 L 403 285.5 Q 394.2 308.2 376.5 322 L 356.5 334 L 345.5 337 L 345.5 336 Q 373.6 328.6 389 308.5 Q 397.7 298.2 402.5 284 Z " /><path fill="rgb(254,254,254)" stroke="rgb(254,254,254)" stroke-width="1" opacity="0.7647058823529411" d="M 111.5 289 Q 119.5 308 134.5 320 L 139 323.5 L 135.5 328 L 124 338.5 L 111.5 359 L 111 357.5 Q 119.9 338.4 135.5 326 L 138 324.5 L 136.5 322 L 122 308.5 Q 114.2 300.2 111.5 289 Z " /><path fill="rgb(254,254,254)" stroke="rgb(254,254,254)" stroke-width="1" opacity="0.7647058823529411" d="M 159.5 299 L 172 305.5 L 170.5 306 L 161.5 302 L 159.5 299 Z " /><path fill="rgb(254,254,254)" stroke="rgb(254,254,254)" stroke-width="1" opacity="0.7647058823529411" d="M 352.5 299 L 350.5 302 L 340.5 306 L 340.5 305 L 352.5 299 Z " /><path fill="rgb(254,254,254)" stroke="rgb(254,254,254)" stroke-width="1" opacity="0.7647058823529411" d="M 177.5 307 L 182 307.5 L 177.5 308 L 177.5 307 Z " /><path fill="rgb(254,254,254)" stroke="rgb(254,254,254)" stroke-width="1" opacity="0.7647058823529411" d="M 313.5 307 L 318 307.5 L 313.5 308 L 313.5 307 Z " /><path fill="rgb(254,254,254)" stroke="rgb(254,254,254)" stroke-width="1" opacity="0.7647058823529411" d="M 330.5 307 L 335 307.5 L 330.5 308 L 330.5 307 Z " /><path fill="rgb(254,254,254)" stroke="rgb(254,254,254)" stroke-width="1" opacity="0.7647058823529411" d="M 185.5 308 L 239 308.5 L 185.5 309 L 185.5 308 Z " /><path fill="rgb(254,254,254)" stroke="rgb(254,254,254)" stroke-width="1" opacity="0.7647058823529411" d="M 321.5 308 L 327 308.5 L 321.5 309 L 321.5 308 Z " /><path fill="rgb(254,254,254)" stroke="rgb(254,254,254)" stroke-width="1" opacity="0.7647058823529411" d="M 271 322 L 273.5 322 L 289.5 332 L 307 337.5 L 304.5 338 L 289.5 333 L 272 323 L 272 401.5 L 270.5 408 L 270 401.5 L 271 400.5 L 271 322 Z " /><path fill="rgb(254,254,254)" stroke="rgb(254,254,254)" stroke-width="1" opacity="0.7647058823529411" d="M 341.5 337 L 344 337.5 L 341.5 338 L 341.5 337 Z " /><path fill="rgb(254,254,254)" stroke="rgb(254,254,254)" stroke-width="1" opacity="0.7647058823529411" d="M 308.5 338 L 311 338.5 L 308.5 339 L 308.5 338 Z " /><path fill="rgb(254,254,254)" stroke="rgb(254,254,254)" stroke-width="1" opacity="0.7647058823529411" d="M 337.5 338 L 340 338.5 L 337.5 339 L 337.5 338 Z " /><path fill="rgb(254,254,254)" stroke="rgb(254,254,254)" stroke-width="1" opacity="0.7647058823529411" d="M 183.5 339 L 239.5 339 L 241 340.5 L 241 398.5 L 239 407.5 L 236.5 412 L 236 410.5 L 238 407.5 L 240 397.5 L 240 340 L 183.5 340 L 183.5 339 Z " /><path fill="rgb(254,254,254)" stroke="rgb(254,254,254)" stroke-width="1" opacity="0.7647058823529411" d="M 315.5 339 L 333 339.5 L 315.5 340 L 315.5 339 Z " /><path fill="rgb(254,254,254)" stroke="rgb(254,254,254)" stroke-width="1" opacity="0.7647058823529411" d="M 177.5 340 L 182 340.5 L 177.5 341 L 177.5 340 Z " /><path fill="rgb(254,254,254)" stroke="rgb(254,254,254)" stroke-width="1" opacity="0.7647058823529411" d="M 172.5 341 L 176 341.5 Q 157.1 346.1 147 359.5 Q 138.4 368.9 136.5 385 L 136 380.5 Q 141.3 360.8 155.5 350 L 172.5 341 Z " /><path fill="rgb(254,254,254)" stroke="rgb(254,254,254)" stroke-width="1" opacity="0.7647058823529411" d="M 110.5 360 L 111 361.5 L 108 368.5 L 105 383.5 L 105 400.5 L 109 418.5 L 108 418.5 L 104 400.5 L 104 383.5 L 107 368.5 L 110.5 360 Z " /><path fill="rgb(254,254,254)" stroke="rgb(254,254,254)" stroke-width="1" opacity="0.7647058823529411" d="M 135.5 386 L 136 397.5 L 135 397.5 L 135.5 386 Z " /><path fill="rgb(254,254,254)" stroke="rgb(254,254,254)" stroke-width="1" opacity="0.7647058823529411" d="M 136.5 399 Q 140.1 420.9 154.5 432 L 169 440.5 L 167.5 441 Q 154.3 435.3 146 424.5 L 138 410.5 L 136 403.5 L 136.5 399 Z " /><path fill="rgb(254,254,254)" stroke="rgb(254,254,254)" stroke-width="1" opacity="0.7647058823529411" d="M 269.5 409 L 270 412.5 L 268.5 416 L 268 413.5 L 269.5 409 Z " /><path fill="rgb(254,254,254)" stroke="rgb(254,254,254)" stroke-width="1" opacity="0.7647058823529411" d="M 235.5 413 L 236 414.5 Q 233.8 421.3 228.5 425 L 231 421.5 L 235.5 413 Z " /><path fill="rgb(254,254,254)" stroke="rgb(254,254,254)" stroke-width="1" opacity="0.7647058823529411" d="M 267.5 418 L 267 419.5 Q 265.4 428.4 260.5 434 L 261 432.5 L 267.5 418 Z " /><path fill="rgb(254,254,254)" stroke="rgb(254,254,254)" stroke-width="1" opacity="0.7647058823529411" d="M 109.5 420 L 111 423.5 L 110 423.5 L 109.5 420 Z " /><path fill="rgb(254,254,254)" stroke="rgb(254,254,254)" stroke-width="1" opacity="0.7647058823529411" d="M 111.5 425 Q 119.8 444.7 135.5 457 Q 148.4 467.6 167 472.5 L 164.5 473 Q 137.5 464.5 122 444.5 Q 114.1 436 111.5 425 Z " /><path fill="rgb(254,254,254)" stroke="rgb(254,254,254)" stroke-width="1" opacity="0.7647058823529411" d="M 227.5 426 L 221.5 433 Q 214 439.5 203.5 443 L 194.5 445 L 181.5 445 L 170 441.5 L 171.5 441 L 182.5 444 L 193.5 444 L 203.5 442 L 214.5 437 L 227.5 426 Z " /><path fill="rgb(254,254,254)" stroke="rgb(254,254,254)" stroke-width="1" opacity="0.7647058823529411" d="M 259.5 435 L 259 436.5 Q 252.1 449.6 240.5 458 L 231.5 464 L 232.5 462 Q 244.6 455.1 253 444.5 L 259.5 435 Z " /><path fill="rgb(254,254,254)" stroke="rgb(254,254,254)" stroke-width="1" opacity="0.7647058823529411" d="M 229.5 464 L 228.5 466 L 213.5 472 L 213.5 471 L 229.5 464 Z " /><path fill="rgb(254,254,254)" stroke="rgb(254,254,254)" stroke-width="1" opacity="0.7647058823529411" d="M 209.5 472 L 212 472.5 L 209.5 473 L 209.5 472 Z " /><path fill="rgb(254,254,254)" stroke="rgb(254,254,254)" stroke-width="1" opacity="0.7647058823529411" d="M 168.5 473 L 171 473.5 L 168.5 474 L 168.5 473 Z " /><path fill="rgb(254,254,254)" stroke="rgb(254,254,254)" stroke-width="1" opacity="0.7647058823529411" d="M 204.5 473 L 208 473.5 L 196.5 476 L 179.5 476 L 172 474.5 L 178.5 474 L 179.5 475 L 196.5 475 L 204.5 473 Z " /><path fill="rgb(255,255,255)" stroke="rgb(255,255,255)" stroke-width="1" opacity="0.1411764705882353" d="M 171.5 35 L 340.5 35 L 343.5 37 L 351.5 38 L 353.5 40 L 358 40 Q 356.7 43.3 361.5 42 L 374 49 Q 372.9 51.7 375.5 51 L 385 58 L 394 69.5 L 397 76 Q 400 74.8 399 78.5 L 401 80.5 L 404 90.5 L 406 92.5 L 406 96.5 L 408 98.5 Q 406.4 106.6 410 109.5 L 410 130.5 L 408 133.5 L 408 140.5 Q 405.2 142.2 406 147.5 L 404 149.5 L 401 159.5 Q 392.5 175 379.5 186 L 377 187.5 L 379.5 191 L 390 200.5 L 392 203.5 L 395 209 Q 398 207.8 397 211.5 L 401 216.5 L 401 219.5 L 406 228.5 L 406 232.5 L 408 234.5 Q 406.4 242.6 410 245.5 L 410 266.5 L 408 269.5 L 408 277.5 L 406 279.5 L 406 283.5 Q 403.3 284.3 404 288.5 L 392 310 Q 389.3 308.9 390 311.5 L 374.5 326 L 354.5 337 Q 349.9 336.4 348.5 339 L 337.5 340 L 334.5 342 L 313.5 342 L 310.5 340 L 305.5 340 L 297.5 337 L 293.5 337 L 273 326 L 273 408.5 L 271 411.5 L 271 416.5 L 267 423.5 L 266 429.5 L 255 447 Q 252.3 445.9 253 448.5 L 244 456 Q 245.1 458.7 242.5 458 L 235 463 Q 236.3 466 232.5 465 L 225.5 470 L 212.5 475 L 207.5 475 L 204.5 477 L 171.5 477 L 168.5 475 L 164.5 475 L 154 472 Q 155.3 468.7 150.5 470 L 140.5 463 L 138 463 Q 139.1 460.3 136.5 461 L 122 447.5 L 115 436 Q 112 437.3 113 433.5 L 111 431.5 L 104 412.5 Q 105.4 405.1 102 402.5 L 102 381.5 L 104 378.5 L 104 371.5 Q 106.8 369.8 106 364.5 L 108 362.5 L 111 352.5 Q 119.5 337 132.5 326 L 135 324.5 L 132.5 321 L 122 311.5 L 120 308.5 L 117 303 Q 114 304.3 115 300.5 L 111 295.5 L 111 292.5 L 106 283.5 L 106 279.5 L 104 277.5 Q 105.6 269.4 102 266.5 L 102 245.5 L 104 242.5 L 104 234.5 Q 107 233.5 106 228.5 L 111 219.5 L 111 216.5 L 115 211.5 L 115 209 Q 117.7 210.1 117 207.5 L 120 202 Q 122.7 203.1 122 200.5 L 135 188.5 L 133.5 186 L 122 175.5 L 111 159.5 L 108 149.5 L 106 147.5 Q 106.8 142.2 104 140.5 L 104 133.5 L 102 130.5 L 102 109.5 L 104 105.5 L 104 98.5 Q 107 97.5 106 92.5 L 108 90.5 L 108 87.5 L 113 76 Q 115.7 77.1 115 74.5 L 127 58 L 138 51 Q 136.8 48 140.5 49 L 150.5 42 L 154 42 Q 152.7 38.3 158.5 40 L 160.5 38 L 168.5 37 L 171.5 35 Z M 180 36 L 179 37 L 168 38 L 156 42 L 136 54 Q 123 64 115 78 L 106 100 L 105 111 L 104 112 L 104 129 L 105 130 L 106 141 Q 111 159 122 173 L 136 185 L 138 189 L 136 190 Q 110 209 104 247 L 104 266 L 106 277 Q 111 295 122 309 L 137 322 L 138 325 L 136 326 Q 122 336 114 352 L 107 369 L 104 384 L 104 401 L 107 416 Q 112 432 122 445 Q 132 458 148 466 L 165 473 L 180 476 L 197 476 L 212 473 Q 228 468 241 458 Q 262 442 270 413 L 272 402 L 272 323 L 295 335 L 316 340 L 333 340 L 348 337 Q 365 332 377 322 Q 389 312 397 299 L 406 277 L 407 266 L 408 265 L 408 248 L 407 247 L 406 236 Q 401 217 390 204 L 376 190 L 374 188 L 377 186 Q 390 176 398 161 L 405 144 L 408 129 L 408 112 L 407 111 L 406 100 Q 401 81 390 68 Q 373 44 340 37 Q 334 39 333 36 L 180 36 Z " /><path fill="rgb(255,255,255)" stroke="rgb(255,255,255)" stroke-width="1" opacity="0.1411764705882353" d="M 182.5 68 L 240 68 L 240 172 L 182.5 172 Q 181.3 169.8 176.5 171 Q 158.2 166.3 148 153.5 Q 141.5 146 138 135.5 L 136 125.5 L 136 114.5 Q 139.7 91.7 154.5 80 L 167.5 72 L 182.5 68 Z M 181 70 L 166 75 L 157 81 Q 148 88 143 98 L 139 108 Q 141 113 138 115 L 139 133 L 148 151 Q 155 159 166 165 L 180 170 L 239 170 L 239 70 L 181 70 Z " /><path fill="rgb(255,255,255)" stroke="rgb(255,255,255)" stroke-width="1" opacity="0.1411764705882353" d="M 272 68 L 329.5 68 Q 330.8 70.3 335.5 69 Q 353.8 73.7 364 86.5 Q 370.5 94 374 104.5 L 376 114.5 L 376 125.5 Q 372.3 148.3 357.5 160 L 344.5 168 L 329.5 172 L 272 172 L 272 68 Z M 273 70 L 273 170 L 333 170 L 336 168 L 340 168 L 345 166 L 356 159 Q 364 152 369 143 L 373 133 Q 372 127 374 126 L 373 108 L 364 90 Q 357 81 347 75 L 332 70 L 273 70 Z " /><path fill="rgb(255,255,255)" stroke="rgb(255,255,255)" stroke-width="1" opacity="0.1411764705882353" d="M 181.5 204 L 240 204 L 240 308 L 182.5 308 Q 181.3 305.8 176.5 307 Q 158.2 302.3 148 289.5 Q 141.5 282 138 271.5 L 136 261.5 L 136 250.5 Q 139.7 227.7 154.5 216 Q 164.9 206.9 181.5 204 Z M 188 205 Q 184 208 176 207 L 164 212 L 150 224 Q 151 226 148 225 L 141 238 L 138 251 L 139 269 L 143 279 L 148 286 Q 147 288 150 287 L 156 294 Q 158 293 157 296 L 176 305 Q 184 304 188 307 L 239 307 L 239 205 L 188 205 Z " /><path fill="rgb(255,255,255)" stroke="rgb(255,255,255)" stroke-width="1" opacity="0.1411764705882353" d="M 318.5 204 L 330.5 204 L 344.5 208 Q 356.3 213.2 364 222.5 Q 371.7 231.3 375 244.5 L 376 261.5 Q 372.3 284.3 357.5 296 Q 350 302.5 339.5 306 L 329.5 308 L 318.5 308 Q 295.7 304.3 284 289.5 Q 277.5 282 274 271.5 L 272 261.5 L 272 250.5 Q 275.7 227.7 290.5 216 L 303.5 208 L 318.5 204 Z M 324 205 L 306 209 L 287 221 L 276 240 L 274 251 L 275 270 Q 280 282 287 291 L 306 303 Q 310 302 312 305 L 319 305 L 324 307 L 343 303 L 354 296 Q 356 297 355 294 L 362 289 Q 361 286 364 287 L 371 275 L 374 261 L 373 244 L 369 234 L 364 227 L 362 224 L 355 216 L 343 209 L 324 205 Z " /><path fill="rgb(255,255,255)" stroke="rgb(255,255,255)" stroke-width="1" opacity="0.1411764705882353" d="M 182.5 340 L 240 340 L 240 397.5 Q 236.3 420.3 221.5 432 Q 214 438.5 203.5 442 L 193.5 444 L 182.5 444 Q 158.9 440.1 147 424.5 L 138 407.5 L 136 398.5 L 136 385.5 Q 140 363.5 154.5 352 L 167.5 344 L 182.5 340 Z M 180 342 Q 178 345 172 344 L 164 349 Q 160 348 161 351 L 158 352 Q 148 359 143 370 L 139 380 Q 141 385 138 387 L 139 405 L 148 423 L 160 433 Q 162 432 161 435 L 181 442 L 196 442 Q 198 439 204 440 L 220 431 L 229 422 L 236 409 L 239 392 L 239 342 L 180 342 Z " /><path fill="rgb(254,254,254)" stroke="rgb(254,254,254)" stroke-width="1" opacity="0.996078431372549" d="M 179.5 37 L 332.5 37 L 333.5 38 L 344.5 39 L 366.5 48 Q 379 55.5 388 66.5 Q 397.4 77.6 403 92.5 L 407 111.5 L 407 128.5 L 404 143.5 L 398 158.5 Q 390 173.6 377.5 184 L 373 187.5 L 376.5 192 L 388 202.5 Q 397.5 213.5 403 228.5 L 407 247.5 L 407 264.5 L 403 283.5 L 396 298.5 Q 388.5 311 377.5 320 Q 364.1 331.6 344.5 337 L 336.5 339 L 311.5 339 L 289.5 332 L 273.5 322 L 271 322 L 271 400.5 Q 268.2 402.2 270 408.5 Q 262.8 439.3 241.5 456 L 230.5 464 L 212.5 472 L 196.5 475 L 179.5 475 L 178.5 474 L 167.5 473 L 147.5 465 Q 133.6 457.4 124 445.5 Q 114.5 434.5 109 419.5 L 105 400.5 L 105 383.5 L 108 368.5 L 114 353.5 Q 121.9 338.4 134.5 328 L 139 324.5 L 135.5 320 L 124 309.5 Q 114.5 298.5 109 283.5 L 105 264.5 L 105 247.5 L 109 228.5 L 116 213.5 Q 123.7 201.2 134.5 192 L 139 188.5 L 135.5 184 L 124 173.5 Q 112.5 160 107 140.5 L 107 135.5 L 105 128.5 L 105 111.5 L 109 92.5 L 115 79.5 Q 123.2 65.2 135.5 55 Q 145.4 46.9 158.5 42 L 179.5 37 Z M 182 67 Q 166 70 156 78 Q 139 90 135 115 L 135 126 L 137 136 L 146 153 Q 156 165 173 171 L 184 173 L 240 173 L 241 172 L 241 69 L 240 67 L 182 67 Z M 273 67 L 271 69 L 271 172 L 273 173 L 329 173 L 343 170 L 357 162 Q 373 150 377 126 L 377 115 L 375 105 L 366 88 Q 355 73 336 68 L 331 67 L 273 67 Z M 186 203 L 168 207 L 156 214 Q 139 226 135 251 L 135 262 L 137 272 L 146 289 L 162 302 L 171 306 L 186 309 L 239 309 L 240 308 L 241 308 L 241 204 L 239 203 L 186 203 Z M 322 203 L 304 207 L 291 215 L 279 228 L 273 241 L 271 250 L 271 263 L 273 272 L 282 289 L 298 302 L 307 306 L 322 309 L 335 308 L 342 306 L 357 298 Q 366 291 371 281 L 375 272 L 377 261 L 377 252 L 375 241 L 366 224 Q 358 213 345 207 L 335 204 L 322 203 Z M 184 339 L 170 342 L 156 350 Q 139 362 135 387 L 135 398 L 137 408 L 146 425 Q 158 441 182 445 L 195 445 L 204 443 Q 214 439 222 433 L 233 421 L 240 404 L 241 399 L 241 341 L 240 339 L 184 339 Z " /></svg>