<svg width="48" height="48" version="1.1" xmlns="http://www.w3.org/2000/svg" desc="Created with imagetracer.js version 1.2.6" ><path fill="rgb(229,76,31)" stroke="rgb(229,76,31)" stroke-width="1" opacity="0.611764705882353" d="M 7.5 9 L 41 9.5 L 7.5 10 L 7.5 9 Z " /><path fill="rgb(229,76,31)" stroke="rgb(229,76,31)" stroke-width="1" opacity="0.611764705882353" d="M 7.5 12 L 8 14.5 L 7 14.5 L 7.5 12 Z " /><path fill="rgb(229,76,31)" stroke="rgb(229,76,31)" stroke-width="1" opacity="0.611764705882353" d="M 40.5 12 L 41 14.5 L 40 14.5 L 40.5 12 Z " /><path fill="rgb(229,76,31)" stroke="rgb(229,76,31)" stroke-width="1" opacity="0.611764705882353" d="M 8.5 23 L 9 25.5 L 8 25.5 L 8.5 23 Z " /><path fill="rgb(229,76,31)" stroke="rgb(229,76,31)" stroke-width="1" opacity="0.611764705882353" d="M 39.5 23 L 40 25.5 L 39 25.5 L 39.5 23 Z " /><path fill="rgb(229,76,31)" stroke="rgb(229,76,31)" stroke-width="1" opacity="0.611764705882353" d="M 9.5 34 L 10 36.5 L 9 36.5 L 9.5 34 Z " /><path fill="rgb(229,76,31)" stroke="rgb(229,76,31)" stroke-width="1" opacity="0.611764705882353" d="M 38.5 34 L 39 36.5 L 38 36.5 L 38.5 34 Z " /><path fill="rgb(0,0,0)" stroke="rgb(0,0,0)" stroke-width="1" opacity="0.7019607843137254" d="M 10 0 L 14 2 L 14.5 0 L 23 0 L 20.5 7 Q 18 5.8 19 2 Q 15.7 0.7 17 5.5 Q 15.5 8.5 14 5.5 L 13.5 4 L 12 7 L 10 6.5 L 10 0 Z " /><path fill="rgb(0,0,0)" stroke="rgb(0,0,0)" stroke-width="1" opacity="0.7019607843137254" d="M 24 0 L 28.5 1 L 32 0 Q 33.5 5.4 30.5 7 L 27.5 5 Q 25.8 8.8 24 5.5 L 24 0 Z " /><path fill="rgb(0,0,0)" stroke="rgb(0,0,0)" stroke-width="1" opacity="0.7019607843137254" d="M 33 0 Q 36.7 -1.2 35 4 L 38 4 L 38 7 L 33 7 L 33 0 Z " /><path fill="rgb(244,80,35)" stroke="rgb(244,80,35)" stroke-width="1" opacity="1" d="M 8.5 17 Q 10.8 18.8 10 23.5 L 9 23.5 L 8.5 17 Z " /><path fill="rgb(244,80,35)" stroke="rgb(244,80,35)" stroke-width="1" opacity="1" d="M 37.5 18 L 39 23.5 L 38 23.5 L 37.5 18 Z " /><path fill="rgb(244,80,35)" stroke="rgb(244,80,35)" stroke-width="1" opacity="1" d="M 9.5 29 Q 12 30 11 34.5 L 10 34.5 L 9.5 29 Z " /><path fill="rgb(244,80,35)" stroke="rgb(244,80,35)" stroke-width="1" opacity="1" d="M 36.5 29 L 37.5 31 L 38.5 29 L 39 30.5 L 37.5 35 L 36.5 29 Z " /><path fill="rgb(244,80,35)" stroke="rgb(244,80,35)" stroke-width="1" opacity="1" d="M 10.5 40 L 12 43 Q 14.7 41.9 14 44.5 L 10 41.5 L 10.5 40 Z " /><path fill="rgb(244,80,35)" stroke="rgb(244,80,35)" stroke-width="1" opacity="1" d="M 37.5 40 L 38 41.5 L 35 43.5 L 35.5 41 L 37 41.5 L 37.5 40 Z " /><path fill="rgb(244,80,35)" stroke="rgb(244,80,35)" stroke-width="1" opacity="1" d="M 30.5 43 Q 33.5 44.5 30.5 46 L 30.5 43 Z " /><path fill="rgb(244,80,35)" stroke="rgb(244,80,35)" stroke-width="1" opacity="1" d="M 16.5 44 L 17.5 46 L 16.5 44 Z " /><path fill="rgb(244,80,35)" stroke="rgb(244,80,35)" stroke-width="1" opacity="1" d="M 26.5 44 L 29 45.5 L 25.5 47 L 25.5 46 L 27 45.5 L 26.5 44 Z " /><path fill="rgb(244,80,35)" stroke="rgb(244,80,35)" stroke-width="1" opacity="1" d="M 19.5 45 L 23 46.5 L 21.5 47 L 19.5 45 Z " /><path fill="rgb(250,83,36)" stroke="rgb(250,83,36)" stroke-width="1" opacity="1" d="M 8.5 10 L 40 10.5 L 8.5 11 L 8.5 10 Z " /><path fill="rgb(250,83,36)" stroke="rgb(250,83,36)" stroke-width="1" opacity="1" d="M 8.5 12 L 9 16.5 L 8 16.5 L 8.5 12 Z " /><path fill="rgb(250,83,36)" stroke="rgb(250,83,36)" stroke-width="1" opacity="1" d="M 39.5 12 L 40 16.5 L 39 16.5 L 39.5 12 Z " /><path fill="rgb(250,83,36)" stroke="rgb(250,83,36)" stroke-width="1" opacity="1" d="M 9.5 24 L 10 28.5 L 9 28.5 L 9.5 24 Z " /><path fill="rgb(250,83,36)" stroke="rgb(250,83,36)" stroke-width="1" opacity="1" d="M 38.5 24 L 39 28.5 L 38 28.5 L 38.5 24 Z " /><path fill="rgb(250,83,36)" stroke="rgb(250,83,36)" stroke-width="1" opacity="1" d="M 10.5 35 L 11 39.5 L 10 39.5 L 10.5 35 Z " /><path fill="rgb(250,83,36)" stroke="rgb(250,83,36)" stroke-width="1" opacity="1" d="M 37.5 35 L 38 39.5 L 37 39.5 L 37.5 35 Z " /><path fill="rgb(239,231,228)" stroke="rgb(239,231,228)" stroke-width="1" opacity="1" d="M 15 18 L 24 18.5 L 18 19.5 L 34 20.5 L 18.5 21 L 17.5 22 L 15 21.5 L 15 18 Z " /><path fill="rgb(239,231,228)" stroke="rgb(239,231,228)" stroke-width="1" opacity="1" d="M 14.5 23 L 15 26.5 L 14 26.5 L 14.5 23 Z " /><path fill="rgb(239,231,228)" stroke="rgb(239,231,228)" stroke-width="1" opacity="1" d="M 16.5 23 L 17 25 L 32 25.5 L 18 26.5 L 24 27.5 L 16 28 L 16.5 23 Z " /><path fill="rgb(239,231,228)" stroke="rgb(239,231,228)" stroke-width="1" opacity="1" d="M 33.5 25 L 34 27.5 L 33 27.5 L 33.5 25 Z " /><path fill="rgb(239,231,228)" stroke="rgb(239,231,228)" stroke-width="1" opacity="1" d="M 15.5 34 L 16 37.5 L 15 37.5 L 15.5 34 Z " /><path fill="rgb(239,231,228)" stroke="rgb(239,231,228)" stroke-width="1" opacity="1" d="M 17.5 34 L 21 35.5 L 19 36.5 L 22.5 37 L 24.5 36 L 24.5 37 L 23 37.5 L 23.5 39 L 21.5 40 L 21.5 38 L 17 37 L 17.5 34 Z " /><path fill="rgb(240,248,251)" stroke="rgb(240,248,251)" stroke-width="1" opacity="1" d="M 14 17 L 24 17.5 L 15 18 L 15.5 22 Q 16.8 19.8 18 22.5 L 17.5 25 L 16.5 23 L 16 28 L 24 28.5 L 15 29 L 14 17 Z " /><path fill="rgb(240,248,251)" stroke="rgb(240,248,251)" stroke-width="1" opacity="1" d="M 18.5 19 L 24 19.5 L 18.5 20 L 18.5 19 Z " /><path fill="rgb(240,248,251)" stroke="rgb(240,248,251)" stroke-width="1" opacity="1" d="M 18.5 26 L 24 26.5 L 18.5 27 L 18.5 26 Z " /><path fill="rgb(240,248,251)" stroke="rgb(240,248,251)" stroke-width="1" opacity="1" d="M 15 32 Q 20.2 29.9 19 34.5 L 17 34.5 Q 15.9 37.8 18.5 37 L 22.5 36 L 23.5 38 L 19.5 37 L 19.5 38 L 24 39.5 L 22.5 40 L 16 38 L 15 32 Z " /><path fill="rgb(229,73,30)" stroke="rgb(229,73,30)" stroke-width="1" opacity="0.9921568627450981" d="M 9 11 L 38.5 11 L 39 11.5 L 39 18.5 L 40 22.5 L 39 22.5 L 38.5 20 L 38 30.5 L 39 33.5 L 38 33.5 L 37.5 31 L 37 41.5 L 38 43.5 L 37 43.5 L 36.5 42 L 35.5 45 L 31.5 44 L 31.5 46 L 27.5 45 L 27.5 47 L 25 46 Q 26 49 23 48 Q 24.1 45.3 21.5 46 L 20 46.5 L 20.5 45 L 16.5 46 L 16.5 44 L 12 43 L 11 40.5 L 9.5 19 L 8.5 23 L 8 19.5 L 9 18.5 L 9 11 Z M 24 12 L 24 16 L 13 16 L 13 24 L 14 25 L 14 30 L 24 30 L 24 36 L 20 35 L 19 33 L 19 31 L 14 31 L 15 39 L 23 41 L 24 41 L 24 45 L 36 42 L 37 21 L 38 20 L 38 12 L 24 12 Z " /><path fill="rgb(229,73,30)" stroke="rgb(229,73,30)" stroke-width="1" opacity="0.9921568627450981" d="M 18.5 21 Q 26.3 18.6 24 25 L 19 25 L 19 22.5 L 18.5 21 Z " /><path fill="rgb(229,73,30)" stroke="rgb(229,73,30)" stroke-width="1" opacity="0.9921568627450981" d="M 9.5 31 L 10 33.5 L 9 33.5 L 9.5 31 Z " /><path fill="rgb(0,0,0)" stroke="rgb(0,0,0)" stroke-width="1" opacity="0" d="M 0 0 L 10 0 L 10 6.5 L 12 7 L 13.5 4 L 15.5 7 Q 18 5.8 17 2 Q 20.3 0.7 19 5.5 Q 20.5 8.5 22 5.5 L 23.5 0 Q 22.6 5.4 25.5 7 L 28.5 5 Q 30.3 8.8 32 5.5 L 32.5 0 L 33 7 L 38 7 L 38 4 Q 33.1 5.6 35 0 L 47.5 0 L 48 0.5 L 48 48 L 28 47.5 L 39 43.5 L 41 11.5 L 42 9 L 6.5 9 L 6 10.5 L 7 11.5 L 9 43.5 L 10.5 45 L 20 47.5 L 0 48 L 0 0 Z " /><path fill="rgb(0,0,0)" stroke="rgb(0,0,0)" stroke-width="1" opacity="0" d="M 12 0 Q 15 -1 14 2 Q 11 3 12 0 Z " /><path fill="rgb(240,96,31)" stroke="rgb(240,96,31)" stroke-width="1" opacity="1" d="M 24 12 L 38 12 L 38 17.5 L 37 18.5 L 37 28.5 L 36 29.5 L 36 40.5 L 33.5 43 L 24 45 L 24 41 L 25.5 41 L 33 39 L 34 25 L 24 25 L 24 21 L 35 21 L 35 16 L 24 16 L 24 12 Z " /><path fill="rgb(240,96,31)" stroke="rgb(240,96,31)" stroke-width="1" opacity="1" d="M 24 30 L 29 31 L 26.5 35 L 24.5 36 L 24 30 Z " /><path fill="rgb(235,129,93)" stroke="rgb(235,129,93)" stroke-width="1" opacity="1" d="M 13.5 19 L 14 21.5 L 13 21.5 L 13.5 19 Z " /><path fill="rgb(235,129,93)" stroke="rgb(235,129,93)" stroke-width="1" opacity="1" d="M 14.5 29 L 24 29.5 L 14.5 30 L 14.5 29 Z " /><path fill="rgb(235,129,93)" stroke="rgb(235,129,93)" stroke-width="1" opacity="1" d="M 33.5 31 L 34 33.5 L 33 33.5 L 33.5 31 Z " /><path fill="rgb(241,168,140)" stroke="rgb(241,168,140)" stroke-width="1" opacity="1" d="M 14.5 16 L 33.5 16 L 35 17.5 L 34.5 20 L 34 17 L 14.5 17 L 14 18.5 L 13 18.5 L 14.5 16 Z " /><path fill="rgb(241,168,140)" stroke="rgb(241,168,140)" stroke-width="1" opacity="1" d="M 33.5 28 L 34 30.5 L 33 30.5 L 33.5 28 Z " /><path fill="rgb(241,168,140)" stroke="rgb(241,168,140)" stroke-width="1" opacity="1" d="M 24.5 29 L 29 29.5 L 24.5 30 L 24.5 29 Z " /><path fill="rgb(241,168,140)" stroke="rgb(241,168,140)" stroke-width="1" opacity="1" d="M 15.5 31 L 18 31.5 L 15.5 32 L 15.5 31 Z " /><path fill="rgb(253,254,255)" stroke="rgb(253,254,255)" stroke-width="1" opacity="1" d="M 24 17 L 33.5 17 L 34 20 L 24.5 20 L 24 17 Z " /><path fill="rgb(253,254,255)" stroke="rgb(253,254,255)" stroke-width="1" opacity="1" d="M 32.5 25 L 33 35.5 L 32 38 L 24 40 L 25.5 36 L 29 34.5 L 30 29 L 24 29 L 24 26 L 31.5 26 L 32.5 25 Z " /><path fill="rgb(228,74,31)" stroke="rgb(228,74,31)" stroke-width="1" opacity="0.38823529411764707" d="M 7.5 15 L 8 18.5 L 7 18.5 L 7.5 15 Z " /><path fill="rgb(228,74,31)" stroke="rgb(228,74,31)" stroke-width="1" opacity="0.38823529411764707" d="M 40.5 15 L 41 18.5 L 40 18.5 L 40.5 15 Z " /><path fill="rgb(228,74,31)" stroke="rgb(228,74,31)" stroke-width="1" opacity="0.38823529411764707" d="M 8.5 26 L 9 29.5 L 8 29.5 L 8.5 26 Z " /><path fill="rgb(228,74,31)" stroke="rgb(228,74,31)" stroke-width="1" opacity="0.38823529411764707" d="M 39.5 26 L 40 29.5 L 39 29.5 L 39.5 26 Z " /><path fill="rgb(228,74,31)" stroke="rgb(228,74,31)" stroke-width="1" opacity="0.38823529411764707" d="M 9.5 37 L 10 40.5 L 9 40.5 L 9.5 37 Z " /><path fill="rgb(228,74,31)" stroke="rgb(228,74,31)" stroke-width="1" opacity="0.38823529411764707" d="M 38.5 37 L 39 40.5 L 38 40.5 L 38.5 37 Z " /><path fill="rgb(230,54,27)" stroke="rgb(230,54,27)" stroke-width="1" opacity="0.10196078431372549" d="M 7.5 19 L 8 21.5 L 7 21.5 L 7.5 19 Z " /><path fill="rgb(230,54,27)" stroke="rgb(230,54,27)" stroke-width="1" opacity="0.10196078431372549" d="M 40.5 19 L 41 21.5 L 40 21.5 L 40.5 19 Z " /><path fill="rgb(230,54,27)" stroke="rgb(230,54,27)" stroke-width="1" opacity="0.10196078431372549" d="M 8.5 30 L 9 32.5 L 8 32.5 L 8.5 30 Z " /><path fill="rgb(230,54,27)" stroke="rgb(230,54,27)" stroke-width="1" opacity="0.10196078431372549" d="M 39.5 30 L 40 32.5 L 39 32.5 L 39.5 30 Z " /><path fill="rgb(230,54,27)" stroke="rgb(230,54,27)" stroke-width="1" opacity="0.10196078431372549" d="M 9.5 41 L 10 43.5 L 9 43.5 L 9.5 41 Z " /><path fill="rgb(230,54,27)" stroke="rgb(230,54,27)" stroke-width="1" opacity="0.10196078431372549" d="M 38.5 41 L 39 43.5 L 38 43.5 L 38.5 41 Z " /></svg>