<svg width="48" height="48" version="1.1" xmlns="http://www.w3.org/2000/svg" desc="Created with imagetracer.js version 1.2.6" ><path fill="rgb(48,43,4)" stroke="rgb(48,43,4)" stroke-width="1" opacity="1" d="M 22 22 L 26 22.5 L 26 40.5 Q 24.5 45.5 16.5 44 L 13 41.5 L 15.5 38 L 21 40 L 22 37.5 L 22 22 Z " /><path fill="rgb(48,43,4)" stroke="rgb(48,43,4)" stroke-width="1" opacity="1" d="M 33.5 22 Q 40.8 20.8 43 24.5 Q 43.8 26.8 41.5 26 L 38.5 27 L 35.5 26 Q 32 28 36.5 30 L 43 33 Q 44.6 35.1 44 40.5 Q 42.3 45.8 33.5 44 L 29 40.5 L 30.5 38 L 34.5 40 L 38.5 40 L 40 37.5 L 30 30.5 Q 28.8 23.3 33.5 22 Z " /><path fill="rgb(246,223,23)" stroke="rgb(246,223,23)" stroke-width="1" opacity="1" d="M 20.5 20 L 27 21 L 26.5 39 L 26 22 L 22 22.5 L 22 37.5 L 21 37.5 L 21 21.5 L 20.5 20 Z " /><path fill="rgb(246,223,23)" stroke="rgb(246,223,23)" stroke-width="1" opacity="1" d="M 30.5 21 L 29.5 23 L 30.5 21 Z " /><path fill="rgb(246,223,23)" stroke="rgb(246,223,23)" stroke-width="1" opacity="1" d="M 34.5 21 L 39 21.5 L 34.5 22 L 34.5 21 Z " /><path fill="rgb(246,223,23)" stroke="rgb(246,223,23)" stroke-width="1" opacity="1" d="M 42.5 21 L 43.5 23 L 42.5 21 Z " /><path fill="rgb(246,223,23)" stroke="rgb(246,223,23)" stroke-width="1" opacity="1" d="M 32.5 22 L 30.5 25 L 32.5 22 Z " /><path fill="rgb(246,223,23)" stroke="rgb(246,223,23)" stroke-width="1" opacity="1" d="M 29.5 26 L 30 28.5 L 29 28.5 L 29.5 26 Z " /><path fill="rgb(246,223,23)" stroke="rgb(246,223,23)" stroke-width="1" opacity="1" d="M 41.5 26 L 41.5 29 L 39 27.5 L 41.5 26 Z " /><path fill="rgb(246,223,23)" stroke="rgb(246,223,23)" stroke-width="1" opacity="1" d="M 42.5 30 L 44.5 33 L 42.5 30 Z " /><path fill="rgb(246,223,23)" stroke="rgb(246,223,23)" stroke-width="1" opacity="1" d="M 30.5 31 Q 35 33 31.5 35 Q 27 33 30.5 31 Z " /><path fill="rgb(246,223,23)" stroke="rgb(246,223,23)" stroke-width="1" opacity="1" d="M 40.5 31 L 41.5 33 L 40.5 31 Z " /><path fill="rgb(246,223,23)" stroke="rgb(246,223,23)" stroke-width="1" opacity="1" d="M 17.5 36 L 18.5 38 L 17.5 36 Z " /><path fill="rgb(246,223,23)" stroke="rgb(246,223,23)" stroke-width="1" opacity="1" d="M 33.5 36 L 35 36.5 L 33 37.5 L 34.5 40 L 31 37.5 L 33.5 36 Z " /><path fill="rgb(246,223,23)" stroke="rgb(246,223,23)" stroke-width="1" opacity="1" d="M 38.5 36 L 40 38.5 L 38 39.5 L 39 37.5 L 38.5 36 Z " /><path fill="rgb(246,223,23)" stroke="rgb(246,223,23)" stroke-width="1" opacity="1" d="M 44.5 36 L 45 39.5 L 44 39.5 L 44.5 36 Z " /><path fill="rgb(246,223,23)" stroke="rgb(246,223,23)" stroke-width="1" opacity="1" d="M 11.5 38 L 13.5 39 L 15 38.5 L 12 40.5 L 11.5 38 Z " /><path fill="rgb(246,223,23)" stroke="rgb(246,223,23)" stroke-width="1" opacity="1" d="M 28.5 39 L 31 42.5 L 30.5 45 L 27 41.5 L 28 40.5 L 28.5 39 Z " /><path fill="rgb(246,223,23)" stroke="rgb(246,223,23)" stroke-width="1" opacity="1" d="M 25.5 41 L 23.5 44 L 25.5 41 Z " /><path fill="rgb(246,223,23)" stroke="rgb(246,223,23)" stroke-width="1" opacity="1" d="M 43.5 41 L 41.5 44 L 43.5 41 Z " /><path fill="rgb(246,223,23)" stroke="rgb(246,223,23)" stroke-width="1" opacity="1" d="M 11.5 42 L 13.5 45 L 11.5 42 Z " /><path fill="rgb(246,223,23)" stroke="rgb(246,223,23)" stroke-width="1" opacity="1" d="M 26.5 43 L 25.5 45 L 26.5 43 Z " /><path fill="rgb(246,223,23)" stroke="rgb(246,223,23)" stroke-width="1" opacity="1" d="M 17.5 44 L 22 44.5 L 17.5 45 L 17.5 44 Z " /><path fill="rgb(246,223,23)" stroke="rgb(246,223,23)" stroke-width="1" opacity="1" d="M 34.5 44 L 39 44.5 L 34.5 45 L 34.5 44 Z " /><path fill="rgb(247,224,24)" stroke="rgb(247,224,24)" stroke-width="1" opacity="1" d="M 0 0 L 48 0 L 48 48 L 0 48 L 0 0 Z M 23 20 L 20 23 L 20 38 L 18 38 L 15 36 L 14 38 L 11 41 L 11 43 Q 13 47 15 44 L 18 46 Q 25 47 27 42 Q 30 47 40 46 L 40 44 L 42 45 Q 47 43 46 36 Q 42 34 45 33 Q 44 30 43 32 L 40 30 L 39 28 L 42 29 L 44 25 L 39 20 L 33 21 L 29 26 L 28 23 Q 27 19 23 20 Z " /><path fill="rgb(247,224,24)" stroke="rgb(247,224,24)" stroke-width="1" opacity="1" d="M 35.5 26 L 36.5 28 L 35.5 26 Z " /><path fill="rgb(247,224,24)" stroke="rgb(247,224,24)" stroke-width="1" opacity="1" d="M 28.5 30 L 31.5 35 L 34 35.5 L 28 37 L 28.5 30 Z " /><path fill="rgb(247,224,24)" stroke="rgb(247,224,24)" stroke-width="1" opacity="1" d="M 35.5 36 L 38 37.5 Q 36.8 40.3 35.5 38 L 34 37.5 L 35.5 36 Z " /><path fill="rgb(254,230,25)" stroke="rgb(254,230,25)" stroke-width="1" opacity="1" d="M 22.5 20 L 26 20.5 L 22.5 21 L 22.5 20 Z " /><path fill="rgb(254,230,25)" stroke="rgb(254,230,25)" stroke-width="1" opacity="1" d="M 12.5 42 L 13.5 44 L 12.5 42 Z " /><path fill="rgb(255,239,25)" stroke="rgb(255,239,25)" stroke-width="1" opacity="1" d="M 34.5 20 Q 39.3 19.3 41 21.5 L 39.5 22 L 34.5 21 L 32.5 22 L 32.5 21 L 34.5 20 Z " /><path fill="rgb(255,239,25)" stroke="rgb(255,239,25)" stroke-width="1" opacity="1" d="M 20.5 22 L 21 37.5 L 20 37.5 L 20.5 22 Z " /><path fill="rgb(255,239,25)" stroke="rgb(255,239,25)" stroke-width="1" opacity="1" d="M 27.5 22 L 29 28.5 L 28 29.5 L 28 37.5 L 30 37.5 L 28 40.5 Q 31 45.5 39 45.5 L 34.5 46 L 27.5 41 L 26 41.5 L 27 39.5 L 27.5 22 Z " /><path fill="rgb(255,239,25)" stroke="rgb(255,239,25)" stroke-width="1" opacity="1" d="M 43.5 24 L 44 25.5 L 42 26.5 L 43.5 24 Z " /><path fill="rgb(255,239,25)" stroke="rgb(255,239,25)" stroke-width="1" opacity="1" d="M 37.5 26 L 41 28.5 L 38.5 30 L 38.5 28 Q 36.3 27.3 37 29.5 L 36 29.5 L 37.5 26 Z " /><path fill="rgb(255,239,25)" stroke="rgb(255,239,25)" stroke-width="1" opacity="1" d="M 29.5 30 L 33 34.5 L 29 31.5 L 29.5 30 Z " /><path fill="rgb(255,239,25)" stroke="rgb(255,239,25)" stroke-width="1" opacity="1" d="M 42.5 32 L 44.5 35 L 42.5 32 Z " /><path fill="rgb(255,239,25)" stroke="rgb(255,239,25)" stroke-width="1" opacity="1" d="M 31.5 36 L 34 37.5 L 32.5 37 L 31.5 36 Z " /><path fill="rgb(255,239,25)" stroke="rgb(255,239,25)" stroke-width="1" opacity="1" d="M 45.5 36 L 46 39.5 L 44.5 42 L 44 40.5 L 45.5 36 Z " /><path fill="rgb(255,239,25)" stroke="rgb(255,239,25)" stroke-width="1" opacity="1" d="M 18.5 38 L 19.5 40 Q 16.7 40.7 18.5 38 Z " /><path fill="rgb(255,239,25)" stroke="rgb(255,239,25)" stroke-width="1" opacity="1" d="M 35.5 39 L 38 39.5 L 35.5 40 L 35.5 39 Z " /><path fill="rgb(255,239,25)" stroke="rgb(255,239,25)" stroke-width="1" opacity="1" d="M 11.5 40 Q 13.8 45.2 21.5 45 L 23.5 44 L 23.5 45 L 17.5 46 L 11.5 40 Z " /><path fill="rgb(255,239,25)" stroke="rgb(255,239,25)" stroke-width="1" opacity="1" d="M 42.5 43 L 41.5 45 L 40 44.5 L 42.5 43 Z " /><path fill="rgb(255,250,27)" stroke="rgb(255,250,27)" stroke-width="1" opacity="1" d="M 31.5 22 L 30.5 24 L 31.5 22 Z " /><path fill="rgb(255,250,27)" stroke="rgb(255,250,27)" stroke-width="1" opacity="1" d="M 41.5 22 L 42.5 24 L 41.5 22 Z " /><path fill="rgb(255,250,27)" stroke="rgb(255,250,27)" stroke-width="1" opacity="1" d="M 36.5 26 L 36 27.5 L 35.5 29 L 35 27.5 L 36.5 26 Z " /><path fill="rgb(255,250,27)" stroke="rgb(255,250,27)" stroke-width="1" opacity="1" d="M 37.5 36 L 39 38.5 L 38 38.5 L 37.5 36 Z " /><path fill="rgb(255,250,27)" stroke="rgb(255,250,27)" stroke-width="1" opacity="1" d="M 25.5 42 L 24.5 44 L 25.5 42 Z " /></svg>