<svg width="48" height="48" version="1.1" xmlns="http://www.w3.org/2000/svg" desc="Created with imagetracer.js version 1.2.6" ><path fill="rgb(144,50,77)" stroke="rgb(144,50,77)" stroke-width="1" opacity="1" d="M 22.5 3 L 39.5 3 L 41 4.5 L 40.5 6 L 40 4 L 22.5 4 L 22 5.5 L 21 5.5 L 22.5 3 Z " /><path fill="rgb(144,50,77)" stroke="rgb(144,50,77)" stroke-width="1" opacity="1" d="M 29.5 8 L 30 9.5 L 27 16 L 24 14.5 L 23 10.5 L 24 10.5 L 25.5 15 L 29.5 8 Z " /><path fill="rgb(144,50,77)" stroke="rgb(144,50,77)" stroke-width="1" opacity="1" d="M 32.5 8 L 36.5 15 L 37.5 13 L 38 14.5 L 35 16 L 32.5 8 Z " /><path fill="rgb(144,50,77)" stroke="rgb(144,50,77)" stroke-width="1" opacity="1" d="M 30.5 16 L 33 17.5 L 32.5 19 L 32 17 Q 29.3 15.9 30 18.5 L 29 18.5 L 30.5 16 Z " /><path fill="rgb(144,50,77)" stroke="rgb(144,50,77)" stroke-width="1" opacity="1" d="M 29.5 20 L 31.5 21 L 33 20.5 L 30.5 22 L 29.5 20 Z " /><path fill="rgb(144,50,77)" stroke="rgb(144,50,77)" stroke-width="1" opacity="1" d="M 23.5 21 L 27 23.5 L 26.5 25 L 24.5 22 L 22 23.5 L 21.5 25 L 21 22 L 23.5 21 Z " /><path fill="rgb(144,50,77)" stroke="rgb(144,50,77)" stroke-width="1" opacity="1" d="M 11.5 24 L 10.5 26 L 11.5 24 Z " /><path fill="rgb(144,50,77)" stroke="rgb(144,50,77)" stroke-width="1" opacity="1" d="M 36.5 24 L 37.5 26 L 36.5 24 Z " /><path fill="rgb(144,50,77)" stroke="rgb(144,50,77)" stroke-width="1" opacity="1" d="M 32.5 25 L 35.5 29 L 37 29.5 L 35.5 30 L 32 26.5 L 32.5 25 Z " /><path fill="rgb(144,50,77)" stroke="rgb(144,50,77)" stroke-width="1" opacity="1" d="M 27.5 28 L 26.5 30 L 27.5 28 Z " /><path fill="rgb(144,50,77)" stroke="rgb(144,50,77)" stroke-width="1" opacity="1" d="M 7.5 32 L 12 37.5 L 8 34.5 L 7.5 33 L 6.5 35 L 6 33.5 L 7.5 32 Z " /><path fill="rgb(144,50,77)" stroke="rgb(144,50,77)" stroke-width="1" opacity="1" d="M 39.5 34 L 37.5 37 L 34 36.5 Q 38.3 36.8 39.5 34 Z " /><path fill="rgb(144,50,77)" stroke="rgb(144,50,77)" stroke-width="1" opacity="1" d="M 29.5 37 L 33 37.5 L 29.5 38 L 29.5 37 Z " /><path fill="rgb(144,50,77)" stroke="rgb(144,50,77)" stroke-width="1" opacity="1" d="M 26.5 38 L 28 38.5 L 18.5 43 L 18.5 42 L 26.5 38 Z " /><path fill="rgb(144,50,77)" stroke="rgb(144,50,77)" stroke-width="1" opacity="1" d="M 9.5 43 L 14 44.5 L 10.5 45 L 9.5 43 Z " /><path fill="rgb(0,0,0)" stroke="rgb(0,0,0)" stroke-width="1" opacity="0" d="M 0 0 L 15.5 0 L 16 1.5 L 22 17.5 Q 17 18.5 18 25.5 L 20 29.5 L 14.5 34 L 12 34 L 11 30.5 Q 15.4 28.4 16 22.5 L 12.5 18 Q 5.3 16.8 4 21.5 L 5 28.5 L 3 31.5 L 2 40.5 L 5.5 46 L 9 47.5 L 0 48 L 0 0 Z " /><path fill="rgb(0,0,0)" stroke="rgb(0,0,0)" stroke-width="1" opacity="0" d="M 46 0 L 48 0.5 L 48 48 L 16 47.5 L 27.5 42 L 38.5 40 L 44 35.5 L 45 29.5 L 43 26.5 L 44 21.5 L 40 16.5 L 46 0 Z " /><path fill="rgb(140,42,70)" stroke="rgb(140,42,70)" stroke-width="1" opacity="1" d="M 8.5 21 L 7.5 23 L 8.5 21 Z " /><path fill="rgb(140,42,70)" stroke="rgb(140,42,70)" stroke-width="1" opacity="1" d="M 10.5 21 L 11.5 23 L 10.5 21 Z " /><path fill="rgb(140,42,70)" stroke="rgb(140,42,70)" stroke-width="1" opacity="1" d="M 39.5 21 L 40.5 23 L 39.5 21 Z " /><path fill="rgb(140,42,70)" stroke="rgb(140,42,70)" stroke-width="1" opacity="1" d="M 7.5 24 L 8.5 26 L 7.5 24 Z " /><path fill="rgb(140,42,70)" stroke="rgb(140,42,70)" stroke-width="1" opacity="1" d="M 40.5 24 L 39.5 26 L 40.5 24 Z " /><path fill="rgb(140,42,70)" stroke="rgb(140,42,70)" stroke-width="1" opacity="1" d="M 23.5 30 L 19.5 35 L 23.5 30 Z " /><path fill="rgb(140,42,70)" stroke="rgb(140,42,70)" stroke-width="1" opacity="1" d="M 6.5 41 L 8.5 44 L 6.5 41 Z " /><path fill="rgb(224,198,205)" stroke="rgb(224,198,205)" stroke-width="1" opacity="1" d="M 20.5 2 L 42 2.5 L 20.5 3 L 20.5 2 Z " /><path fill="rgb(224,198,205)" stroke="rgb(224,198,205)" stroke-width="1" opacity="1" d="M 24.5 17 L 27 17.5 Q 24.9 20.8 24.5 17 Z " /><path fill="rgb(224,198,205)" stroke="rgb(224,198,205)" stroke-width="1" opacity="1" d="M 35.5 17 L 38 17.5 Q 35.9 20.8 35.5 17 Z " /><path fill="rgb(224,198,205)" stroke="rgb(224,198,205)" stroke-width="1" opacity="1" d="M 22.5 20 L 21.5 22 L 22.5 20 Z " /><path fill="rgb(224,198,205)" stroke="rgb(224,198,205)" stroke-width="1" opacity="1" d="M 25.5 20 L 26.5 22 L 25.5 20 Z " /><path fill="rgb(224,198,205)" stroke="rgb(224,198,205)" stroke-width="1" opacity="1" d="M 33.5 21 L 32.5 23 L 29 22.5 L 33.5 21 Z " /><path fill="rgb(224,198,205)" stroke="rgb(224,198,205)" stroke-width="1" opacity="1" d="M 12.5 25 L 11.5 27 L 12.5 25 Z " /><path fill="rgb(224,198,205)" stroke="rgb(224,198,205)" stroke-width="1" opacity="1" d="M 35.5 25 L 36.5 27 L 35.5 25 Z " /><path fill="rgb(224,198,205)" stroke="rgb(224,198,205)" stroke-width="1" opacity="1" d="M 28.5 26 L 27.5 28 L 28.5 26 Z " /><path fill="rgb(224,198,205)" stroke="rgb(224,198,205)" stroke-width="1" opacity="1" d="M 10.5 45 L 14 45.5 L 10.5 46 L 10.5 45 Z " /><path fill="rgb(254,254,254)" stroke="rgb(254,254,254)" stroke-width="1" opacity="0.44313725490196076" d="M 16 0 L 45.5 0 L 46 1.5 L 44.5 4 L 44 2.5 L 44.5 1 L 17 1.5 L 18 3.5 L 17 3.5 L 16 0 Z " /><path fill="rgb(254,254,254)" stroke="rgb(254,254,254)" stroke-width="1" opacity="0.44313725490196076" d="M 22.5 17 L 23 19 L 19 21.5 L 20 26.5 L 18 25.5 L 18 21.5 L 22.5 17 Z " /><path fill="rgb(254,254,254)" stroke="rgb(254,254,254)" stroke-width="1" opacity="0.44313725490196076" d="M 39.5 17 L 44 21.5 L 44 25.5 L 43 25.5 Q 44 20 40.5 19 Q 37.7 19.7 39.5 17 Z " /><path fill="rgb(254,254,254)" stroke="rgb(254,254,254)" stroke-width="1" opacity="0.44313725490196076" d="M 7.5 18 L 9 18.5 L 5 21.5 L 4.5 23 L 4 21.5 L 7.5 18 Z " /><path fill="rgb(254,254,254)" stroke="rgb(254,254,254)" stroke-width="1" opacity="0.44313725490196076" d="M 11.5 18 L 15 20.5 L 16 24.5 L 15 24.5 L 12.5 19 L 11.5 18 Z " /><path fill="rgb(254,254,254)" stroke="rgb(254,254,254)" stroke-width="1" opacity="0.44313725490196076" d="M 4.5 24 L 6 28.5 L 3.5 34 L 3 31.5 L 5 27.5 L 4.5 24 Z " /><path fill="rgb(254,254,254)" stroke="rgb(254,254,254)" stroke-width="1" opacity="0.44313725490196076" d="M 14.5 26 L 11.5 30 L 14.5 26 Z " /><path fill="rgb(254,254,254)" stroke="rgb(254,254,254)" stroke-width="1" opacity="0.44313725490196076" d="M 44.5 29 L 45 32.5 L 44 32.5 L 44.5 29 Z " /><path fill="rgb(254,254,254)" stroke="rgb(254,254,254)" stroke-width="1" opacity="0.44313725490196076" d="M 19.5 30 L 18.5 32 L 19.5 30 Z " /><path fill="rgb(254,254,254)" stroke="rgb(254,254,254)" stroke-width="1" opacity="0.44313725490196076" d="M 16.5 32 L 15.5 34 L 16.5 32 Z " /><path fill="rgb(254,254,254)" stroke="rgb(254,254,254)" stroke-width="1" opacity="0.44313725490196076" d="M 43.5 34 L 44 35.5 L 37.5 40 L 37.5 39 L 43 35.5 L 43.5 34 Z " /><path fill="rgb(254,254,254)" stroke="rgb(254,254,254)" stroke-width="1" opacity="0.44313725490196076" d="M 2.5 35 Q 2.4 41.8 5 45 L 8 46.5 L 6.5 46 L 4 44.5 Q 0.8 41.3 2.5 35 Z " /><path fill="rgb(254,254,254)" stroke="rgb(254,254,254)" stroke-width="1" opacity="0.44313725490196076" d="M 31.5 40 L 35 40.5 L 31.5 41 L 31.5 40 Z " /><path fill="rgb(254,254,254)" stroke="rgb(254,254,254)" stroke-width="1" opacity="0.44313725490196076" d="M 25.5 42 L 27 42.5 L 17.5 47 L 17.5 46 L 25.5 42 Z " /><path fill="rgb(254,254,254)" stroke="rgb(254,254,254)" stroke-width="1" opacity="0.44313725490196076" d="M 9.5 47 L 16 47.5 L 9.5 48 L 9.5 47 Z " /><path fill="rgb(182,120,138)" stroke="rgb(182,120,138)" stroke-width="1" opacity="0.996078431372549" d="M 30.5 24 L 33 24.5 L 30.5 25 L 30.5 24 Z " /><path fill="rgb(182,120,138)" stroke="rgb(182,120,138)" stroke-width="1" opacity="0.996078431372549" d="M 21.5 25 L 22.5 27 L 21.5 25 Z " /><path fill="rgb(182,120,138)" stroke="rgb(182,120,138)" stroke-width="1" opacity="0.996078431372549" d="M 26.5 25 L 25.5 27 L 26.5 25 Z " /><path fill="rgb(182,120,138)" stroke="rgb(182,120,138)" stroke-width="1" opacity="0.996078431372549" d="M 21.5 31 L 19.5 34 L 21.5 31 Z " /><path fill="rgb(182,120,138)" stroke="rgb(182,120,138)" stroke-width="1" opacity="0.996078431372549" d="M 10.5 35 L 11.5 37 L 10.5 35 Z " /><path fill="rgb(182,120,138)" stroke="rgb(182,120,138)" stroke-width="1" opacity="0.996078431372549" d="M 6.5 42 L 7.5 44 L 6.5 42 Z " /><path fill="rgb(150,60,85)" stroke="rgb(150,60,85)" stroke-width="1" opacity="1" d="M 26.5 13 L 25.5 15 L 26.5 13 Z " /><path fill="rgb(150,60,85)" stroke="rgb(150,60,85)" stroke-width="1" opacity="1" d="M 29.5 19 L 32 20.5 L 29.5 22 L 29.5 19 Z " /><path fill="rgb(150,60,85)" stroke="rgb(150,60,85)" stroke-width="1" opacity="1" d="M 28 27 L 30 27.5 L 27 29.5 L 28 27 Z " /><path fill="rgb(150,60,85)" stroke="rgb(150,60,85)" stroke-width="1" opacity="1" d="M 32.5 27 L 33.5 29 L 32.5 27 Z " /><path fill="rgb(150,60,85)" stroke="rgb(150,60,85)" stroke-width="1" opacity="1" d="M 25.5 29 L 26 31 L 24 30.5 L 25.5 29 Z " /><path fill="rgb(150,60,85)" stroke="rgb(150,60,85)" stroke-width="1" opacity="1" d="M 36.5 30 Q 41.9 28.1 41 31.5 L 39.5 31 Q 35.5 31.8 36.5 30 Z " /><path fill="rgb(150,60,85)" stroke="rgb(150,60,85)" stroke-width="1" opacity="1" d="M 6.5 32 L 7.5 34 L 6.5 32 Z " /><path fill="rgb(150,60,85)" stroke="rgb(150,60,85)" stroke-width="1" opacity="1" d="M 6.5 35 L 7 39.5 L 5 38.5 L 6.5 35 Z " /><path fill="rgb(254,253,253)" stroke="rgb(254,253,253)" stroke-width="1" opacity="0.996078431372549" d="M 17.5 1 L 45 1.5 L 39 19 L 43 21.5 L 44 33.5 L 40.5 38 L 36.5 40 L 31.5 40 L 25.5 42 L 16.5 47 L 8.5 47 L 5 45 Q 2.1 42.1 3 34.5 L 6 27.5 L 4 23.5 L 7.5 19 L 10.5 18 L 14 20.5 L 15 25.5 L 11 29.5 L 11 32.5 L 12 35 L 20 30.5 L 21 28.5 Q 18.2 26.8 19 21.5 L 23 19 L 17.5 1 Z M 20 2 L 20 6 L 26 19 L 30 12 Q 29 8 32 9 L 37 19 L 42 6 L 42 2 L 20 2 Z M 30 13 L 28 19 Q 26 20 29 22 Q 28 25 33 23 L 35 20 L 32 15 Q 33 12 30 13 Z M 9 20 Q 5 21 6 25 Q 7 28 12 27 Q 14 26 13 23 Q 13 20 9 20 Z M 23 20 L 20 24 L 23 27 Q 27 28 28 25 L 27 22 Q 26 19 23 20 Z M 38 20 L 37 21 Q 33 20 35 26 Q 36 28 40 27 Q 43 26 42 23 Q 42 20 38 20 Z M 29 24 L 29 26 L 18 35 L 13 37 L 9 33 Q 10 28 8 29 Q 4 33 5 42 L 11 46 Q 22 45 29 39 L 38 38 L 41 36 L 42 28 L 40 29 Q 35 29 33 26 L 33 24 L 29 24 Z " /><path fill="rgb(153,66,91)" stroke="rgb(153,66,91)" stroke-width="1" opacity="1" d="M 22 4 L 39.5 4 L 40 5.5 L 40.5 7 L 39 6.5 L 40 9.5 L 38 9.5 L 39 12.5 L 37 12.5 L 38 15.5 L 36 14.5 L 31.5 7 L 28 9.5 L 25.5 14 L 22.5 6 L 21 6.5 L 22 4 Z " /><path fill="rgb(153,66,91)" stroke="rgb(153,66,91)" stroke-width="1" opacity="1" d="M 29.5 16 L 31.5 17 L 33 16.5 L 32 18.5 L 34 18.5 L 30 20 L 29.5 16 Z " /><path fill="rgb(153,66,91)" stroke="rgb(153,66,91)" stroke-width="1" opacity="1" d="M 11.5 21 L 11 22.5 Q 12.3 26.3 8.5 25 L 7 25.5 L 9.5 22 L 11.5 21 Z " /><path fill="rgb(153,66,91)" stroke="rgb(153,66,91)" stroke-width="1" opacity="1" d="M 23.5 22 L 26 23.5 L 23.5 25 Q 20.5 23.5 23.5 22 Z " /><path fill="rgb(153,66,91)" stroke="rgb(153,66,91)" stroke-width="1" opacity="1" d="M 37 22 L 40 23.5 L 41 25.5 L 39.5 25 Q 35.3 26.1 37 22 Z " /><path fill="rgb(153,66,91)" stroke="rgb(153,66,91)" stroke-width="1" opacity="1" d="M 29.5 25 L 32 26 L 33.5 29 Q 35.5 31.8 40 31 L 41 34.5 L 38.5 35 L 26 38.5 L 26.5 40 L 23.5 39 Q 19.2 43.2 11.5 44 L 8 43 Q 6.3 40.6 7 34.5 L 10 34.5 Q 7.3 36.2 11.5 38 L 13.5 37 L 15.5 38 L 15.5 36 L 17.5 37 L 18.5 34 L 19.5 35 L 23 31.5 Q 20.8 30.3 23.5 29 L 25 29.5 L 23 30.5 L 25.5 31 L 30 27.5 L 29.5 25 Z " /><path fill="rgb(153,66,91)" stroke="rgb(153,66,91)" stroke-width="1" opacity="1" d="M 37.5 29 L 40 29.5 L 37.5 30 L 37.5 29 Z " /><path fill="rgb(153,66,91)" stroke="rgb(153,66,91)" stroke-width="1" opacity="1" d="M 41.5 29 L 42 32.5 L 41 32.5 L 41.5 29 Z " /></svg>