<svg width="48" height="48" version="1.1" xmlns="http://www.w3.org/2000/svg" desc="Created with imagetracer.js version 1.2.6" ><path fill="rgb(0,100,254)" stroke="rgb(0,100,254)" stroke-width="1" opacity="0.3333333333333333" d="M 19.5 1 L 23 1.5 L 19.5 2 L 19.5 1 Z " /><path fill="rgb(0,100,254)" stroke="rgb(0,100,254)" stroke-width="1" opacity="0.3333333333333333" d="M 25.5 1 L 29 1.5 L 25.5 2 L 25.5 1 Z " /><path fill="rgb(0,100,254)" stroke="rgb(0,100,254)" stroke-width="1" opacity="0.3333333333333333" d="M 10.5 5 L 5.5 11 L 10.5 5 Z " /><path fill="rgb(0,100,254)" stroke="rgb(0,100,254)" stroke-width="1" opacity="0.3333333333333333" d="M 37.5 5 L 42.5 11 L 37.5 5 Z " /><path fill="rgb(0,100,254)" stroke="rgb(0,100,254)" stroke-width="1" opacity="0.3333333333333333" d="M 1.5 19 L 2 22.5 L 1 22.5 L 1.5 19 Z " /><path fill="rgb(0,100,254)" stroke="rgb(0,100,254)" stroke-width="1" opacity="0.3333333333333333" d="M 46.5 19 L 47 22.5 L 46 22.5 L 46.5 19 Z " /><path fill="rgb(0,100,254)" stroke="rgb(0,100,254)" stroke-width="1" opacity="0.3333333333333333" d="M 1.5 25 L 2 28.5 L 1 28.5 L 1.5 25 Z " /><path fill="rgb(0,100,254)" stroke="rgb(0,100,254)" stroke-width="1" opacity="0.3333333333333333" d="M 46.5 25 L 47 28.5 L 46 28.5 L 46.5 25 Z " /><path fill="rgb(0,100,254)" stroke="rgb(0,100,254)" stroke-width="1" opacity="0.3333333333333333" d="M 5.5 37 L 10.5 43 L 5.5 37 Z " /><path fill="rgb(0,100,254)" stroke="rgb(0,100,254)" stroke-width="1" opacity="0.3333333333333333" d="M 42.5 37 L 37.5 43 L 42.5 37 Z " /><path fill="rgb(0,0,0)" stroke="rgb(0,0,0)" stroke-width="1" opacity="0" d="M 0 0 L 48 0 L 48 48 L 0 48 L 0 0 Z M 20 1 L 11 5 Q 3 10 1 20 L 1 29 L 5 38 Q 10 45 20 47 L 29 47 L 38 43 Q 45 38 47 29 L 47 20 L 43 11 Q 37 0 20 1 Z " /><path fill="rgb(1,101,254)" stroke="rgb(1,101,254)" stroke-width="1" opacity="0.996078431372549" d="M 18.5 2 Q 27.4 0.6 32.5 3 L 42 10.5 Q 47.8 16.2 46 29.5 Q 43.5 37.5 37.5 42 L 35.5 43 L 34 40.5 L 33 26.5 L 32 23 L 41.5 23 L 43 21.5 Q 44.1 18.2 41.5 19 L 39 18 L 37.5 15 L 32.5 16 L 32 9 L 23.5 5 L 16 9 L 16 17 L 13.5 17 L 11.5 21 L 7.5 20 Q 4.3 20.8 5 25.5 L 7.5 28 L 15 28 L 14 40.5 L 12.5 43 L 6 37.5 Q 0.2 31.8 2 18.5 Q 4.5 10.5 10.5 6 L 18.5 2 Z " /><path fill="rgb(244,116,77)" stroke="rgb(244,116,77)" stroke-width="1" opacity="1" d="M 17.5 22 L 26 22.5 Q 24.8 25.3 23.5 23 L 17.5 23 L 17.5 22 Z " /><path fill="rgb(244,116,77)" stroke="rgb(244,116,77)" stroke-width="1" opacity="1" d="M 33.5 38 L 34 40.5 L 33 40.5 L 33.5 38 Z " /><path fill="rgb(248,85,34)" stroke="rgb(248,85,34)" stroke-width="1" opacity="0.4117647058823529" d="M 19.5 46 L 26 46.5 L 19.5 47 L 19.5 46 Z " /><path fill="rgb(254,111,47)" stroke="rgb(254,111,47)" stroke-width="1" opacity="0.9882352941176471" d="M 21 12 L 27 12 L 27 18 L 21 18 L 21 12 Z " /><path fill="rgb(189,221,243)" stroke="rgb(189,221,243)" stroke-width="1" opacity="1" d="M 33.5 16 Q 38.9 14.1 38 17.5 L 42 19 L 42 22 L 35 22 Q 37.1 16.8 32.5 18 L 33.5 16 Z " /><path fill="rgb(189,221,243)" stroke="rgb(189,221,243)" stroke-width="1" opacity="1" d="M 7.5 20 Q 12.7 19.2 13.5 23 L 19 23 L 19 27 L 17.5 27 L 16.5 28 L 7.5 28 Q 4.3 27.3 5 22.5 L 7.5 20 Z " /><path fill="rgb(255,102,51)" stroke="rgb(255,102,51)" stroke-width="1" opacity="1" d="M 23.5 6 L 31 10.5 L 31 18 Q 37 16 35 22 Q 29.4 19.8 31 25.5 L 32 28 L 15.5 36 L 15 33.5 L 16 28 L 26 22.5 L 13 22 Q 11 16 17 18 L 17 10.5 L 23.5 6 Z M 21 12 L 21 18 L 27 18 L 27 12 L 21 12 Z " /><path fill="rgb(255,102,51)" stroke="rgb(255,102,51)" stroke-width="1" opacity="1" d="M 31.5 35 Q 34.3 34.4 33 40.5 L 33.5 42 L 24.5 46 L 22.5 45 L 18 46 L 17.5 44 L 15 45 Q 13.9 42.3 16.5 43 L 31.5 35 Z " /><path fill="rgb(236,155,134)" stroke="rgb(236,155,134)" stroke-width="1" opacity="0.9647058823529412" d="M 16.5 10 L 17 15.5 L 16 15.5 L 16.5 10 Z " /><path fill="rgb(236,155,134)" stroke="rgb(236,155,134)" stroke-width="1" opacity="0.9647058823529412" d="M 31.5 10 L 32 15.5 L 31 15.5 L 31.5 10 Z " /><path fill="rgb(236,155,134)" stroke="rgb(236,155,134)" stroke-width="1" opacity="0.9647058823529412" d="M 13.5 22 L 17 22.5 L 13.5 23 L 13.5 22 Z " /><path fill="rgb(236,155,134)" stroke="rgb(236,155,134)" stroke-width="1" opacity="0.9647058823529412" d="M 32.5 22 L 35 22.5 L 31.5 24 L 32.5 22 Z " /><path fill="rgb(236,155,134)" stroke="rgb(236,155,134)" stroke-width="1" opacity="0.9647058823529412" d="M 19 23 L 24 23.5 L 19.5 26 L 19 23 Z " /><path fill="rgb(236,155,134)" stroke="rgb(236,155,134)" stroke-width="1" opacity="0.9647058823529412" d="M 31.5 28 L 33 33.5 L 14 43 L 15 36 L 31.5 28 Z " /><path fill="rgb(236,155,134)" stroke="rgb(236,155,134)" stroke-width="1" opacity="0.9647058823529412" d="M 33.5 42 L 34 45 L 26.5 47 L 27.5 45 L 33.5 42 Z " /><path fill="rgb(22,102,238)" stroke="rgb(22,102,238)" stroke-width="1" opacity="0.996078431372549" d="M 34.5 15 L 37 15.5 L 34.5 16 L 34.5 15 Z " /><path fill="rgb(22,102,238)" stroke="rgb(22,102,238)" stroke-width="1" opacity="0.996078431372549" d="M 16.5 16 L 15.5 18 Q 11.3 16.7 13 21.5 L 12 21.5 Q 11.3 17.8 13.5 17 L 16.5 16 Z " /><path fill="rgb(22,102,238)" stroke="rgb(22,102,238)" stroke-width="1" opacity="0.996078431372549" d="M 37.5 22 L 41 22.5 L 37.5 23 L 37.5 22 Z " /><path fill="rgb(22,102,238)" stroke="rgb(22,102,238)" stroke-width="1" opacity="0.996078431372549" d="M 32.5 26 L 33 29.5 L 32 29.5 L 32.5 26 Z " /><path fill="rgb(22,102,238)" stroke="rgb(22,102,238)" stroke-width="1" opacity="0.996078431372549" d="M 14.5 34 L 15 36.5 L 14 36.5 L 14.5 34 Z " /><path fill="rgb(22,102,238)" stroke="rgb(22,102,238)" stroke-width="1" opacity="0.996078431372549" d="M 33.5 34 L 34 36.5 L 33 36.5 L 33.5 34 Z " /><path fill="rgb(9,115,252)" stroke="rgb(9,115,252)" stroke-width="1" opacity="0.996078431372549" d="M 33.5 15 L 32.5 17 L 33.5 15 Z " /><path fill="rgb(9,115,252)" stroke="rgb(9,115,252)" stroke-width="1" opacity="0.996078431372549" d="M 37.5 15 L 38.5 17 L 37.5 15 Z " /></svg>