<svg width="512" height="512" version="1.1" xmlns="http://www.w3.org/2000/svg" desc="Created with imagetracer.js version 1.2.6" ><path fill="rgb(255,255,255)" stroke="rgb(255,255,255)" stroke-width="1" opacity="0.6509803921568628" d="M 90.5 72 L 421.5 72 Q 431.6 75.9 437 84.5 L 439 87.5 Q 436.5 89 440 90.5 L 440 421.5 L 438 423.5 Q 440.5 425 437 426.5 L 427.5 437 L 421.5 440 L 90.5 440 Q 80.4 436.1 75 427.5 L 73 424.5 Q 75.5 423 72 421.5 L 72 90.5 L 74 88.5 Q 71.5 87 75 85.5 L 84.5 75 L 90.5 72 Z M 93 73 L 83 78 Q 76 83 73 93 L 73 420 L 78 430 Q 83 436 93 439 L 420 439 L 430 434 Q 436 429 439 420 L 439 93 L 434 83 Q 429 76 420 73 L 93 73 Z " /><path fill="rgb(255,255,255)" stroke="rgb(255,255,255)" stroke-width="1" opacity="0.6509803921568628" d="M 152.5 133 Q 172.5 132.5 181 143.5 L 187 154.5 L 188 166.5 L 186 173.5 L 180 183 L 168.5 190 L 152.5 192 L 143.5 190 L 131 181.5 Q 123.6 174.4 124 159.5 L 126 151.5 L 132.5 142 L 143.5 135 L 152.5 133 Z M 150 135 L 136 141 Q 128 146 126 157 Q 124 171 130 178 L 138 185 L 152 190 L 161 190 L 175 185 Q 184 179 186 167 L 186 159 L 182 147 Q 173 133 150 135 Z " /><path fill="rgb(255,255,255)" stroke="rgb(255,255,255)" stroke-width="1" opacity="0.6509803921568628" d="M 319.5 209 L 320.5 210 L 336.5 211 L 350.5 216 Q 362.3 222.2 370 232.5 L 380 251.5 L 384 269.5 L 384 379.5 Q 382.7 382.3 381.5 380 L 328 380 L 328 283.5 L 325 270.5 Q 322.1 262.4 315.5 258 L 309.5 255 L 296.5 254 L 288.5 256 L 278 263 L 272 273.5 L 270 284.5 L 270 380 L 214 380 L 214 214.5 L 217.5 213 L 218.5 214 L 266.5 214 L 268.5 213 L 270 214.5 L 270.5 235 L 283.5 221 L 300.5 212 L 308.5 210 L 318.5 210 L 319.5 209 Z M 309 212 Q 294 214 285 222 L 272 237 L 268 238 L 269 235 L 269 215 L 216 215 L 216 379 L 217 379 L 269 379 L 269 279 L 274 267 Q 281 257 294 253 Q 309 251 317 257 L 326 269 L 330 284 L 330 378 L 329 379 L 383 379 L 383 276 L 382 275 L 382 267 L 376 246 L 365 228 L 358 222 L 342 214 L 333 212 L 309 212 Z " /><path fill="rgb(255,255,255)" stroke="rgb(255,255,255)" stroke-width="1" opacity="0.6509803921568628" d="M 129.5 213 L 131.5 214 L 179.5 214 L 182.5 213 L 184 214.5 L 184 380 L 130.5 380 L 129.5 381 L 128 379.5 L 128 214.5 L 129.5 213 Z M 129 215 L 129 379 L 130 379 L 183 379 L 182 378 L 182 216 L 182 215 L 129 215 Z " /><path fill="rgb(255,255,255)" stroke="rgb(255,255,255)" stroke-width="1" opacity="0.996078431372549" d="M 92.5 73 L 419.5 73 Q 428.7 75.8 434 82.5 L 439 92.5 L 439 419.5 Q 436.2 428.7 429.5 434 L 419.5 439 L 92.5 439 Q 83.3 436.2 78 429.5 L 73 419.5 L 73 92.5 Q 75.8 83.3 82.5 78 L 92.5 73 Z M 92 75 L 80 82 Q 81 85 79 84 L 75 93 L 75 420 L 79 428 Q 81 427 80 431 L 92 437 L 421 437 L 432 431 Q 431 427 434 428 L 437 420 L 437 93 L 434 86 Q 435 83 432 84 L 432 82 L 421 75 L 92 75 Z " /><path fill="rgb(255,255,255)" stroke="rgb(255,255,255)" stroke-width="1" opacity="0.996078431372549" d="M 149.5 133 L 152 133.5 L 149.5 134 L 149.5 133 Z " /><path fill="rgb(255,255,255)" stroke="rgb(255,255,255)" stroke-width="1" opacity="0.996078431372549" d="M 160.5 133 L 163 133.5 L 160.5 134 L 160.5 133 Z " /><path fill="rgb(255,255,255)" stroke="rgb(255,255,255)" stroke-width="1" opacity="0.996078431372549" d="M 132 138 Q 134.7 136.9 134 139.5 L 136 139.5 L 133 141.5 L 133.5 140 Q 130.9 140.7 132 138 Z " /><path fill="rgb(255,255,255)" stroke="rgb(255,255,255)" stroke-width="1" opacity="0.996078431372549" d="M 175.5 138 L 178.5 142 L 175.5 138 Z " /><path fill="rgb(255,255,255)" stroke="rgb(255,255,255)" stroke-width="1" opacity="0.996078431372549" d="M 130.5 144 L 128.5 147 L 130.5 144 Z " /><path fill="rgb(255,255,255)" stroke="rgb(255,255,255)" stroke-width="1" opacity="0.996078431372549" d="M 181.5 144 L 182.5 146 L 181.5 144 Z " /><path fill="rgb(255,255,255)" stroke="rgb(255,255,255)" stroke-width="1" opacity="0.996078431372549" d="M 183.5 147 L 184.5 149 L 183.5 147 Z " /><path fill="rgb(255,255,255)" stroke="rgb(255,255,255)" stroke-width="1" opacity="0.996078431372549" d="M 124.5 149 L 125 151.5 L 124 151.5 L 124.5 149 Z " /><path fill="rgb(255,255,255)" stroke="rgb(255,255,255)" stroke-width="1" opacity="0.996078431372549" d="M 185.5 150 L 187 153.5 L 186 153.5 L 185.5 150 Z " /><path fill="rgb(255,255,255)" stroke="rgb(255,255,255)" stroke-width="1" opacity="0.996078431372549" d="M 188.5 152 L 189 154.5 L 187.5 158 L 187 155.5 L 188.5 152 Z " /><path fill="rgb(255,255,255)" stroke="rgb(255,255,255)" stroke-width="1" opacity="0.996078431372549" d="M 125.5 153 L 125 154.5 L 124.5 159 L 124 154.5 L 125.5 153 Z " /><path fill="rgb(255,255,255)" stroke="rgb(255,255,255)" stroke-width="1" opacity="0.996078431372549" d="M 124.5 166 L 125 169.5 L 124 169.5 L 124.5 166 Z " /><path fill="rgb(255,255,255)" stroke="rgb(255,255,255)" stroke-width="1" opacity="0.996078431372549" d="M 187.5 167 L 188 169.5 L 187 169.5 L 187.5 167 Z " /><path fill="rgb(255,255,255)" stroke="rgb(255,255,255)" stroke-width="1" opacity="0.996078431372549" d="M 183.5 178 L 180.5 182 L 183.5 178 Z " /><path fill="rgb(255,255,255)" stroke="rgb(255,255,255)" stroke-width="1" opacity="0.996078431372549" d="M 129.5 179 L 130.5 181 L 129.5 179 Z " /><path fill="rgb(255,255,255)" stroke="rgb(255,255,255)" stroke-width="1" opacity="0.996078431372549" d="M 178.5 183 L 176.5 186 L 178.5 183 Z " /><path fill="rgb(255,255,255)" stroke="rgb(255,255,255)" stroke-width="1" opacity="0.996078431372549" d="M 132.5 184 L 134.5 184 L 137 186.5 L 134.5 185 L 133.5 186 Q 130.7 186.7 132.5 184 Z " /><path fill="rgb(255,255,255)" stroke="rgb(255,255,255)" stroke-width="1" opacity="0.996078431372549" d="M 140.5 188 L 143 189.5 L 141.5 190 L 140.5 188 Z " /><path fill="rgb(255,255,255)" stroke="rgb(255,255,255)" stroke-width="1" opacity="0.996078431372549" d="M 144.5 190 L 154 192.5 L 150.5 194 L 150.5 193 L 152 192.5 L 144.5 191 L 144.5 190 Z " /><path fill="rgb(255,255,255)" stroke="rgb(255,255,255)" stroke-width="1" opacity="0.996078431372549" d="M 165.5 190 L 168 190.5 L 165.5 191 L 165.5 190 Z " /><path fill="rgb(255,255,255)" stroke="rgb(255,255,255)" stroke-width="1" opacity="0.996078431372549" d="M 159.5 191 L 164 191.5 L 159 192.5 L 161 193.5 L 159.5 194 L 157 192.5 L 159.5 191 Z " /><path fill="rgb(255,255,255)" stroke="rgb(255,255,255)" stroke-width="1" opacity="0.996078431372549" d="M 313.5 209 L 319 209.5 L 313.5 210 L 313.5 209 Z " /><path fill="rgb(255,255,255)" stroke="rgb(255,255,255)" stroke-width="1" opacity="0.996078431372549" d="M 320.5 209 L 327 209.5 L 320.5 210 L 320.5 209 Z " /><path fill="rgb(255,255,255)" stroke="rgb(255,255,255)" stroke-width="1" opacity="0.996078431372549" d="M 332.5 210 L 335 210.5 L 332.5 211 L 332.5 210 Z " /><path fill="rgb(255,255,255)" stroke="rgb(255,255,255)" stroke-width="1" opacity="0.996078431372549" d="M 301.5 211 L 304 211.5 L 301.5 212 L 301.5 211 Z " /><path fill="rgb(255,255,255)" stroke="rgb(255,255,255)" stroke-width="1" opacity="0.996078431372549" d="M 126.5 212 L 129 213.5 L 128 214.5 L 128 379.5 L 128.5 381 L 126.5 382 L 126 380.5 L 127 379.5 L 127 214.5 L 126.5 212 Z " /><path fill="rgb(255,255,255)" stroke="rgb(255,255,255)" stroke-width="1" opacity="0.996078431372549" d="M 184.5 212 L 185 381.5 L 183.5 381 L 130 380.5 L 184 380 L 184 214.5 L 183 213.5 L 184.5 212 Z " /><path fill="rgb(255,255,255)" stroke="rgb(255,255,255)" stroke-width="1" opacity="0.996078431372549" d="M 213.5 212 Q 216.3 213.2 214 214.5 L 213.5 219 L 213.5 212 Z " /><path fill="rgb(255,255,255)" stroke="rgb(255,255,255)" stroke-width="1" opacity="0.996078431372549" d="M 341.5 212 L 345 213.5 L 343.5 214 L 341.5 212 Z " /><path fill="rgb(255,255,255)" stroke="rgb(255,255,255)" stroke-width="1" opacity="0.996078431372549" d="M 131.5 213 L 180 213.5 L 131.5 214 L 131.5 213 Z " /><path fill="rgb(255,255,255)" stroke="rgb(255,255,255)" stroke-width="1" opacity="0.996078431372549" d="M 218.5 213 L 267 213.5 L 218.5 214 L 218.5 213 Z " /><path fill="rgb(255,255,255)" stroke="rgb(255,255,255)" stroke-width="1" opacity="0.996078431372549" d="M 269.5 213 L 271 213.5 L 271 234.5 L 270 234.5 L 270 214.5 L 269.5 213 Z " /><path fill="rgb(255,255,255)" stroke="rgb(255,255,255)" stroke-width="1" opacity="0.996078431372549" d="M 349.5 214 L 351 214.5 L 348.5 216 L 349.5 214 Z " /><path fill="rgb(255,255,255)" stroke="rgb(255,255,255)" stroke-width="1" opacity="0.996078431372549" d="M 285.5 219 L 284.5 221 L 285.5 219 Z " /><path fill="rgb(255,255,255)" stroke="rgb(255,255,255)" stroke-width="1" opacity="0.996078431372549" d="M 356.5 219 L 357.5 221 L 356.5 219 Z " /><path fill="rgb(255,255,255)" stroke="rgb(255,255,255)" stroke-width="1" opacity="0.996078431372549" d="M 361.5 223 L 367.5 230 L 361.5 223 Z " /><path fill="rgb(255,255,255)" stroke="rgb(255,255,255)" stroke-width="1" opacity="0.996078431372549" d="M 278.5 225 L 275.5 229 L 278.5 225 Z " /><path fill="rgb(255,255,255)" stroke="rgb(255,255,255)" stroke-width="1" opacity="0.996078431372549" d="M 273.5 231 L 272.5 233 L 273.5 231 Z " /><path fill="rgb(255,255,255)" stroke="rgb(255,255,255)" stroke-width="1" opacity="0.996078431372549" d="M 371.5 231 L 372 232.5 L 371.5 235 Q 368.8 233.7 371 232.5 L 371.5 231 Z " /><path fill="rgb(255,255,255)" stroke="rgb(255,255,255)" stroke-width="1" opacity="0.996078431372549" d="M 372.5 236 L 373.5 238 L 372.5 236 Z " /><path fill="rgb(255,255,255)" stroke="rgb(255,255,255)" stroke-width="1" opacity="0.996078431372549" d="M 296.5 254 L 305 254.5 L 296.5 255 L 296.5 254 Z " /><path fill="rgb(255,255,255)" stroke="rgb(255,255,255)" stroke-width="1" opacity="0.996078431372549" d="M 291.5 255 L 294 255.5 L 291.5 256 L 291.5 255 Z " /><path fill="rgb(255,255,255)" stroke="rgb(255,255,255)" stroke-width="1" opacity="0.996078431372549" d="M 307.5 255 L 310 255.5 L 307.5 256 L 307.5 255 Z " /><path fill="rgb(255,255,255)" stroke="rgb(255,255,255)" stroke-width="1" opacity="0.996078431372549" d="M 315.5 258 L 315.5 261 Q 313.3 261.8 314 259.5 L 315.5 258 Z " /><path fill="rgb(255,255,255)" stroke="rgb(255,255,255)" stroke-width="1" opacity="0.996078431372549" d="M 320.5 263 L 321.5 265 L 320.5 263 Z " /><path fill="rgb(255,255,255)" stroke="rgb(255,255,255)" stroke-width="1" opacity="0.996078431372549" d="M 276.5 266 L 275.5 268 L 276.5 266 Z " /><path fill="rgb(255,255,255)" stroke="rgb(255,255,255)" stroke-width="1" opacity="0.996078431372549" d="M 383.5 266 L 384 268.5 L 383 268.5 L 383.5 266 Z " /><path fill="rgb(255,255,255)" stroke="rgb(255,255,255)" stroke-width="1" opacity="0.996078431372549" d="M 271.5 276 L 273 278.5 L 272 278.5 L 271.5 276 Z " /><path fill="rgb(255,255,255)" stroke="rgb(255,255,255)" stroke-width="1" opacity="0.996078431372549" d="M 326.5 277 L 327 279.5 L 326 279.5 L 326.5 277 Z " /><path fill="rgb(255,255,255)" stroke="rgb(255,255,255)" stroke-width="1" opacity="0.996078431372549" d="M 384.5 277 L 385 381.5 L 383 380.5 L 384 379.5 L 384.5 277 Z " /><path fill="rgb(255,255,255)" stroke="rgb(255,255,255)" stroke-width="1" opacity="0.996078431372549" d="M 327.5 283 L 328 380 L 382 380.5 L 328.5 381 L 327.5 382 L 327.5 283 Z " /><path fill="rgb(255,255,255)" stroke="rgb(255,255,255)" stroke-width="1" opacity="0.996078431372549" d="M 270.5 284 L 271 381.5 L 269.5 381 L 214.5 381 L 213.5 382 L 213 348.5 L 214 348.5 L 214 380 L 270 380 L 270.5 284 Z " /><path fill="rgb(0,0,0)" stroke="rgb(0,0,0)" stroke-width="1" opacity="0" d="M 0 0 L 512 0 L 512 512 L 0 512 L 0 0 Z M 91 72 L 85 75 L 75 86 Q 71 87 74 89 L 72 91 L 72 422 Q 75 423 73 425 L 75 428 Q 80 436 91 440 L 422 440 L 428 437 L 437 427 Q 440 425 438 424 L 440 422 L 440 91 Q 436 89 439 88 L 437 85 Q 432 76 422 72 L 91 72 Z " /><path fill="rgb(0,0,0)" stroke="rgb(0,0,0)" stroke-width="1" opacity="0" d="M 149.5 135 Q 173.3 133.3 182 146.5 L 186 158.5 L 186 166.5 Q 183.8 179.3 174.5 185 L 160.5 190 L 151.5 190 L 137.5 185 L 130 177.5 Q 124.4 170.6 126 156.5 Q 128.4 146.4 135.5 141 L 149.5 135 Z " /><path fill="rgb(0,0,0)" stroke="rgb(0,0,0)" stroke-width="1" opacity="0" d="M 308.5 212 L 332.5 212 L 341.5 214 L 357.5 222 L 365 228 L 376 245.5 L 382 266.5 L 382 274.5 L 383 275.5 L 383 379 L 329 378.5 L 330 377.5 L 330 283.5 L 326 268.5 L 316.5 257 Q 309.2 250.8 293.5 253 Q 280.7 256.7 274 266.5 L 269 278.5 L 269 379 L 216.5 379 L 216 378.5 L 216 215 L 269 215 L 269 234.5 L 268 238 L 272 236.5 L 284.5 222 Q 293.9 214.4 308.5 212 Z " /><path fill="rgb(0,0,0)" stroke="rgb(0,0,0)" stroke-width="1" opacity="0" d="M 129 215 L 181.5 215 L 182 215.5 L 182 377.5 L 182.5 379 L 129.5 379 L 129 378.5 L 129 215 Z " /><path fill="rgb(255,255,255)" stroke="rgb(255,255,255)" stroke-width="1" opacity="1" d="M 91.5 75 L 420.5 75 L 432 81.5 L 432 84 Q 434.7 82.9 434 85.5 L 437 92.5 L 437 419.5 L 433.5 428 Q 430.9 427.2 432 430.5 L 420.5 437 L 91.5 437 L 80 430.5 Q 81.1 427.2 78.5 428 L 75 419.5 L 75 92.5 L 78.5 84 Q 81.1 84.8 80 81.5 L 91.5 75 Z M 150 133 L 136 139 L 128 147 L 124 155 L 124 170 L 129 180 L 142 190 L 153 193 L 155 192 L 158 193 Q 169 192 177 186 Q 185 180 188 170 Q 190 153 183 146 Q 174 131 150 133 Z M 132 138 Q 131 141 134 140 Q 135 137 132 138 Z M 125 149 L 124 152 L 125 152 L 125 149 Z M 189 152 L 188 155 L 189 155 L 189 152 Z M 133 184 Q 131 187 134 186 L 133 184 Z M 314 209 L 297 213 Q 286 217 279 225 L 272 234 L 271 234 L 271 213 L 215 213 L 213 213 Q 212 218 214 220 L 214 348 L 213 349 L 213 382 L 215 381 L 270 381 L 271 382 L 271 278 L 277 266 Q 283 257 295 255 Q 309 253 317 259 L 324 270 L 327 281 L 328 382 L 329 381 L 384 381 L 385 382 L 385 278 L 384 277 L 384 267 L 378 246 L 368 230 Q 358 218 343 212 L 327 209 L 314 209 Z M 127 212 L 127 215 L 127 380 L 126 382 L 128 381 L 184 381 L 185 382 L 185 213 L 184 213 L 128 213 L 127 212 Z M 315 259 Q 313 262 316 261 L 315 259 Z " /></svg>