<svg width="48" height="48" version="1.1" xmlns="http://www.w3.org/2000/svg" desc="Created with imagetracer.js version 1.2.6" ><path fill="rgb(246,122,77)" stroke="rgb(246,122,77)" stroke-width="1" opacity="1" d="M 15.5 2 L 17 2.5 Q 9 5 5 11.5 L 2.5 17 L 2 15.5 Q 5 8 11.5 4 L 15.5 2 Z " /><path fill="rgb(246,122,77)" stroke="rgb(246,122,77)" stroke-width="1" opacity="1" d="M 31.5 2 Q 40.1 4.4 44 11.5 L 46 16.5 L 45 16.5 Q 42.9 8.6 36.5 5 L 31.5 3 L 31.5 2 Z " /><path fill="rgb(246,122,77)" stroke="rgb(246,122,77)" stroke-width="1" opacity="1" d="M 32.5 9 L 31.5 11 L 32.5 9 Z " /><path fill="rgb(246,122,77)" stroke="rgb(246,122,77)" stroke-width="1" opacity="1" d="M 36.5 9 Q 39.5 9.5 39 13.5 L 38 13.5 Q 39.1 10.2 36.5 11 L 35 13.5 Q 38.8 15.3 35.5 17 L 34 16.5 L 36 15.5 L 34 12.5 L 36.5 9 Z " /><path fill="rgb(246,122,77)" stroke="rgb(246,122,77)" stroke-width="1" opacity="1" d="M 30 14 L 33 15.5 L 32.5 20 L 31.5 19 L 25.5 25 Q 22.9 24.3 24 27 L 29.5 23 L 25.5 28 L 22.5 26 L 20 27 L 20.5 24 L 23.5 25 L 32 17.5 Q 32.8 15.3 30.5 16 L 22 23.5 L 30 14 Z " /><path fill="rgb(246,122,77)" stroke="rgb(246,122,77)" stroke-width="1" opacity="1" d="M 24.5 17 L 20.5 22 L 24.5 17 Z " /><path fill="rgb(246,122,77)" stroke="rgb(246,122,77)" stroke-width="1" opacity="1" d="M 18.5 23 L 18 24.5 L 17.5 26 L 17 24.5 L 18.5 23 Z " /><path fill="rgb(246,122,77)" stroke="rgb(246,122,77)" stroke-width="1" opacity="1" d="M 2.5 31 Q 5 39 11.5 43 L 17 45.5 L 15.5 46 Q 8 43 4 36.5 L 2.5 31 Z " /><path fill="rgb(246,122,77)" stroke="rgb(246,122,77)" stroke-width="1" opacity="1" d="M 45.5 31 L 46 32.5 Q 43 40 36.5 44 L 31.5 46 L 31.5 45 Q 39.4 42.9 43 36.5 L 45.5 31 Z " /><path fill="rgb(246,122,77)" stroke="rgb(246,122,77)" stroke-width="1" opacity="1" d="M 12.5 35 L 15 36.5 L 10.5 38 L 10.5 37 L 13 36.5 L 12.5 35 Z " /><path fill="rgb(0,0,0)" stroke="rgb(0,0,0)" stroke-width="1" opacity="0" d="M 0 0 L 17 0.5 Q 8.5 3 4 9.5 L 0.5 17 L 0 0 Z " /><path fill="rgb(0,0,0)" stroke="rgb(0,0,0)" stroke-width="1" opacity="0" d="M 31.5 0 L 48 0 L 48 16.5 L 47 16.5 Q 44.9 8.2 38.5 4 L 31.5 1 L 31.5 0 Z " /><path fill="rgb(0,0,0)" stroke="rgb(0,0,0)" stroke-width="1" opacity="0" d="M 0.5 31 Q 3 39.5 9.5 44 L 17 47.5 L 0 48 L 0.5 31 Z " /><path fill="rgb(0,0,0)" stroke="rgb(0,0,0)" stroke-width="1" opacity="0" d="M 47.5 31 L 48 48 L 31 47.5 Q 39.5 45 44 38.5 L 47.5 31 Z " /><path fill="rgb(237,108,62)" stroke="rgb(237,108,62)" stroke-width="1" opacity="0.9921568627450981" d="M 22.5 0 L 26 0.5 L 22.5 1 L 22.5 0 Z " /><path fill="rgb(237,108,62)" stroke="rgb(237,108,62)" stroke-width="1" opacity="0.9921568627450981" d="M 12.5 5 L 11.5 7 L 12.5 5 Z " /><path fill="rgb(237,108,62)" stroke="rgb(237,108,62)" stroke-width="1" opacity="0.9921568627450981" d="M 35.5 5 Q 38.3 6.3 36 7.5 L 40 11.5 Q 40.8 16.3 37.5 17 L 34 18 L 33 21.5 L 22.5 32 L 16 35 L 15.5 37 L 15 35.5 L 31 22.5 L 33.5 16 L 35.5 17 L 38 16 L 39 11.5 L 34.5 8 L 31 10.5 Q 32.7 15.3 28.5 14 L 16.5 25 L 18 22.5 Q 17.3 20.3 19.5 21 L 29 12.5 L 33.5 7 L 36 6.5 L 35.5 5 Z " /><path fill="rgb(237,108,62)" stroke="rgb(237,108,62)" stroke-width="1" opacity="0.9921568627450981" d="M 9.5 7 L 7.5 10 L 9.5 7 Z " /><path fill="rgb(237,108,62)" stroke="rgb(237,108,62)" stroke-width="1" opacity="0.9921568627450981" d="M 38.5 7 L 40.5 10 L 38.5 7 Z " /><path fill="rgb(237,108,62)" stroke="rgb(237,108,62)" stroke-width="1" opacity="0.9921568627450981" d="M 6.5 11 L 5.5 13 L 6.5 11 Z " /><path fill="rgb(237,108,62)" stroke="rgb(237,108,62)" stroke-width="1" opacity="0.9921568627450981" d="M 41.5 11 L 42.5 13 L 41.5 11 Z " /><path fill="rgb(237,108,62)" stroke="rgb(237,108,62)" stroke-width="1" opacity="0.9921568627450981" d="M 0.5 22 L 1 25.5 L 0 25.5 L 0.5 22 Z " /><path fill="rgb(237,108,62)" stroke="rgb(237,108,62)" stroke-width="1" opacity="0.9921568627450981" d="M 47.5 22 L 48 25.5 L 47 25.5 L 47.5 22 Z " /><path fill="rgb(237,108,62)" stroke="rgb(237,108,62)" stroke-width="1" opacity="0.9921568627450981" d="M 19.5 25 L 20 27 L 17 28.5 L 11.5 35 L 9 36.5 Q 8.4 39.3 14.5 38 L 14.5 39 L 9 39.5 L 9.5 41 Q 5.2 39.3 8 37.5 L 17 26 L 19.5 25 Z " /><path fill="rgb(237,108,62)" stroke="rgb(237,108,62)" stroke-width="1" opacity="0.9921568627450981" d="M 5.5 35 L 6.5 37 L 5.5 35 Z " /><path fill="rgb(237,108,62)" stroke="rgb(237,108,62)" stroke-width="1" opacity="0.9921568627450981" d="M 42.5 35 L 41.5 37 L 42.5 35 Z " /><path fill="rgb(237,108,62)" stroke="rgb(237,108,62)" stroke-width="1" opacity="0.9921568627450981" d="M 40.5 38 L 38.5 41 L 40.5 38 Z " /><path fill="rgb(237,108,62)" stroke="rgb(237,108,62)" stroke-width="1" opacity="0.9921568627450981" d="M 11.5 41 L 12.5 43 L 11.5 41 Z " /><path fill="rgb(237,108,62)" stroke="rgb(237,108,62)" stroke-width="1" opacity="0.9921568627450981" d="M 36.5 41 L 35.5 43 L 36.5 41 Z " /><path fill="rgb(237,108,62)" stroke="rgb(237,108,62)" stroke-width="1" opacity="0.9921568627450981" d="M 22.5 47 L 26 47.5 L 22.5 48 L 22.5 47 Z " /><path fill="rgb(238,109,63)" stroke="rgb(238,109,63)" stroke-width="1" opacity="1" d="M 18.5 1 Q 29.3 -0.8 33 3 L 33.5 5 L 35 4.5 L 35.5 6 Q 36.8 3.7 38 6.5 L 40.5 10 L 43 11.5 L 42.5 13 L 44 13.5 L 43.5 15 Q 45.8 14.3 45 16.5 L 47 18.5 L 47 29.5 L 45 33 L 43 33.5 L 43.5 35 L 42 35.5 Q 44.3 36.8 41.5 38 L 38 40.5 L 36.5 43 L 35 42.5 L 34.5 44 L 33 43.5 Q 33.8 45.8 31.5 45 L 29.5 47 L 18.5 47 L 15 45 L 14.5 43 L 13 43.5 L 12.5 42 Q 11.3 44.3 10 41.5 L 7.5 38 L 5 36.5 L 5.5 35 L 4 34.5 L 4.5 33 Q 2.3 33.8 3 31.5 L 1 29.5 L 1 18.5 L 3 15 L 5 14.5 L 4.5 13 L 6 12.5 Q 3.7 11.3 6.5 10 L 10 7.5 L 11.5 5 L 13 5.5 L 13.5 4 L 15 4.5 Q 14.3 2.3 16.5 3 L 18.5 1 Z M 34 7 L 29 13 L 29 15 L 28 14 L 18 21 L 16 25 L 17 28 L 19 28 Q 18 30 17 28 L 9 36 L 10 38 L 10 39 L 15 39 L 14 38 L 14 37 Q 17 38 16 36 L 14 36 Q 15 33 17 35 L 20 34 L 21 31 L 23 32 L 31 24 L 30 23 L 32 23 L 34 18 L 38 17 L 37 16 L 39 16 Q 41 15 40 12 L 36 7 L 34 7 Z " /><path fill="rgb(238,109,63)" stroke="rgb(238,109,63)" stroke-width="1" opacity="1" d="M 8.5 6 L 6.5 9 L 8.5 6 Z " /><path fill="rgb(238,109,63)" stroke="rgb(238,109,63)" stroke-width="1" opacity="1" d="M 39.5 6 L 41.5 9 L 39.5 6 Z " /><path fill="rgb(238,109,63)" stroke="rgb(238,109,63)" stroke-width="1" opacity="1" d="M 6.5 39 L 8.5 42 L 6.5 39 Z " /><path fill="rgb(238,109,63)" stroke="rgb(238,109,63)" stroke-width="1" opacity="1" d="M 41.5 39 L 39.5 42 L 41.5 39 Z " /><path fill="rgb(250,217,206)" stroke="rgb(250,217,206)" stroke-width="1" opacity="1" d="M 31.5 11 L 32 13.5 L 31 13.5 L 31.5 11 Z " /><path fill="rgb(250,217,206)" stroke="rgb(250,217,206)" stroke-width="1" opacity="1" d="M 36.5 11 L 38 14.5 L 37 14.5 L 36.5 12 L 35 12.5 L 36.5 11 Z " /><path fill="rgb(250,217,206)" stroke="rgb(250,217,206)" stroke-width="1" opacity="1" d="M 33.5 13 L 35.5 16 L 33 15.5 L 33.5 13 Z " /><path fill="rgb(250,217,206)" stroke="rgb(250,217,206)" stroke-width="1" opacity="1" d="M 30.5 16 L 29 18.5 L 30 19.5 L 27.5 22 L 26.5 21 L 23 23.5 L 30.5 16 Z " /><path fill="rgb(250,217,206)" stroke="rgb(250,217,206)" stroke-width="1" opacity="1" d="M 19.5 27 L 22 27.5 L 19.5 28 L 19.5 27 Z " /><path fill="rgb(250,217,206)" stroke="rgb(250,217,206)" stroke-width="1" opacity="1" d="M 23.5 27 L 24 28.5 L 22 29.5 L 23.5 27 Z " /><path fill="rgb(250,217,206)" stroke="rgb(250,217,206)" stroke-width="1" opacity="1" d="M 17.5 29 L 14 33.5 L 14.5 35 Q 13.3 32.8 12 35.5 L 12.5 37 L 10 36.5 L 17.5 29 Z " /><path fill="rgb(233,126,50)" stroke="rgb(233,126,50)" stroke-width="1" opacity="0.15294117647058825" d="M 9.5 4 L 4.5 10 L 9.5 4 Z " /><path fill="rgb(233,126,50)" stroke="rgb(233,126,50)" stroke-width="1" opacity="0.15294117647058825" d="M 38.5 4 L 43.5 10 L 38.5 4 Z " /><path fill="rgb(233,126,50)" stroke="rgb(233,126,50)" stroke-width="1" opacity="0.15294117647058825" d="M 4.5 38 L 9.5 44 L 4.5 38 Z " /><path fill="rgb(233,126,50)" stroke="rgb(233,126,50)" stroke-width="1" opacity="0.15294117647058825" d="M 43.5 38 L 38.5 44 L 43.5 38 Z " /><path fill="rgb(237,108,62)" stroke="rgb(237,108,62)" stroke-width="1" opacity="0.5333333333333333" d="M 19.5 0 L 22 0.5 L 19.5 1 L 19.5 0 Z " /><path fill="rgb(237,108,62)" stroke="rgb(237,108,62)" stroke-width="1" opacity="0.5333333333333333" d="M 26.5 0 L 29 0.5 L 26.5 1 L 26.5 0 Z " /><path fill="rgb(237,108,62)" stroke="rgb(237,108,62)" stroke-width="1" opacity="0.5333333333333333" d="M 11.5 3 L 10.5 5 L 11.5 3 Z " /><path fill="rgb(237,108,62)" stroke="rgb(237,108,62)" stroke-width="1" opacity="0.5333333333333333" d="M 36.5 3 L 37.5 5 L 36.5 3 Z " /><path fill="rgb(237,108,62)" stroke="rgb(237,108,62)" stroke-width="1" opacity="0.5333333333333333" d="M 0.5 19 L 1 21.5 L 0 21.5 L 0.5 19 Z " /><path fill="rgb(237,108,62)" stroke="rgb(237,108,62)" stroke-width="1" opacity="0.5333333333333333" d="M 47.5 19 L 48 21.5 L 47 21.5 L 47.5 19 Z " /><path fill="rgb(237,108,62)" stroke="rgb(237,108,62)" stroke-width="1" opacity="0.5333333333333333" d="M 0.5 26 L 1 28.5 L 0 28.5 L 0.5 26 Z " /><path fill="rgb(237,108,62)" stroke="rgb(237,108,62)" stroke-width="1" opacity="0.5333333333333333" d="M 47.5 26 L 48 28.5 L 47 28.5 L 47.5 26 Z " /><path fill="rgb(237,108,62)" stroke="rgb(237,108,62)" stroke-width="1" opacity="0.5333333333333333" d="M 10.5 43 L 11.5 45 L 10.5 43 Z " /><path fill="rgb(237,108,62)" stroke="rgb(237,108,62)" stroke-width="1" opacity="0.5333333333333333" d="M 37.5 43 L 36.5 45 L 37.5 43 Z " /><path fill="rgb(237,108,62)" stroke="rgb(237,108,62)" stroke-width="1" opacity="0.5333333333333333" d="M 19.5 47 L 22 47.5 L 19.5 48 L 19.5 47 Z " /><path fill="rgb(237,108,62)" stroke="rgb(237,108,62)" stroke-width="1" opacity="0.5333333333333333" d="M 26.5 47 L 29 47.5 L 26.5 48 L 26.5 47 Z " /><path fill="rgb(254,254,254)" stroke="rgb(254,254,254)" stroke-width="1" opacity="1" d="M 34.5 9 Q 36.8 8.3 36 10.5 L 33 13.5 L 34.5 16 L 32 15 L 32 10 L 33.5 10 L 34.5 9 Z " /><path fill="rgb(254,254,254)" stroke="rgb(254,254,254)" stroke-width="1" opacity="1" d="M 37.5 11 L 37 12.5 L 36.5 15 Q 33 13 37.5 11 Z " /><path fill="rgb(254,254,254)" stroke="rgb(254,254,254)" stroke-width="1" opacity="1" d="M 28.5 15 L 30 15.5 L 22.5 24 L 31.5 16 L 32 17.5 L 22.5 25 L 20 22.5 L 25.5 17 L 28.5 15 Z " /><path fill="rgb(254,254,254)" stroke="rgb(254,254,254)" stroke-width="1" opacity="1" d="M 30.5 20 L 31 21.5 L 24.5 27 L 30.5 20 Z " /><path fill="rgb(254,254,254)" stroke="rgb(254,254,254)" stroke-width="1" opacity="1" d="M 22.5 27 L 23 28.5 L 14 34 L 13.5 36 L 13 34.5 L 18 28 L 22.5 27 Z " /></svg>