<svg width="48" height="48" version="1.1" xmlns="http://www.w3.org/2000/svg" desc="Created with imagetracer.js version 1.2.6" ><path fill="rgb(55,0,4)" stroke="rgb(55,0,4)" stroke-width="1" opacity="0.2235294117647059" d="M 21.5 11 L 20.5 13 L 21.5 11 Z " /><path fill="rgb(55,0,4)" stroke="rgb(55,0,4)" stroke-width="1" opacity="0.2235294117647059" d="M 26.5 11 L 28.5 14 L 26.5 11 Z " /><path fill="rgb(55,0,4)" stroke="rgb(55,0,4)" stroke-width="1" opacity="0.2235294117647059" d="M 19.5 14 L 20 16.5 L 19 16.5 L 19.5 14 Z " /><path fill="rgb(55,0,4)" stroke="rgb(55,0,4)" stroke-width="1" opacity="0.2235294117647059" d="M 24.5 20 L 27 20.5 L 24.5 21 L 24.5 20 Z " /><path fill="rgb(55,0,4)" stroke="rgb(55,0,4)" stroke-width="1" opacity="0.2235294117647059" d="M 38.5 22 L 39 25.5 L 38 25.5 L 38.5 22 Z " /><path fill="rgb(55,0,4)" stroke="rgb(55,0,4)" stroke-width="1" opacity="0.2235294117647059" d="M 24.5 27 L 27 27.5 L 24.5 28 L 24.5 27 Z " /><path fill="rgb(55,0,4)" stroke="rgb(55,0,4)" stroke-width="1" opacity="0.2235294117647059" d="M 30.5 29 L 29.5 31 L 30.5 29 Z " /><path fill="rgb(55,0,4)" stroke="rgb(55,0,4)" stroke-width="1" opacity="0.2235294117647059" d="M 19.5 31 L 20 33.5 L 19 33.5 L 19.5 31 Z " /><path fill="rgb(55,0,4)" stroke="rgb(55,0,4)" stroke-width="1" opacity="0.2235294117647059" d="M 28.5 34 L 26.5 37 L 28.5 34 Z " /><path fill="rgb(55,0,4)" stroke="rgb(55,0,4)" stroke-width="1" opacity="0.2235294117647059" d="M 20.5 35 L 21.5 37 L 20.5 35 Z " /><path fill="rgb(0,0,0)" stroke="rgb(0,0,0)" stroke-width="1" opacity="0" d="M 0 0 L 48 0 L 48 31.5 L 47 31.5 L 44.5 28 Q 39.8 28.3 38 31.5 L 38 33.5 L 40.5 36 L 44.5 37 L 47.5 33 L 48 48 L 0.5 48 L 0 47.5 L 0 33.5 L 1 33.5 L 3.5 37 L 8 36 Q 6.9 33.3 9.5 34 L 9 30.5 Q 9.8 27.9 6.5 29 L 3.5 28 L 0.5 32 L 0 0 Z M 22 11 L 19 15 L 20 19 L 28 21 Q 30 22 29 26 L 20 29 L 19 32 L 20 36 Q 21 38 27 37 Q 30 36 29 32 L 32 29 L 37 28 Q 40 27 39 23 L 37 20 L 31 18 Q 27 19 29 14 Q 28 10 22 11 Z M 17 19 L 11 22 Q 9 28 13 27 L 14 29 L 19 26 Q 20 20 17 19 Z " /><path fill="rgb(0,0,0)" stroke="rgb(0,0,0)" stroke-width="1" opacity="0.9764705882352941" d="M 12.5 20 Q 18 19 19 22.5 Q 19.8 27.3 16.5 28 L 11 27 Q 9.5 21.6 12.5 20 Z " /><path fill="rgb(0,0,0)" stroke="rgb(0,0,0)" stroke-width="1" opacity="0.9764705882352941" d="M 3.5 28 L 9 30.5 L 8 36 L 3.5 37 L 0 32.5 L 3.5 28 Z " /><path fill="rgb(0,0,0)" stroke="rgb(0,0,0)" stroke-width="1" opacity="0.9764705882352941" d="M 42.5 28 Q 46.5 27.5 47 30.5 L 48 32.5 L 44.5 37 L 39 34.5 Q 38 30 40.5 29 L 42.5 28 Z " /><path fill="rgb(213,1,27)" stroke="rgb(213,1,27)" stroke-width="1" opacity="0.8941176470588236" d="M 22.5 11 Q 28.3 10.3 29 14.5 Q 28.3 18.3 30.5 19 Q 36.3 18.2 38 21.5 Q 39.3 26.8 36.5 28 L 30.5 29 L 29 30.5 Q 29.8 36.3 25.5 37 Q 20.8 37.8 20 34.5 Q 19 29 22.5 28 Q 28 29 29 25.5 Q 29.8 20.8 26.5 20 Q 21 21 20 17.5 Q 19 12 22.5 11 Z " /></svg>