<svg width="48" height="48" version="1.1" xmlns="http://www.w3.org/2000/svg" desc="Created with imagetracer.js version 1.2.6" ><path fill="rgb(96,218,250)" stroke="rgb(96,218,250)" stroke-width="1" opacity="0.6745098039215687" d="M 21.5 3 L 24.5 5 L 27 3.5 L 23.5 6 L 21.5 3 Z " /><path fill="rgb(96,218,250)" stroke="rgb(96,218,250)" stroke-width="1" opacity="0.6745098039215687" d="M 19.5 4 L 22.5 8 L 19.5 4 Z " /><path fill="rgb(96,218,250)" stroke="rgb(96,218,250)" stroke-width="1" opacity="0.6745098039215687" d="M 28.5 4 L 25.5 8 L 28.5 4 Z " /><path fill="rgb(96,218,250)" stroke="rgb(96,218,250)" stroke-width="1" opacity="0.6745098039215687" d="M 22.5 40 L 19.5 44 L 22.5 40 Z " /><path fill="rgb(96,218,250)" stroke="rgb(96,218,250)" stroke-width="1" opacity="0.6745098039215687" d="M 25.5 40 L 28.5 44 L 25.5 40 Z " /><path fill="rgb(96,218,250)" stroke="rgb(96,218,250)" stroke-width="1" opacity="0.6745098039215687" d="M 23.5 42 L 27 44.5 L 24.5 43 L 21.5 45 L 23.5 42 Z " /><path fill="rgb(0,0,0)" stroke="rgb(0,0,0)" stroke-width="1" opacity="0" d="M 0 0 L 11 0.5 L 9 3.5 L 9 15 L 1 19.5 L 0.5 21 L 0 0 Z " /><path fill="rgb(0,0,0)" stroke="rgb(0,0,0)" stroke-width="1" opacity="0" d="M 18.5 0 L 30 0.5 L 23.5 5 L 18.5 0 Z " /><path fill="rgb(0,0,0)" stroke="rgb(0,0,0)" stroke-width="1" opacity="0" d="M 37.5 0 L 48 0 L 48 20.5 L 47 20.5 L 44.5 17 L 39 15 L 39 3.5 L 37.5 0 Z " /><path fill="rgb(0,0,0)" stroke="rgb(0,0,0)" stroke-width="1" opacity="0" d="M 13.5 3 L 16.5 3 L 22 7.5 L 17.5 13 L 12.5 14 L 12 4.5 L 13.5 3 Z " /><path fill="rgb(0,0,0)" stroke="rgb(0,0,0)" stroke-width="1" opacity="0" d="M 31.5 3 Q 35.3 2.3 36 4.5 L 35.5 14 L 30.5 13 L 28 10.5 L 26 7.5 L 31.5 3 Z " /><path fill="rgb(0,0,0)" stroke="rgb(0,0,0)" stroke-width="1" opacity="0" d="M 23.5 11 L 26 12.5 L 24.5 12 L 22.5 13 L 23.5 11 Z " /><path fill="rgb(0,0,0)" stroke="rgb(0,0,0)" stroke-width="1" opacity="0" d="M 20.5 16 Q 28.2 14.2 30 18.5 L 32 24.5 L 27.5 32 Q 20.7 33.8 19 30.5 L 16 23.5 L 20.5 16 Z M 22 19 L 19 23 L 20 28 Q 21 30 27 29 L 29 26 L 28 21 Q 27 18 22 19 Z " /><path fill="rgb(0,0,0)" stroke="rgb(0,0,0)" stroke-width="1" opacity="0" d="M 13.5 17 L 16 17.5 L 14.5 20 L 13.5 17 Z " /><path fill="rgb(0,0,0)" stroke="rgb(0,0,0)" stroke-width="1" opacity="0" d="M 32.5 17 L 35 17.5 L 33.5 20 L 32.5 17 Z " /><path fill="rgb(0,0,0)" stroke="rgb(0,0,0)" stroke-width="1" opacity="0" d="M 9.5 18 Q 12.5 17.1 11 21.5 L 12 25.5 L 11 30 L 3 25.5 Q 2.3 20.8 5.5 20 L 9.5 18 Z " /><path fill="rgb(0,0,0)" stroke="rgb(0,0,0)" stroke-width="1" opacity="0" d="M 37 18 L 45 22.5 Q 45.8 27.3 42.5 28 L 37 30 L 36 22.5 L 37 18 Z " /><path fill="rgb(0,0,0)" stroke="rgb(0,0,0)" stroke-width="1" opacity="0" d="M 0.5 27 L 2.5 30 L 9 33 L 9 44.5 L 11 47.5 L 0 48 L 0.5 27 Z " /><path fill="rgb(0,0,0)" stroke="rgb(0,0,0)" stroke-width="1" opacity="0" d="M 47.5 27 L 48 48 L 37 47.5 L 39 44.5 L 39 33 L 47 28.5 L 47.5 27 Z " /><path fill="rgb(0,0,0)" stroke="rgb(0,0,0)" stroke-width="1" opacity="0" d="M 14.5 28 L 16 30.5 L 13.5 31 L 14 29.5 L 14.5 28 Z " /><path fill="rgb(0,0,0)" stroke="rgb(0,0,0)" stroke-width="1" opacity="0" d="M 33.5 28 L 35 30.5 L 32.5 31 L 33 29.5 L 33.5 28 Z " /><path fill="rgb(0,0,0)" stroke="rgb(0,0,0)" stroke-width="1" opacity="0" d="M 12.5 34 L 17.5 35 L 20 37.5 L 22 40.5 L 16.5 45 L 13.5 45 L 12 43.5 L 12.5 34 Z " /><path fill="rgb(0,0,0)" stroke="rgb(0,0,0)" stroke-width="1" opacity="0" d="M 35.5 34 L 36 43.5 Q 35.3 45.8 31.5 45 L 26 40.5 L 30.5 35 L 35.5 34 Z " /><path fill="rgb(0,0,0)" stroke="rgb(0,0,0)" stroke-width="1" opacity="0" d="M 22.5 35 L 24.5 36 L 26 35.5 L 23.5 37 L 22.5 35 Z " /><path fill="rgb(0,0,0)" stroke="rgb(0,0,0)" stroke-width="1" opacity="0" d="M 23.5 43 L 30 47.5 L 18.5 48 L 18.5 47 L 23.5 43 Z " /><path fill="rgb(95,219,251)" stroke="rgb(95,219,251)" stroke-width="1" opacity="0.27058823529411763" d="M 11.5 0 L 10.5 2 L 11.5 0 Z " /><path fill="rgb(95,219,251)" stroke="rgb(95,219,251)" stroke-width="1" opacity="0.27058823529411763" d="M 36.5 0 L 37.5 2 L 36.5 0 Z " /><path fill="rgb(95,219,251)" stroke="rgb(95,219,251)" stroke-width="1" opacity="0.27058823529411763" d="M 19.5 1 L 20.5 3 L 19.5 1 Z " /><path fill="rgb(95,219,251)" stroke="rgb(95,219,251)" stroke-width="1" opacity="0.27058823529411763" d="M 28.5 1 L 27.5 3 L 28.5 1 Z " /><path fill="rgb(95,219,251)" stroke="rgb(95,219,251)" stroke-width="1" opacity="0.27058823529411763" d="M 13.5 2 L 16 2.5 L 12.5 4 L 13.5 2 Z " /><path fill="rgb(95,219,251)" stroke="rgb(95,219,251)" stroke-width="1" opacity="0.27058823529411763" d="M 32.5 2 L 36 3.5 L 34.5 3 Q 31.5 3.5 32.5 2 Z " /><path fill="rgb(95,219,251)" stroke="rgb(95,219,251)" stroke-width="1" opacity="0.27058823529411763" d="M 17.5 3 L 18.5 5 L 17.5 3 Z " /><path fill="rgb(95,219,251)" stroke="rgb(95,219,251)" stroke-width="1" opacity="0.27058823529411763" d="M 30.5 3 L 29.5 5 L 30.5 3 Z " /><path fill="rgb(95,219,251)" stroke="rgb(95,219,251)" stroke-width="1" opacity="0.27058823529411763" d="M 11.5 6 L 12 10.5 L 11 10.5 L 11.5 6 Z " /><path fill="rgb(95,219,251)" stroke="rgb(95,219,251)" stroke-width="1" opacity="0.27058823529411763" d="M 36.5 6 L 37 10.5 L 36 10.5 L 36.5 6 Z " /><path fill="rgb(95,219,251)" stroke="rgb(95,219,251)" stroke-width="1" opacity="0.27058823529411763" d="M 21.5 8 L 20.5 10 L 21.5 8 Z " /><path fill="rgb(95,219,251)" stroke="rgb(95,219,251)" stroke-width="1" opacity="0.27058823529411763" d="M 26.5 8 L 27.5 10 L 26.5 8 Z " /><path fill="rgb(95,219,251)" stroke="rgb(95,219,251)" stroke-width="1" opacity="0.27058823529411763" d="M 23.5 10 L 26 11.5 L 23.5 13 Q 20.5 11.5 23.5 10 Z " /><path fill="rgb(95,219,251)" stroke="rgb(95,219,251)" stroke-width="1" opacity="0.27058823529411763" d="M 19.5 11 L 18.5 13 L 19.5 11 Z " /><path fill="rgb(95,219,251)" stroke="rgb(95,219,251)" stroke-width="1" opacity="0.27058823529411763" d="M 28.5 11 L 29.5 13 L 28.5 11 Z " /><path fill="rgb(95,219,251)" stroke="rgb(95,219,251)" stroke-width="1" opacity="0.27058823529411763" d="M 9.5 12 L 10 14.5 L 9 14.5 L 9.5 12 Z " /><path fill="rgb(95,219,251)" stroke="rgb(95,219,251)" stroke-width="1" opacity="0.27058823529411763" d="M 38.5 12 L 39 14.5 L 38 14.5 L 38.5 12 Z " /><path fill="rgb(95,219,251)" stroke="rgb(95,219,251)" stroke-width="1" opacity="0.27058823529411763" d="M 13.5 13 L 16 13.5 L 13.5 14 L 13.5 13 Z " /><path fill="rgb(95,219,251)" stroke="rgb(95,219,251)" stroke-width="1" opacity="0.27058823529411763" d="M 32.5 13 L 35 13.5 L 32.5 14 L 32.5 13 Z " /><path fill="rgb(95,219,251)" stroke="rgb(95,219,251)" stroke-width="1" opacity="0.27058823529411763" d="M 20.5 15 Q 28.2 13.2 30 17.5 L 27.5 16 Q 20.3 14.3 18.5 18 L 20.5 15 Z " /><path fill="rgb(95,219,251)" stroke="rgb(95,219,251)" stroke-width="1" opacity="0.27058823529411763" d="M 13.5 16 L 17 16.5 L 13.5 17 L 13.5 16 Z " /><path fill="rgb(95,219,251)" stroke="rgb(95,219,251)" stroke-width="1" opacity="0.27058823529411763" d="M 31.5 16 L 35 16.5 L 31.5 17 L 31.5 16 Z " /><path fill="rgb(95,219,251)" stroke="rgb(95,219,251)" stroke-width="1" opacity="0.27058823529411763" d="M 3.5 17 L 1.5 20 L 3.5 17 Z " /><path fill="rgb(95,219,251)" stroke="rgb(95,219,251)" stroke-width="1" opacity="0.27058823529411763" d="M 44.5 17 L 46.5 20 L 44.5 17 Z " /><path fill="rgb(95,219,251)" stroke="rgb(95,219,251)" stroke-width="1" opacity="0.27058823529411763" d="M 7.5 18 L 9 18.5 L 6.5 20 L 7.5 18 Z " /><path fill="rgb(95,219,251)" stroke="rgb(95,219,251)" stroke-width="1" opacity="0.27058823529411763" d="M 39.5 18 L 42 19.5 L 40.5 19 L 39.5 18 Z " /><path fill="rgb(95,219,251)" stroke="rgb(95,219,251)" stroke-width="1" opacity="0.27058823529411763" d="M 21.5 19 L 20.5 21 L 21.5 19 Z " /><path fill="rgb(95,219,251)" stroke="rgb(95,219,251)" stroke-width="1" opacity="0.27058823529411763" d="M 26.5 19 L 27.5 21 L 26.5 19 Z " /><path fill="rgb(95,219,251)" stroke="rgb(95,219,251)" stroke-width="1" opacity="0.27058823529411763" d="M 4.5 20 L 3 22.5 Q 2.3 26.8 5 27.5 L 2 25.5 Q 1.3 20.8 4.5 20 Z " /><path fill="rgb(95,219,251)" stroke="rgb(95,219,251)" stroke-width="1" opacity="0.27058823529411763" d="M 43.5 20 Q 46.8 20.8 46 25.5 L 43 27.5 Q 45.8 26.8 45 22.5 L 43.5 20 Z " /><path fill="rgb(95,219,251)" stroke="rgb(95,219,251)" stroke-width="1" opacity="0.27058823529411763" d="M 16.5 21 L 17 22.5 L 16 24.5 L 17 26.5 L 16 26.5 L 15 23.5 L 16.5 21 Z " /><path fill="rgb(95,219,251)" stroke="rgb(95,219,251)" stroke-width="1" opacity="0.27058823529411763" d="M 31.5 21 L 33 24.5 L 31.5 27 L 31 25.5 L 32 23.5 L 31.5 21 Z " /><path fill="rgb(95,219,251)" stroke="rgb(95,219,251)" stroke-width="1" opacity="0.27058823529411763" d="M 19.5 22 L 20 25.5 L 19 25.5 L 19.5 22 Z " /><path fill="rgb(95,219,251)" stroke="rgb(95,219,251)" stroke-width="1" opacity="0.27058823529411763" d="M 28.5 22 L 29 25.5 L 28 25.5 L 28.5 22 Z " /><path fill="rgb(95,219,251)" stroke="rgb(95,219,251)" stroke-width="1" opacity="0.27058823529411763" d="M 20.5 27 L 21.5 29 L 20.5 27 Z " /><path fill="rgb(95,219,251)" stroke="rgb(95,219,251)" stroke-width="1" opacity="0.27058823529411763" d="M 27.5 27 L 26.5 29 L 27.5 27 Z " /><path fill="rgb(95,219,251)" stroke="rgb(95,219,251)" stroke-width="1" opacity="0.27058823529411763" d="M 1.5 28 L 2.5 30 L 1.5 28 Z " /><path fill="rgb(95,219,251)" stroke="rgb(95,219,251)" stroke-width="1" opacity="0.27058823529411763" d="M 6.5 28 L 9 29.5 L 7.5 30 L 6.5 28 Z " /><path fill="rgb(95,219,251)" stroke="rgb(95,219,251)" stroke-width="1" opacity="0.27058823529411763" d="M 17.5 28 L 20.5 32 Q 27.3 33.8 29 30.5 L 30.5 28 L 30 29.5 L 27.5 33 Q 19.8 34.8 18 30.5 L 17.5 28 Z " /><path fill="rgb(95,219,251)" stroke="rgb(95,219,251)" stroke-width="1" opacity="0.27058823529411763" d="M 41.5 28 L 40.5 30 L 39 29.5 L 41.5 28 Z " /><path fill="rgb(95,219,251)" stroke="rgb(95,219,251)" stroke-width="1" opacity="0.27058823529411763" d="M 46.5 28 L 45.5 30 L 46.5 28 Z " /><path fill="rgb(95,219,251)" stroke="rgb(95,219,251)" stroke-width="1" opacity="0.27058823529411763" d="M 13.5 31 L 17 31.5 L 13.5 32 L 13.5 31 Z " /><path fill="rgb(95,219,251)" stroke="rgb(95,219,251)" stroke-width="1" opacity="0.27058823529411763" d="M 31.5 31 L 35 31.5 L 31.5 32 L 31.5 31 Z " /><path fill="rgb(95,219,251)" stroke="rgb(95,219,251)" stroke-width="1" opacity="0.27058823529411763" d="M 9.5 33 L 10 35.5 L 9 35.5 L 9.5 33 Z " /><path fill="rgb(95,219,251)" stroke="rgb(95,219,251)" stroke-width="1" opacity="0.27058823529411763" d="M 38.5 33 L 39 35.5 L 38 35.5 L 38.5 33 Z " /><path fill="rgb(95,219,251)" stroke="rgb(95,219,251)" stroke-width="1" opacity="0.27058823529411763" d="M 13.5 34 L 16 34.5 L 13.5 35 L 13.5 34 Z " /><path fill="rgb(95,219,251)" stroke="rgb(95,219,251)" stroke-width="1" opacity="0.27058823529411763" d="M 32.5 34 L 35 34.5 L 32.5 35 L 32.5 34 Z " /><path fill="rgb(95,219,251)" stroke="rgb(95,219,251)" stroke-width="1" opacity="0.27058823529411763" d="M 18.5 35 L 19.5 37 L 18.5 35 Z " /><path fill="rgb(95,219,251)" stroke="rgb(95,219,251)" stroke-width="1" opacity="0.27058823529411763" d="M 23.5 35 L 26 36.5 L 23.5 38 Q 20.5 36.5 23.5 35 Z " /><path fill="rgb(95,219,251)" stroke="rgb(95,219,251)" stroke-width="1" opacity="0.27058823529411763" d="M 29.5 35 L 28.5 37 L 29.5 35 Z " /><path fill="rgb(95,219,251)" stroke="rgb(95,219,251)" stroke-width="1" opacity="0.27058823529411763" d="M 11.5 37 L 12 41.5 L 11 41.5 L 11.5 37 Z " /><path fill="rgb(95,219,251)" stroke="rgb(95,219,251)" stroke-width="1" opacity="0.27058823529411763" d="M 36.5 37 L 37 41.5 L 36 41.5 L 36.5 37 Z " /><path fill="rgb(95,219,251)" stroke="rgb(95,219,251)" stroke-width="1" opacity="0.27058823529411763" d="M 20.5 38 L 21.5 40 L 20.5 38 Z " /><path fill="rgb(95,219,251)" stroke="rgb(95,219,251)" stroke-width="1" opacity="0.27058823529411763" d="M 27.5 38 L 26.5 40 L 27.5 38 Z " /><path fill="rgb(95,219,251)" stroke="rgb(95,219,251)" stroke-width="1" opacity="0.27058823529411763" d="M 18.5 43 L 17.5 45 L 18.5 43 Z " /><path fill="rgb(95,219,251)" stroke="rgb(95,219,251)" stroke-width="1" opacity="0.27058823529411763" d="M 29.5 43 L 30.5 45 L 29.5 43 Z " /><path fill="rgb(95,219,251)" stroke="rgb(95,219,251)" stroke-width="1" opacity="0.27058823529411763" d="M 12.5 44 L 16 45.5 L 13.5 46 L 12.5 44 Z " /><path fill="rgb(95,219,251)" stroke="rgb(95,219,251)" stroke-width="1" opacity="0.27058823529411763" d="M 35.5 44 L 34.5 46 L 32 45.5 L 35.5 44 Z " /><path fill="rgb(95,219,251)" stroke="rgb(95,219,251)" stroke-width="1" opacity="0.27058823529411763" d="M 20.5 45 L 19.5 47 L 20.5 45 Z " /><path fill="rgb(95,219,251)" stroke="rgb(95,219,251)" stroke-width="1" opacity="0.27058823529411763" d="M 27.5 45 L 28.5 47 L 27.5 45 Z " /><path fill="rgb(95,219,251)" stroke="rgb(95,219,251)" stroke-width="1" opacity="0.27058823529411763" d="M 10.5 46 L 11.5 48 L 10.5 46 Z " /><path fill="rgb(95,219,251)" stroke="rgb(95,219,251)" stroke-width="1" opacity="0.27058823529411763" d="M 37.5 46 L 36.5 48 L 37.5 46 Z " /><path fill="rgb(96,218,250)" stroke="rgb(96,218,250)" stroke-width="1" opacity="0.8588235294117647" d="M 9.5 6 L 10 9.5 L 9 9.5 L 9.5 6 Z " /><path fill="rgb(96,218,250)" stroke="rgb(96,218,250)" stroke-width="1" opacity="0.8588235294117647" d="M 38.5 6 L 39 9.5 L 38 9.5 L 38.5 6 Z " /><path fill="rgb(96,218,250)" stroke="rgb(96,218,250)" stroke-width="1" opacity="0.8588235294117647" d="M 16.5 17 L 17.5 19 L 16.5 17 Z " /><path fill="rgb(96,218,250)" stroke="rgb(96,218,250)" stroke-width="1" opacity="0.8588235294117647" d="M 31.5 17 L 30.5 19 L 31.5 17 Z " /><path fill="rgb(96,218,250)" stroke="rgb(96,218,250)" stroke-width="1" opacity="0.8588235294117647" d="M 3.5 18 L 1.5 21 L 3.5 18 Z " /><path fill="rgb(96,218,250)" stroke="rgb(96,218,250)" stroke-width="1" opacity="0.8588235294117647" d="M 44.5 18 L 46.5 21 L 44.5 18 Z " /><path fill="rgb(96,218,250)" stroke="rgb(96,218,250)" stroke-width="1" opacity="0.8588235294117647" d="M 13.5 20 L 12.5 22 L 13.5 20 Z " /><path fill="rgb(96,218,250)" stroke="rgb(96,218,250)" stroke-width="1" opacity="0.8588235294117647" d="M 34.5 20 L 35.5 22 L 34.5 20 Z " /><path fill="rgb(96,218,250)" stroke="rgb(96,218,250)" stroke-width="1" opacity="0.8588235294117647" d="M 12.5 26 L 13.5 28 L 12.5 26 Z " /><path fill="rgb(96,218,250)" stroke="rgb(96,218,250)" stroke-width="1" opacity="0.8588235294117647" d="M 35.5 26 L 34.5 28 L 35.5 26 Z " /><path fill="rgb(96,218,250)" stroke="rgb(96,218,250)" stroke-width="1" opacity="0.8588235294117647" d="M 1.5 27 L 3.5 30 L 1.5 27 Z " /><path fill="rgb(96,218,250)" stroke="rgb(96,218,250)" stroke-width="1" opacity="0.8588235294117647" d="M 46.5 27 L 44.5 30 L 46.5 27 Z " /><path fill="rgb(96,218,250)" stroke="rgb(96,218,250)" stroke-width="1" opacity="0.8588235294117647" d="M 17.5 29 L 16.5 31 L 17.5 29 Z " /><path fill="rgb(96,218,250)" stroke="rgb(96,218,250)" stroke-width="1" opacity="0.8588235294117647" d="M 30.5 29 L 31.5 31 L 30.5 29 Z " /><path fill="rgb(96,218,250)" stroke="rgb(96,218,250)" stroke-width="1" opacity="0.8588235294117647" d="M 9.5 38 L 10 41.5 L 9 41.5 L 9.5 38 Z " /><path fill="rgb(96,218,250)" stroke="rgb(96,218,250)" stroke-width="1" opacity="0.8588235294117647" d="M 21.5 38 L 22.5 40 L 21.5 38 Z " /><path fill="rgb(96,218,250)" stroke="rgb(96,218,250)" stroke-width="1" opacity="0.8588235294117647" d="M 26.5 38 L 25.5 40 L 26.5 38 Z " /><path fill="rgb(96,218,250)" stroke="rgb(96,218,250)" stroke-width="1" opacity="0.8588235294117647" d="M 38.5 38 L 39 41.5 L 38 41.5 L 38.5 38 Z " /><path fill="rgb(105,237,254)" stroke="rgb(105,237,254)" stroke-width="1" opacity="0.996078431372549" d="M 13.5 0 Q 20.7 1.3 24.5 6 Q 27.5 1 34.5 0 L 38 3.5 L 38 16 Q 44.4 16.3 47 21.5 L 48 24.5 L 42.5 31 L 38 32 L 38 44.5 L 34.5 48 Q 27.3 46.7 23.5 42 Q 20.5 47 13.5 48 L 10 44.5 L 10 32 Q 3.6 31.7 1 26.5 L 0 23.5 L 5.5 17 L 10 16 L 10 3.5 L 13.5 0 Z M 14 2 L 11 5 L 11 14 L 13 15 L 19 14 L 23 8 Q 21 2 14 2 Z M 32 2 L 25 8 L 29 14 L 36 15 L 37 14 L 37 5 Q 36 1 32 2 Z M 23 9 L 21 14 L 24 13 L 27 14 L 25 11 Q 26 8 23 9 Z M 16 15 L 12 16 L 13 19 Q 12 22 15 21 L 17 18 Q 18 14 16 15 Z M 19 15 L 15 23 L 15 26 L 19 32 L 20 33 L 29 33 L 33 26 L 33 23 L 29 17 L 29 15 L 19 15 Z M 31 15 Q 30 18 33 20 Q 32 22 35 21 L 36 16 L 31 15 Z M 9 17 L 7 18 L 2 23 L 2 26 Q 5 31 11 31 L 13 27 Q 14 21 11 19 Q 12 16 9 17 Z M 37 17 L 35 22 Q 34 28 37 31 L 42 30 L 46 26 L 46 23 Q 43 17 37 17 Z M 13 27 L 12 31 Q 11 34 16 32 L 17 33 L 15 29 Q 16 26 13 27 Z M 33 27 L 31 31 L 32 33 L 36 32 L 35 30 Q 36 26 33 27 Z M 13 33 L 11 35 L 11 44 L 14 46 Q 21 46 23 41 L 19 34 L 13 33 Z M 35 33 L 29 34 L 25 41 Q 27 46 35 46 L 37 44 L 37 35 L 35 33 Z M 21 34 L 23 38 Q 22 40 25 39 L 27 34 L 25 35 L 21 34 Z " /><path fill="rgb(105,237,254)" stroke="rgb(105,237,254)" stroke-width="1" opacity="0.996078431372549" d="M 22.5 20 Q 27.3 19.3 28 22.5 Q 28.8 27.3 25.5 28 Q 20.8 28.8 20 25.5 Q 19.3 20.8 22.5 20 Z " /></svg>