<svg width="48" height="48" version="1.1" xmlns="http://www.w3.org/2000/svg" desc="Created with imagetracer.js version 1.2.6" ><path fill="rgb(0,0,0)" stroke="rgb(0,0,0)" stroke-width="1" opacity="0" d="M 0 0 L 20 0.5 L 13 6.5 L 10 15.5 L 10 21.5 L 14 33.5 L 14 35.5 L 16.5 39 L 21 36.5 Q 22 32 19.5 31 L 16 28.5 Q 13 23.5 14 14.5 L 19.5 5 L 26.5 4 L 30 6.5 L 33 16 L 37 16 L 37 14.5 L 34 5.5 L 29.5 1 L 28 0.5 L 48 0 L 47.5 33 Q 45.4 24.1 38.5 20 L 35.5 18 L 24.5 16 L 20.5 14 Q 17 15 18 20.5 L 21.5 23 L 26.5 20 L 37.5 24 L 41 27.5 Q 44.8 30.7 44 38.5 L 39.5 44 L 31.5 44 L 30.5 43 L 27 45.5 Q 26.3 47.8 28.5 47 L 28.5 48 L 19 47.5 Q 26.4 45.9 30 40.5 L 33 34 L 37 31.5 Q 37.8 26.8 34.5 26 Q 29.8 25.3 29 28.5 L 30 33.5 L 23.5 41 L 17.5 44 L 9.5 44 Q 3.6 41.9 5 32.5 L 8.5 27 Q 10.8 27.8 10 25.5 L 8.5 22 Q 0.4 25.9 1 38.5 L 5.5 46 L 9 47.5 L 0 48 L 0 0 Z " /><path fill="rgb(0,0,0)" stroke="rgb(0,0,0)" stroke-width="1" opacity="0" d="M 47.5 39 L 48 48 L 40 47.5 L 45 45 L 47.5 39 Z " /><path fill="rgb(130,80,207)" stroke="rgb(130,80,207)" stroke-width="1" opacity="1" d="M 27.5 1 L 32 4.5 L 36 14.5 L 34 15 Q 33.6 6.6 27.5 3 L 26 2.5 L 27.5 1 Z " /><path fill="rgb(130,80,207)" stroke="rgb(130,80,207)" stroke-width="1" opacity="1" d="M 18.5 2 Q 20.8 1.3 20 3.5 L 16 5.5 Q 18.5 7 15 8.5 Q 11.6 13.6 13 23.5 L 16 30.5 L 14 31 Q 10.3 24.7 12 11.5 Q 13.5 5 18.5 2 Z " /><path fill="rgb(130,80,207)" stroke="rgb(130,80,207)" stroke-width="1" opacity="1" d="M 21.5 15 L 22.5 17 L 21.5 15 Z " /><path fill="rgb(130,80,207)" stroke="rgb(130,80,207)" stroke-width="1" opacity="1" d="M 24.5 17 L 25.5 18 L 32 18 Q 33.3 21 29.5 20 L 24 19 L 24.5 17 Z " /><path fill="rgb(130,80,207)" stroke="rgb(130,80,207)" stroke-width="1" opacity="1" d="M 19.5 19 L 20.5 21 Q 17.7 21.7 19.5 19 Z " /><path fill="rgb(130,80,207)" stroke="rgb(130,80,207)" stroke-width="1" opacity="1" d="M 33 19 Q 40.3 20.4 44 26.5 Q 47.7 30.8 46 40.5 L 41.5 46 L 37.5 47 L 38.5 45 L 43 42.5 Q 46.4 39.9 45 32.5 L 36.5 21 L 35 21.5 L 34.5 20 L 33 20.5 L 33 19 Z " /><path fill="rgb(130,80,207)" stroke="rgb(130,80,207)" stroke-width="1" opacity="1" d="M 7.5 24 L 9 25.5 L 5 29.5 L 3 35.5 L 7.5 45 L 9.5 45 L 12 45.5 L 7.5 46 L 3 41.5 L 2 33.5 L 7.5 24 Z " /><path fill="rgb(130,80,207)" stroke="rgb(130,80,207)" stroke-width="1" opacity="1" d="M 31 27 Q 34.8 26.3 36 29.5 L 35 33 L 32 34.5 Q 30.4 41.4 24.5 44 L 22.5 43 L 22.5 45 Q 19.5 43.5 22.5 42 L 30 35.5 L 31.5 32 Q 33.2 34.8 35 30.5 L 33.5 28 L 31 29.5 L 30.5 31 L 30 29.5 L 31 27 Z " /><path fill="rgb(130,80,207)" stroke="rgb(130,80,207)" stroke-width="1" opacity="1" d="M 18.5 32 L 20 35.5 L 17 37.5 L 19 33.5 L 18.5 32 Z " /><path fill="rgb(130,80,207)" stroke="rgb(130,80,207)" stroke-width="1" opacity="1" d="M 19.5 44 L 20.5 46 Q 17.7 46.7 19.5 44 Z " /><path fill="rgb(130,80,207)" stroke="rgb(130,80,207)" stroke-width="1" opacity="1" d="M 30.5 44 L 33 45.5 L 31.5 46 L 29 45.5 L 30.5 44 Z " /><path fill="rgb(130,80,207)" stroke="rgb(130,80,207)" stroke-width="1" opacity="1" d="M 15.5 45 L 18 45.5 L 15.5 46 L 15.5 45 Z " /><path fill="rgb(118,72,188)" stroke="rgb(118,72,188)" stroke-width="1" opacity="0.7490196078431373" d="M 17.5 2 L 14.5 6 L 17.5 2 Z " /><path fill="rgb(118,72,188)" stroke="rgb(118,72,188)" stroke-width="1" opacity="0.7490196078431373" d="M 28.5 4 L 30.5 7 L 28.5 4 Z " /><path fill="rgb(118,72,188)" stroke="rgb(118,72,188)" stroke-width="1" opacity="0.7490196078431373" d="M 11.5 12 L 12 14.5 L 11 14.5 L 11.5 12 Z " /><path fill="rgb(118,72,188)" stroke="rgb(118,72,188)" stroke-width="1" opacity="0.7490196078431373" d="M 13.5 15 L 14 21.5 L 13 21.5 L 13.5 15 Z " /><path fill="rgb(118,72,188)" stroke="rgb(118,72,188)" stroke-width="1" opacity="0.7490196078431373" d="M 40.5 22 L 42.5 25 L 40.5 22 Z " /><path fill="rgb(118,72,188)" stroke="rgb(118,72,188)" stroke-width="1" opacity="0.7490196078431373" d="M 7.5 23 Q 9.8 22.3 9 24.5 L 5 25.5 L 7.5 23 Z " /><path fill="rgb(118,72,188)" stroke="rgb(118,72,188)" stroke-width="1" opacity="0.7490196078431373" d="M 37.5 23 L 41.5 28 L 37.5 23 Z " /><path fill="rgb(118,72,188)" stroke="rgb(118,72,188)" stroke-width="1" opacity="0.7490196078431373" d="M 7.5 27 L 6.5 29 L 7.5 27 Z " /><path fill="rgb(118,72,188)" stroke="rgb(118,72,188)" stroke-width="1" opacity="0.7490196078431373" d="M 28.5 36 L 27.5 38 L 28.5 36 Z " /><path fill="rgb(118,72,188)" stroke="rgb(118,72,188)" stroke-width="1" opacity="0.7490196078431373" d="M 30.5 38 L 29.5 40 L 30.5 38 Z " /><path fill="rgb(118,72,188)" stroke="rgb(118,72,188)" stroke-width="1" opacity="0.7490196078431373" d="M 24.5 40 L 23.5 42 L 24.5 40 Z " /><path fill="rgb(118,72,188)" stroke="rgb(118,72,188)" stroke-width="1" opacity="0.7490196078431373" d="M 26.5 42 L 25.5 44 L 26.5 42 Z " /><path fill="rgb(118,72,188)" stroke="rgb(118,72,188)" stroke-width="1" opacity="0.7490196078431373" d="M 45.5 42 L 42.5 46 L 45.5 42 Z " /><path fill="rgb(121,74,193)" stroke="rgb(121,74,193)" stroke-width="1" opacity="0.9921568627450981" d="M 22.5 0 Q 26.3 -0.8 27 1.5 L 23.5 3 L 21 2 L 20.5 4 L 20 1 L 22.5 0 Z " /><path fill="rgb(121,74,193)" stroke="rgb(121,74,193)" stroke-width="1" opacity="0.9921568627450981" d="M 18.5 3 L 18 4.5 Q 18.8 6.8 16.5 6 L 15 6.5 L 18.5 3 Z " /><path fill="rgb(121,74,193)" stroke="rgb(121,74,193)" stroke-width="1" opacity="0.9921568627450981" d="M 29.5 3 L 30.5 5 L 29.5 3 Z " /><path fill="rgb(121,74,193)" stroke="rgb(121,74,193)" stroke-width="1" opacity="0.9921568627450981" d="M 11.5 15 L 12 22.5 L 11 22.5 L 11.5 15 Z " /><path fill="rgb(121,74,193)" stroke="rgb(121,74,193)" stroke-width="1" opacity="0.9921568627450981" d="M 20.5 15 L 24 16.5 L 25 19.5 L 22 20.5 Q 22.8 22.8 20.5 22 L 19.5 19 L 18 18.5 L 20 18 L 20.5 15 Z " /><path fill="rgb(121,74,193)" stroke="rgb(121,74,193)" stroke-width="1" opacity="0.9921568627450981" d="M 25.5 17 L 29 17.5 L 25.5 18 L 25.5 17 Z " /><path fill="rgb(121,74,193)" stroke="rgb(121,74,193)" stroke-width="1" opacity="0.9921568627450981" d="M 32.5 18 L 33 20.5 L 32 20.5 L 32.5 18 Z " /><path fill="rgb(121,74,193)" stroke="rgb(121,74,193)" stroke-width="1" opacity="0.9921568627450981" d="M 35.5 19 L 35 20.5 L 34.5 22 L 34 20.5 L 35.5 19 Z " /><path fill="rgb(121,74,193)" stroke="rgb(121,74,193)" stroke-width="1" opacity="0.9921568627450981" d="M 38.5 22 L 42.5 27 L 38.5 22 Z " /><path fill="rgb(121,74,193)" stroke="rgb(121,74,193)" stroke-width="1" opacity="0.9921568627450981" d="M 7.5 25 L 6.5 27 L 7.5 25 Z " /><path fill="rgb(121,74,193)" stroke="rgb(121,74,193)" stroke-width="1" opacity="0.9921568627450981" d="M 34.5 27 Q 37.3 28.3 35 29.5 L 36 31.5 Q 34.3 29.9 32.5 33 L 31.5 32 L 30 31.5 L 31 29.5 L 30.5 28 L 32.5 28 L 34.5 27 Z " /><path fill="rgb(121,74,193)" stroke="rgb(121,74,193)" stroke-width="1" opacity="0.9921568627450981" d="M 14.5 31 Q 18.9 29.5 18 32.5 L 20 32.5 L 19 35.5 Q 21.3 36.8 18.5 38 L 16 37.5 L 15.5 35 L 14 35.5 Q 13.3 32.9 16 34 L 16 32 L 14.5 31 Z " /><path fill="rgb(121,74,193)" stroke="rgb(121,74,193)" stroke-width="1" opacity="0.9921568627450981" d="M 46.5 33 L 47 38.5 L 46 38.5 L 46.5 33 Z " /><path fill="rgb(121,74,193)" stroke="rgb(121,74,193)" stroke-width="1" opacity="0.9921568627450981" d="M 29.5 37 L 27.5 42 Q 25.7 39.3 24 43.5 L 23.5 45 L 22 44.5 L 21.5 46 L 20 43.5 L 22.5 43 L 29.5 37 Z " /><path fill="rgb(121,74,193)" stroke="rgb(121,74,193)" stroke-width="1" opacity="0.9921568627450981" d="M 5.5 41 L 8 44.5 L 7 44.5 L 5.5 41 Z " /><path fill="rgb(121,74,193)" stroke="rgb(121,74,193)" stroke-width="1" opacity="0.9921568627450981" d="M 42.5 42 L 41.5 44 L 42.5 42 Z " /><path fill="rgb(121,74,193)" stroke="rgb(121,74,193)" stroke-width="1" opacity="0.9921568627450981" d="M 4.5 43 L 5.5 45 L 4.5 43 Z " /><path fill="rgb(121,74,193)" stroke="rgb(121,74,193)" stroke-width="1" opacity="0.9921568627450981" d="M 18.5 44 L 19 47 L 12.5 48 L 8 46.5 L 14.5 45 L 18 46 L 18.5 44 Z " /><path fill="rgb(121,74,193)" stroke="rgb(121,74,193)" stroke-width="1" opacity="0.9921568627450981" d="M 28.5 45 L 31.5 46 L 37.5 45 L 37 46.5 Q 37.9 49.5 33.5 48 L 29.5 47 L 28.5 45 Z " /><path fill="rgb(117,71,182)" stroke="rgb(117,71,182)" stroke-width="1" opacity="0.21568627450980393" d="M 29.5 1 L 30.5 3 L 29.5 1 Z " /><path fill="rgb(117,71,182)" stroke="rgb(117,71,182)" stroke-width="1" opacity="0.21568627450980393" d="M 22.5 3 Q 27 2 28 4.5 L 26.5 4 Q 21.5 5 22.5 3 Z " /><path fill="rgb(117,71,182)" stroke="rgb(117,71,182)" stroke-width="1" opacity="0.21568627450980393" d="M 32.5 4 L 33.5 6 L 32.5 4 Z " /><path fill="rgb(117,71,182)" stroke="rgb(117,71,182)" stroke-width="1" opacity="0.21568627450980393" d="M 18.5 5 L 17.5 7 L 18.5 5 Z " /><path fill="rgb(117,71,182)" stroke="rgb(117,71,182)" stroke-width="1" opacity="0.21568627450980393" d="M 16.5 8 L 16 9.5 L 15.5 11 L 15 9.5 L 16.5 8 Z " /><path fill="rgb(117,71,182)" stroke="rgb(117,71,182)" stroke-width="1" opacity="0.21568627450980393" d="M 10.5 15 L 11 21.5 L 10 21.5 L 10.5 15 Z " /><path fill="rgb(117,71,182)" stroke="rgb(117,71,182)" stroke-width="1" opacity="0.21568627450980393" d="M 23.5 15 L 29 16.5 L 24.5 17 L 23.5 15 Z " /><path fill="rgb(117,71,182)" stroke="rgb(117,71,182)" stroke-width="1" opacity="0.21568627450980393" d="M 34.5 18 L 37 19.5 L 35.5 19 L 34.5 18 Z " /><path fill="rgb(117,71,182)" stroke="rgb(117,71,182)" stroke-width="1" opacity="0.21568627450980393" d="M 18.5 20 L 22 22.5 L 20.5 23 L 18.5 20 Z " /><path fill="rgb(117,71,182)" stroke="rgb(117,71,182)" stroke-width="1" opacity="0.21568627450980393" d="M 24.5 20 L 23.5 22 L 24.5 20 Z " /><path fill="rgb(117,71,182)" stroke="rgb(117,71,182)" stroke-width="1" opacity="0.21568627450980393" d="M 27.5 20 L 30 20.5 L 27.5 21 L 27.5 20 Z " /><path fill="rgb(117,71,182)" stroke="rgb(117,71,182)" stroke-width="1" opacity="0.21568627450980393" d="M 38.5 20 L 39.5 22 L 38.5 20 Z " /><path fill="rgb(117,71,182)" stroke="rgb(117,71,182)" stroke-width="1" opacity="0.21568627450980393" d="M 9.5 25 L 10 27 L 8 26.5 L 9.5 25 Z " /><path fill="rgb(117,71,182)" stroke="rgb(117,71,182)" stroke-width="1" opacity="0.21568627450980393" d="M 43.5 25 L 44.5 27 L 43.5 25 Z " /><path fill="rgb(117,71,182)" stroke="rgb(117,71,182)" stroke-width="1" opacity="0.21568627450980393" d="M 4.5 26 L 3.5 28 L 4.5 26 Z " /><path fill="rgb(117,71,182)" stroke="rgb(117,71,182)" stroke-width="1" opacity="0.21568627450980393" d="M 31.5 26 L 30 28.5 L 29.5 32 L 29 28.5 L 31.5 26 Z " /><path fill="rgb(117,71,182)" stroke="rgb(117,71,182)" stroke-width="1" opacity="0.21568627450980393" d="M 34.5 26 Q 37.8 26.8 37 31.5 L 34 33.5 Q 36.8 32.7 36 28.5 L 34.5 26 Z " /><path fill="rgb(117,71,182)" stroke="rgb(117,71,182)" stroke-width="1" opacity="0.21568627450980393" d="M 41.5 28 L 42.5 30 L 41.5 28 Z " /><path fill="rgb(117,71,182)" stroke="rgb(117,71,182)" stroke-width="1" opacity="0.21568627450980393" d="M 6.5 29 L 6 30.5 L 5.5 32 L 5 30.5 L 6.5 29 Z " /><path fill="rgb(117,71,182)" stroke="rgb(117,71,182)" stroke-width="1" opacity="0.21568627450980393" d="M 16.5 29 L 17.5 31 L 16.5 29 Z " /><path fill="rgb(117,71,182)" stroke="rgb(117,71,182)" stroke-width="1" opacity="0.21568627450980393" d="M 19.5 31 L 21 33.5 L 20 33.5 L 19.5 31 Z " /><path fill="rgb(117,71,182)" stroke="rgb(117,71,182)" stroke-width="1" opacity="0.21568627450980393" d="M 1.5 32 L 2 38.5 L 1 38.5 L 1.5 32 Z " /><path fill="rgb(117,71,182)" stroke="rgb(117,71,182)" stroke-width="1" opacity="0.21568627450980393" d="M 4.5 33 L 5 37.5 L 4 37.5 L 4.5 33 Z " /><path fill="rgb(117,71,182)" stroke="rgb(117,71,182)" stroke-width="1" opacity="0.21568627450980393" d="M 47.5 33 L 48 38.5 L 47 38.5 L 47.5 33 Z " /><path fill="rgb(117,71,182)" stroke="rgb(117,71,182)" stroke-width="1" opacity="0.21568627450980393" d="M 29.5 34 L 28.5 36 L 29.5 34 Z " /><path fill="rgb(117,71,182)" stroke="rgb(117,71,182)" stroke-width="1" opacity="0.21568627450980393" d="M 20.5 35 L 21 36.5 L 19 37.5 L 20.5 35 Z " /><path fill="rgb(117,71,182)" stroke="rgb(117,71,182)" stroke-width="1" opacity="0.21568627450980393" d="M 26.5 38 L 25.5 40 L 26.5 38 Z " /><path fill="rgb(117,71,182)" stroke="rgb(117,71,182)" stroke-width="1" opacity="0.21568627450980393" d="M 29.5 40 L 27.5 43 L 29.5 40 Z " /><path fill="rgb(117,71,182)" stroke="rgb(117,71,182)" stroke-width="1" opacity="0.21568627450980393" d="M 6.5 41 L 8.5 44 L 6.5 41 Z " /><path fill="rgb(117,71,182)" stroke="rgb(117,71,182)" stroke-width="1" opacity="0.21568627450980393" d="M 42.5 41 L 40.5 44 L 42.5 41 Z " /><path fill="rgb(117,71,182)" stroke="rgb(117,71,182)" stroke-width="1" opacity="0.21568627450980393" d="M 3.5 43 L 5.5 46 L 3.5 43 Z " /><path fill="rgb(117,71,182)" stroke="rgb(117,71,182)" stroke-width="1" opacity="0.21568627450980393" d="M 11.5 44 L 16 44.5 L 11.5 45 L 11.5 44 Z " /><path fill="rgb(117,71,182)" stroke="rgb(117,71,182)" stroke-width="1" opacity="0.21568627450980393" d="M 24.5 44 L 23.5 46 L 24.5 44 Z " /><path fill="rgb(117,71,182)" stroke="rgb(117,71,182)" stroke-width="1" opacity="0.21568627450980393" d="M 28.5 44 L 28 45.5 L 27.5 47 L 27 45.5 L 28.5 44 Z " /><path fill="rgb(117,71,182)" stroke="rgb(117,71,182)" stroke-width="1" opacity="0.21568627450980393" d="M 32.5 44 L 39 44.5 L 32.5 45 L 32.5 44 Z " /></svg>