<svg width="48" height="48" version="1.1" xmlns="http://www.w3.org/2000/svg" desc="Created with imagetracer.js version 1.2.6" ><path fill="rgb(0,0,0)" stroke="rgb(0,0,0)" stroke-width="1" opacity="0" d="M 0 0 L 16 0.5 Q 7.1 4.1 2 11.5 L 0.5 15 L 0 0 Z " /><path fill="rgb(0,0,0)" stroke="rgb(0,0,0)" stroke-width="1" opacity="0" d="M 27.5 0 L 48 0 L 48 30.5 L 47 30.5 L 45.5 28 L 39.5 27 L 37 28 L 36 23.5 L 37 20.5 Q 35.8 17.8 34.5 20 Q 31.9 19.2 33 22.5 L 30.5 28 L 30 23.5 Q 32.3 22.3 29.5 21 L 26 22 L 23.5 33 L 23 30.5 L 24 28 Q 20.3 29.2 22 24 L 18.5 24 L 14.5 29 L 11.5 31 Q 5 27.5 4 18.5 L 8.5 11 Q 13.5 5.5 22.5 4 L 27 6.5 L 27 10.5 L 22.5 17 Q 19.8 19.8 13.5 19 L 10 17 L 13.5 22 L 17.5 23 Q 25.6 21.6 29 15.5 Q 31.7 12.2 31 5.5 L 27.5 0 Z " /><path fill="rgb(0,0,0)" stroke="rgb(0,0,0)" stroke-width="1" opacity="0" d="M 0.5 24 L 7.5 32 L 9 32.5 L 3 37.5 Q 0.3 39.8 1 45.5 L 2 48 L 0 47.5 L 0.5 24 Z " /><path fill="rgb(0,0,0)" stroke="rgb(0,0,0)" stroke-width="1" opacity="0" d="M 19.5 28 L 20 29.5 L 17.5 37 L 17 32.5 L 19.5 28 Z " /><path fill="rgb(0,0,0)" stroke="rgb(0,0,0)" stroke-width="1" opacity="0" d="M 33.5 28 L 34 31.5 L 32.5 34 L 32 30.5 L 33.5 28 Z " /><path fill="rgb(0,0,0)" stroke="rgb(0,0,0)" stroke-width="1" opacity="0" d="M 39.5 30 Q 44.6 29.4 46 32.5 L 45 39 L 47.5 38 L 48 48 L 8 47.5 L 11 45.5 Q 14.3 41.3 13.5 33 L 14 40.5 L 16.5 43 L 19 42 L 19.5 40 L 20 42 L 23 40.5 L 26 31 Q 29 29.8 28 33.5 Q 24.1 35.6 25 41 L 31 38.5 L 31.5 37 L 32 39 Q 36.7 39.8 38 35.5 Q 37 31 39.5 30 Z " /><path fill="rgb(0,0,0)" stroke="rgb(0,0,0)" stroke-width="1" opacity="0" d="M 9.5 36 L 10 39.5 L 6.5 44 Q 3.9 44.8 5 41.5 L 9.5 36 Z " /><path fill="rgb(194,98,152)" stroke="rgb(194,98,152)" stroke-width="1" opacity="0.08627450980392157" d="M 10.5 9 L 9.5 11 L 10.5 9 Z " /><path fill="rgb(194,98,152)" stroke="rgb(194,98,152)" stroke-width="1" opacity="0.08627450980392157" d="M 10 17 L 13 18.5 L 10 18.5 L 10 17 Z " /><path fill="rgb(194,98,152)" stroke="rgb(194,98,152)" stroke-width="1" opacity="0.08627450980392157" d="M 14.5 19 L 17 19.5 L 14.5 20 L 14.5 19 Z " /><path fill="rgb(194,98,152)" stroke="rgb(194,98,152)" stroke-width="1" opacity="0.08627450980392157" d="M 28.5 21 L 31 22.5 L 29.5 22 L 28.5 21 Z " /><path fill="rgb(194,98,152)" stroke="rgb(194,98,152)" stroke-width="1" opacity="0.08627450980392157" d="M 15.5 22 L 18 22.5 L 15.5 23 L 15.5 22 Z " /><path fill="rgb(194,98,152)" stroke="rgb(194,98,152)" stroke-width="1" opacity="0.08627450980392157" d="M 18.5 24 L 16.5 27 L 18.5 24 Z " /><path fill="rgb(194,98,152)" stroke="rgb(194,98,152)" stroke-width="1" opacity="0.08627450980392157" d="M 2.5 26 L 7.5 32 L 2.5 26 Z " /><path fill="rgb(194,98,152)" stroke="rgb(194,98,152)" stroke-width="1" opacity="0.08627450980392157" d="M 45.5 28 L 46.5 30 L 45.5 28 Z " /><path fill="rgb(194,98,152)" stroke="rgb(194,98,152)" stroke-width="1" opacity="0.08627450980392157" d="M 13.5 32 L 12.5 34 L 13.5 32 Z " /><path fill="rgb(194,98,152)" stroke="rgb(194,98,152)" stroke-width="1" opacity="0.08627450980392157" d="M 35.5 33 L 35 34.5 L 34.5 36 L 34 34.5 L 35.5 33 Z " /><path fill="rgb(194,98,152)" stroke="rgb(194,98,152)" stroke-width="1" opacity="0.08627450980392157" d="M 6.5 34 L 3.5 38 L 6.5 34 Z " /><path fill="rgb(194,98,152)" stroke="rgb(194,98,152)" stroke-width="1" opacity="0.08627450980392157" d="M 9.5 35 Q 11.8 34.3 11 36.5 L 9.5 36 L 6 38.5 L 9.5 35 Z " /><path fill="rgb(194,98,152)" stroke="rgb(194,98,152)" stroke-width="1" opacity="0.08627450980392157" d="M 24.5 36 L 25.5 38 L 24.5 36 Z " /><path fill="rgb(194,98,152)" stroke="rgb(194,98,152)" stroke-width="1" opacity="0.08627450980392157" d="M 10.5 45 L 9.5 47 L 10.5 45 Z " /><path fill="rgb(204,102,153)" stroke="rgb(204,102,153)" stroke-width="1" opacity="0.8745098039215686" d="M 18.5 0 L 21.5 1 L 24.5 0 L 24.5 1 L 21.5 2 L 18.5 1 L 18.5 0 Z " /><path fill="rgb(204,102,153)" stroke="rgb(204,102,153)" stroke-width="1" opacity="0.8745098039215686" d="M 12.5 3 L 14 4.5 L 13.5 7 L 12 5.5 L 12.5 3 Z " /><path fill="rgb(204,102,153)" stroke="rgb(204,102,153)" stroke-width="1" opacity="0.8745098039215686" d="M 20.5 3 L 24 3.5 L 20.5 4 L 20.5 3 Z " /><path fill="rgb(204,102,153)" stroke="rgb(204,102,153)" stroke-width="1" opacity="0.8745098039215686" d="M 10.5 4 L 11 8.5 L 6.5 13 L 3 11.5 L 4.5 12 L 10 6.5 Q 7.8 5.3 10.5 4 Z " /><path fill="rgb(204,102,153)" stroke="rgb(204,102,153)" stroke-width="1" opacity="0.8745098039215686" d="M 26.5 13 L 25.5 15 L 26.5 13 Z " /><path fill="rgb(204,102,153)" stroke="rgb(204,102,153)" stroke-width="1" opacity="0.8745098039215686" d="M 0.5 17 L 2 19.5 L 0.5 22 L 0 20.5 L 0 18.5 L 0.5 17 Z " /><path fill="rgb(204,102,153)" stroke="rgb(204,102,153)" stroke-width="1" opacity="0.8745098039215686" d="M 3.5 17 L 4 19.5 L 3 19.5 L 3.5 17 Z " /><path fill="rgb(204,102,153)" stroke="rgb(204,102,153)" stroke-width="1" opacity="0.8745098039215686" d="M 22.5 17 L 21.5 19 L 22.5 17 Z " /><path fill="rgb(204,102,153)" stroke="rgb(204,102,153)" stroke-width="1" opacity="0.8745098039215686" d="M 34.5 20 L 34 21.5 L 33.5 23 L 33 21.5 L 34.5 20 Z " /><path fill="rgb(204,102,153)" stroke="rgb(204,102,153)" stroke-width="1" opacity="0.8745098039215686" d="M 35.5 22 L 36 25.5 L 34.5 29 L 34 26.5 L 35.5 22 Z " /><path fill="rgb(204,102,153)" stroke="rgb(204,102,153)" stroke-width="1" opacity="0.8745098039215686" d="M 4.5 24 L 5.5 26 L 4.5 24 Z " /><path fill="rgb(204,102,153)" stroke="rgb(204,102,153)" stroke-width="1" opacity="0.8745098039215686" d="M 2.5 25 L 3.5 27 L 2.5 25 Z " /><path fill="rgb(204,102,153)" stroke="rgb(204,102,153)" stroke-width="1" opacity="0.8745098039215686" d="M 18.5 25 L 22 26 L 23 28.5 L 21 28.5 L 20.5 30 L 20 28.5 L 20.5 27 L 18.5 28 L 16 27.5 L 18.5 25 Z " /><path fill="rgb(204,102,153)" stroke="rgb(204,102,153)" stroke-width="1" opacity="0.8745098039215686" d="M 27.5 27 L 26.5 29 L 25 28.5 L 27.5 27 Z " /><path fill="rgb(204,102,153)" stroke="rgb(204,102,153)" stroke-width="1" opacity="0.8745098039215686" d="M 38.5 28 L 43 29.5 L 39.5 30 L 38.5 28 Z " /><path fill="rgb(204,102,153)" stroke="rgb(204,102,153)" stroke-width="1" opacity="0.8745098039215686" d="M 44.5 28 L 46.5 31 L 44 30.5 L 44.5 28 Z " /><path fill="rgb(204,102,153)" stroke="rgb(204,102,153)" stroke-width="1" opacity="0.8745098039215686" d="M 6.5 29 L 9.5 32 L 10.5 31 L 13 32.5 L 11.5 32 L 9.5 33 L 6.5 29 Z " /><path fill="rgb(204,102,153)" stroke="rgb(204,102,153)" stroke-width="1" opacity="0.8745098039215686" d="M 14.5 29 Q 17.5 30.5 14.5 32 L 14.5 29 Z " /><path fill="rgb(204,102,153)" stroke="rgb(204,102,153)" stroke-width="1" opacity="0.8745098039215686" d="M 37.5 30 L 38 34.5 L 37 34.5 L 37.5 30 Z " /><path fill="rgb(204,102,153)" stroke="rgb(204,102,153)" stroke-width="1" opacity="0.8745098039215686" d="M 24.5 31 L 25.5 33 L 24.5 31 Z " /><path fill="rgb(204,102,153)" stroke="rgb(204,102,153)" stroke-width="1" opacity="0.8745098039215686" d="M 14.5 33 L 15 38.5 L 14 38.5 L 14.5 33 Z " /><path fill="rgb(204,102,153)" stroke="rgb(204,102,153)" stroke-width="1" opacity="0.8745098039215686" d="M 7.5 34 L 9.5 34 L 11 34.5 L 6.5 38 L 5.5 37 L 3 38.5 L 7.5 34 Z " /><path fill="rgb(204,102,153)" stroke="rgb(204,102,153)" stroke-width="1" opacity="0.8745098039215686" d="M 29.5 34 L 31 37.5 L 28 38.5 L 28.5 40 L 27 38.5 L 28.5 36 L 27 35.5 L 29.5 34 Z " /><path fill="rgb(204,102,153)" stroke="rgb(204,102,153)" stroke-width="1" opacity="0.8745098039215686" d="M 47.5 34 L 48 36.5 L 46 37.5 L 47.5 34 Z " /><path fill="rgb(204,102,153)" stroke="rgb(204,102,153)" stroke-width="1" opacity="0.8745098039215686" d="M 21.5 35 L 22 37.5 Q 20 41 18 36.5 L 19.5 37 Q 22 37.7 21.5 35 Z " /><path fill="rgb(204,102,153)" stroke="rgb(204,102,153)" stroke-width="1" opacity="0.8745098039215686" d="M 33.5 35 L 32.5 37 L 33.5 35 Z " /><path fill="rgb(204,102,153)" stroke="rgb(204,102,153)" stroke-width="1" opacity="0.8745098039215686" d="M 16.5 37 L 18.5 40 L 16 39 L 16.5 37 Z " /><path fill="rgb(204,102,153)" stroke="rgb(204,102,153)" stroke-width="1" opacity="0.8745098039215686" d="M 10.5 44 L 8.5 47 L 10.5 44 Z " /><path fill="rgb(204,102,153)" stroke="rgb(204,102,153)" stroke-width="1" opacity="0.8745098039215686" d="M 2.5 46 L 3.5 48 L 2.5 46 Z " /><path fill="rgb(204,102,153)" stroke="rgb(204,102,153)" stroke-width="1" opacity="0.8745098039215686" d="M 5.5 46 L 6.5 48 L 5.5 46 Z " /><path fill="rgb(203,101,152)" stroke="rgb(203,101,152)" stroke-width="1" opacity="0.403921568627451" d="M 27.5 1 L 28.5 3 L 27.5 1 Z " /><path fill="rgb(203,101,152)" stroke="rgb(203,101,152)" stroke-width="1" opacity="0.403921568627451" d="M 25.5 4 L 26.5 6 L 25.5 4 Z " /><path fill="rgb(203,101,152)" stroke="rgb(203,101,152)" stroke-width="1" opacity="0.403921568627451" d="M 8.5 5 L 3.5 11 L 8.5 5 Z " /><path fill="rgb(203,101,152)" stroke="rgb(203,101,152)" stroke-width="1" opacity="0.403921568627451" d="M 12.5 7 L 11.5 9 L 12.5 7 Z " /><path fill="rgb(203,101,152)" stroke="rgb(203,101,152)" stroke-width="1" opacity="0.403921568627451" d="M 27.5 7 L 28 9.5 L 27 9.5 L 27.5 7 Z " /><path fill="rgb(203,101,152)" stroke="rgb(203,101,152)" stroke-width="1" opacity="0.403921568627451" d="M 24.5 15 L 23.5 17 L 24.5 15 Z " /><path fill="rgb(203,101,152)" stroke="rgb(203,101,152)" stroke-width="1" opacity="0.403921568627451" d="M 27.5 16 L 24.5 20 L 27.5 16 Z " /><path fill="rgb(203,101,152)" stroke="rgb(203,101,152)" stroke-width="1" opacity="0.403921568627451" d="M 29.5 24 L 30 28.5 L 29 28.5 L 29.5 24 Z " /><path fill="rgb(203,101,152)" stroke="rgb(203,101,152)" stroke-width="1" opacity="0.403921568627451" d="M 6.5 26 L 10.5 31 L 6.5 26 Z " /><path fill="rgb(203,101,152)" stroke="rgb(203,101,152)" stroke-width="1" opacity="0.403921568627451" d="M 36.5 27 L 37.5 29 L 36.5 27 Z " /><path fill="rgb(203,101,152)" stroke="rgb(203,101,152)" stroke-width="1" opacity="0.403921568627451" d="M 40.5 27 L 43 27.5 L 40.5 28 L 40.5 27 Z " /><path fill="rgb(203,101,152)" stroke="rgb(203,101,152)" stroke-width="1" opacity="0.403921568627451" d="M 27.5 28 L 28 29.5 L 26 30.5 L 27.5 28 Z " /><path fill="rgb(203,101,152)" stroke="rgb(203,101,152)" stroke-width="1" opacity="0.403921568627451" d="M 22.5 32 L 23.5 34 Q 20.7 34.7 22.5 32 Z " /><path fill="rgb(203,101,152)" stroke="rgb(203,101,152)" stroke-width="1" opacity="0.403921568627451" d="M 33.5 32 L 36 32.5 L 35.5 35 L 33.5 32 Z " /><path fill="rgb(203,101,152)" stroke="rgb(203,101,152)" stroke-width="1" opacity="0.403921568627451" d="M 31.5 33 L 33 36 Q 29.5 37.1 31.5 33 Z " /><path fill="rgb(203,101,152)" stroke="rgb(203,101,152)" stroke-width="1" opacity="0.403921568627451" d="M 16.5 34 L 17 36.5 L 16 36.5 L 16.5 34 Z " /><path fill="rgb(203,101,152)" stroke="rgb(203,101,152)" stroke-width="1" opacity="0.403921568627451" d="M 26.5 36 L 29 36.5 Q 26.9 39.8 26.5 36 Z " /><path fill="rgb(203,101,152)" stroke="rgb(203,101,152)" stroke-width="1" opacity="0.403921568627451" d="M 36.5 36 L 35.5 38 L 36.5 36 Z " /><path fill="rgb(203,101,152)" stroke="rgb(203,101,152)" stroke-width="1" opacity="0.403921568627451" d="M 32.5 37 L 33.5 39 L 32.5 37 Z " /><path fill="rgb(203,101,152)" stroke="rgb(203,101,152)" stroke-width="1" opacity="0.403921568627451" d="M 12.5 38 L 13 40.5 L 12 40.5 L 12.5 38 Z " /><path fill="rgb(203,101,152)" stroke="rgb(203,101,152)" stroke-width="1" opacity="0.403921568627451" d="M 9.5 41 L 7.5 44 L 9.5 41 Z " /><path fill="rgb(203,101,152)" stroke="rgb(203,101,152)" stroke-width="1" opacity="0.403921568627451" d="M 1.5 42 L 2 44.5 L 1 44.5 L 1.5 42 Z " /><path fill="rgb(203,101,152)" stroke="rgb(203,101,152)" stroke-width="1" opacity="0.403921568627451" d="M 4.5 42 L 6 44.5 L 4 43.5 L 4.5 42 Z " /><path fill="rgb(221,111,166)" stroke="rgb(221,111,166)" stroke-width="1" opacity="1" d="M 21.5 0 L 21.5 2 L 25.5 1 L 29 3.5 L 30 10 Q 26.7 11.3 28 6.5 Q 26.7 2.3 20.5 3 Q 11.3 5.8 6 12.5 Q 2.1 15.1 3 22.5 L 10 32 Q 13 30.8 12 34.5 L 10.5 34 L 9 33.5 L 9 31.5 Q 9.8 29.3 7.5 30 L 4 27.5 L 0 19.5 L 2 13 L 5 12.5 L 4 10 L 8 7.5 Q 7.3 5.3 9.5 6 L 14.5 2 L 21.5 0 Z " /><path fill="rgb(221,111,166)" stroke="rgb(221,111,166)" stroke-width="1" opacity="1" d="M 28.5 11 L 29 12.5 L 27 17 L 24 18.5 Q 24.8 20.8 22.5 20 L 20 21 Q 18.9 18.3 21.5 19 L 28.5 11 Z " /><path fill="rgb(221,111,166)" stroke="rgb(221,111,166)" stroke-width="1" opacity="1" d="M 15 20 Q 19.1 18.7 18 22 Q 13.9 23.3 15 20 Z " /><path fill="rgb(221,111,166)" stroke="rgb(221,111,166)" stroke-width="1" opacity="1" d="M 28.5 22 L 29 24.5 L 28.5 28 L 26 27.5 L 28.5 22 Z " /><path fill="rgb(221,111,166)" stroke="rgb(221,111,166)" stroke-width="1" opacity="1" d="M 34.5 22 L 36 26.5 L 34.5 26 L 33 25.5 L 34.5 22 Z " /><path fill="rgb(221,111,166)" stroke="rgb(221,111,166)" stroke-width="1" opacity="1" d="M 16 28 L 18 28.5 L 17 32 L 15 31.5 L 16 28 Z " /><path fill="rgb(221,111,166)" stroke="rgb(221,111,166)" stroke-width="1" opacity="1" d="M 21.5 28 L 22 34.5 L 21 37 Q 18.3 35.9 19 38.5 L 15 41 L 15.5 38 L 18 39 L 21.5 28 Z " /><path fill="rgb(221,111,166)" stroke="rgb(221,111,166)" stroke-width="1" opacity="1" d="M 28.5 29 L 30.5 32 L 28 30.5 L 28.5 29 Z " /><path fill="rgb(221,111,166)" stroke="rgb(221,111,166)" stroke-width="1" opacity="1" d="M 35 29 L 39 29.5 L 37 30 L 36.5 34 L 35 29 Z " /><path fill="rgb(221,111,166)" stroke="rgb(221,111,166)" stroke-width="1" opacity="1" d="M 25.5 31 L 24.5 33 L 25.5 31 Z " /><path fill="rgb(221,111,166)" stroke="rgb(221,111,166)" stroke-width="1" opacity="1" d="M 29.5 33 Q 31.8 32.3 31 34.5 L 28 34.5 L 29.5 33 Z " /><path fill="rgb(221,111,166)" stroke="rgb(221,111,166)" stroke-width="1" opacity="1" d="M 23.5 35 L 24 36.5 L 20 39.5 L 23.5 35 Z " /><path fill="rgb(221,111,166)" stroke="rgb(221,111,166)" stroke-width="1" opacity="1" d="M 5.5 38 L 4 40.5 Q 1.9 46.4 6.5 45 L 11.5 41 L 11 42.5 L 9 45.5 L 4.5 48 Q 1 47 2 41.5 L 5.5 38 Z " /><path fill="rgb(239,120,179)" stroke="rgb(239,120,179)" stroke-width="1" opacity="1" d="M 7.5 7 L 5.5 10 L 7.5 7 Z " /><path fill="rgb(239,120,179)" stroke="rgb(239,120,179)" stroke-width="1" opacity="1" d="M 25.5 17 L 24.5 19 L 25.5 17 Z " /><path fill="rgb(239,120,179)" stroke="rgb(239,120,179)" stroke-width="1" opacity="1" d="M 12.5 19 L 15 20.5 L 13.5 21 L 12.5 19 Z " /><path fill="rgb(239,120,179)" stroke="rgb(239,120,179)" stroke-width="1" opacity="1" d="M 19.5 25 L 21 25.5 L 17.5 28 L 19.5 25 Z " /><path fill="rgb(239,120,179)" stroke="rgb(239,120,179)" stroke-width="1" opacity="1" d="M 39.5 28 L 43 28.5 L 39.5 29 L 39.5 28 Z " /><path fill="rgb(239,120,179)" stroke="rgb(239,120,179)" stroke-width="1" opacity="1" d="M 15.5 29 L 14.5 31 L 15.5 29 Z " /><path fill="rgb(239,120,179)" stroke="rgb(239,120,179)" stroke-width="1" opacity="1" d="M 44.5 29 L 46.5 32 L 44.5 29 Z " /><path fill="rgb(239,120,179)" stroke="rgb(239,120,179)" stroke-width="1" opacity="1" d="M 15.5 32 L 16 37.5 L 15 37.5 L 15.5 32 Z " /><path fill="rgb(239,120,179)" stroke="rgb(239,120,179)" stroke-width="1" opacity="1" d="M 8.5 34 L 3.5 40 L 8.5 34 Z " /><path fill="rgb(239,120,179)" stroke="rgb(239,120,179)" stroke-width="1" opacity="1" d="M 36.5 34 L 37 35.5 L 35 36.5 L 36.5 34 Z " /><path fill="rgb(239,120,179)" stroke="rgb(239,120,179)" stroke-width="1" opacity="1" d="M 11.5 35 L 12 40.5 L 10 41.5 L 11.5 35 Z " /><path fill="rgb(239,120,179)" stroke="rgb(239,120,179)" stroke-width="1" opacity="1" d="M 29.5 37 L 27.5 40 L 26 39.5 L 29.5 37 Z " /><path fill="rgb(239,120,179)" stroke="rgb(239,120,179)" stroke-width="1" opacity="1" d="M 22.5 38 L 22 39.5 L 21.5 41 L 21 39.5 L 22.5 38 Z " /><path fill="rgb(239,120,179)" stroke="rgb(239,120,179)" stroke-width="1" opacity="1" d="M 17.5 40 L 16.5 42 L 17.5 40 Z " /></svg>