<svg width="48" height="48" version="1.1" xmlns="http://www.w3.org/2000/svg" desc="Created with imagetracer.js version 1.2.6" ><path fill="rgb(212,225,180)" stroke="rgb(212,225,180)" stroke-width="1" opacity="1" d="M 20.5 3 L 28 3.5 L 20.5 4 L 20.5 3 Z " /><path fill="rgb(212,225,180)" stroke="rgb(212,225,180)" stroke-width="1" opacity="1" d="M 10.5 8 L 8.5 11 L 10.5 8 Z " /><path fill="rgb(212,225,180)" stroke="rgb(212,225,180)" stroke-width="1" opacity="1" d="M 37.5 8 L 40.5 12 L 37.5 8 Z " /><path fill="rgb(212,225,180)" stroke="rgb(212,225,180)" stroke-width="1" opacity="1" d="M 14.5 12 L 13.5 14 L 14.5 12 Z " /><path fill="rgb(212,225,180)" stroke="rgb(212,225,180)" stroke-width="1" opacity="1" d="M 33.5 12 L 34.5 14 L 33.5 12 Z " /><path fill="rgb(212,225,180)" stroke="rgb(212,225,180)" stroke-width="1" opacity="1" d="M 12.5 16 L 13 20.5 L 12 20.5 L 12.5 16 Z " /><path fill="rgb(212,225,180)" stroke="rgb(212,225,180)" stroke-width="1" opacity="1" d="M 35.5 16 L 36 20.5 L 35 20.5 L 35.5 16 Z " /><path fill="rgb(212,225,180)" stroke="rgb(212,225,180)" stroke-width="1" opacity="1" d="M 3.5 20 L 4 27.5 L 3 27.5 L 3.5 20 Z " /><path fill="rgb(212,225,180)" stroke="rgb(212,225,180)" stroke-width="1" opacity="1" d="M 44.5 20 L 45 27.5 L 44 27.5 L 44.5 20 Z " /><path fill="rgb(212,225,180)" stroke="rgb(212,225,180)" stroke-width="1" opacity="1" d="M 18.5 22 L 20 24.5 L 18 25.5 L 19 23.5 L 18.5 22 Z " /><path fill="rgb(212,225,180)" stroke="rgb(212,225,180)" stroke-width="1" opacity="1" d="M 29.5 22 L 29 23.5 L 30 25.5 L 28 24.5 L 29.5 22 Z " /><path fill="rgb(212,225,180)" stroke="rgb(212,225,180)" stroke-width="1" opacity="1" d="M 12.5 27 L 13 31.5 L 12 31.5 L 12.5 27 Z " /><path fill="rgb(212,225,180)" stroke="rgb(212,225,180)" stroke-width="1" opacity="1" d="M 35.5 27 L 36 31.5 L 35 31.5 L 35.5 27 Z " /><path fill="rgb(212,225,180)" stroke="rgb(212,225,180)" stroke-width="1" opacity="1" d="M 13.5 34 L 14.5 36 L 13.5 34 Z " /><path fill="rgb(212,225,180)" stroke="rgb(212,225,180)" stroke-width="1" opacity="1" d="M 34.5 34 L 33.5 36 L 34.5 34 Z " /><path fill="rgb(212,225,180)" stroke="rgb(212,225,180)" stroke-width="1" opacity="1" d="M 40.5 36 L 36.5 41 L 40.5 36 Z " /><path fill="rgb(212,225,180)" stroke="rgb(212,225,180)" stroke-width="1" opacity="1" d="M 8.5 37 L 11.5 41 L 8.5 37 Z " /><path fill="rgb(212,225,180)" stroke="rgb(212,225,180)" stroke-width="1" opacity="1" d="M 20.5 44 L 28 44.5 L 20.5 45 L 20.5 44 Z " /><path fill="rgb(0,0,0)" stroke="rgb(0,0,0)" stroke-width="1" opacity="0" d="M 0 0 L 18 0.5 Q 9.3 2.3 5 8.5 L 0.5 18 L 0 0 Z " /><path fill="rgb(0,0,0)" stroke="rgb(0,0,0)" stroke-width="1" opacity="0" d="M 30.5 0 L 48 0 L 48 17.5 L 47 17.5 Q 45.3 8.3 38.5 4 L 30.5 1 L 30.5 0 Z " /><path fill="rgb(0,0,0)" stroke="rgb(0,0,0)" stroke-width="1" opacity="0" d="M 0.5 30 Q 2.6 39.4 9.5 44 L 18 47.5 L 0 48 L 0.5 30 Z " /><path fill="rgb(0,0,0)" stroke="rgb(0,0,0)" stroke-width="1" opacity="0" d="M 47.5 30 L 48 48 L 30 47.5 Q 39.4 45.4 44 38.5 L 47.5 30 Z " /><path fill="rgb(96,145,0)" stroke="rgb(96,145,0)" stroke-width="1" opacity="1" d="M 20.5 4 L 28 4.5 L 20.5 5 L 20.5 4 Z " /><path fill="rgb(96,145,0)" stroke="rgb(96,145,0)" stroke-width="1" opacity="1" d="M 17.5 5 L 19 5.5 Q 11.7 7.7 8 13.5 L 5.5 19 L 5 17.5 L 10.5 9 L 17.5 5 Z " /><path fill="rgb(96,145,0)" stroke="rgb(96,145,0)" stroke-width="1" opacity="1" d="M 29.5 5 L 39 10.5 L 41 13.5 L 34.5 8 L 29.5 6 L 29.5 5 Z " /><path fill="rgb(96,145,0)" stroke="rgb(96,145,0)" stroke-width="1" opacity="1" d="M 12.5 12 L 13 13.5 Q 10.5 15 12 20.5 L 10.5 22 L 11 20.5 Q 9.9 14.4 12.5 12 Z " /><path fill="rgb(96,145,0)" stroke="rgb(96,145,0)" stroke-width="1" opacity="1" d="M 36.5 14 L 38 21.5 L 36 20.5 L 36.5 14 Z " /><path fill="rgb(96,145,0)" stroke="rgb(96,145,0)" stroke-width="1" opacity="1" d="M 16 15 L 18 15.5 L 16.5 20 L 16 15 Z " /><path fill="rgb(96,145,0)" stroke="rgb(96,145,0)" stroke-width="1" opacity="1" d="M 30.5 15 Q 33.9 14.1 32 19.5 L 31 19.5 L 30.5 15 Z " /><path fill="rgb(96,145,0)" stroke="rgb(96,145,0)" stroke-width="1" opacity="1" d="M 4.5 20 L 5 27.5 L 4 27.5 L 4.5 20 Z " /><path fill="rgb(96,145,0)" stroke="rgb(96,145,0)" stroke-width="1" opacity="1" d="M 43.5 20 L 44 27.5 L 43 27.5 L 43.5 20 Z " /><path fill="rgb(96,145,0)" stroke="rgb(96,145,0)" stroke-width="1" opacity="1" d="M 15.5 21 L 16 26.5 L 15 26.5 L 14 23.5 L 15.5 21 Z " /><path fill="rgb(96,145,0)" stroke="rgb(96,145,0)" stroke-width="1" opacity="1" d="M 32.5 21 L 34 24.5 L 32.5 27 L 32.5 21 Z " /><path fill="rgb(96,145,0)" stroke="rgb(96,145,0)" stroke-width="1" opacity="1" d="M 20 23 Q 23 22 22 25 Q 19 26 20 23 Z " /><path fill="rgb(96,145,0)" stroke="rgb(96,145,0)" stroke-width="1" opacity="1" d="M 26 23 Q 29 22 28 25 Q 25 26 26 23 Z " /><path fill="rgb(96,145,0)" stroke="rgb(96,145,0)" stroke-width="1" opacity="1" d="M 10.5 26 L 12 27.5 L 13 35.5 L 12 35.5 L 10.5 26 Z " /><path fill="rgb(96,145,0)" stroke="rgb(96,145,0)" stroke-width="1" opacity="1" d="M 37.5 26 L 37 27.5 L 36.5 34 L 36 27.5 L 37.5 26 Z " /><path fill="rgb(96,145,0)" stroke="rgb(96,145,0)" stroke-width="1" opacity="1" d="M 16.5 28 L 18 32.5 L 16 33 L 16.5 28 Z " /><path fill="rgb(96,145,0)" stroke="rgb(96,145,0)" stroke-width="1" opacity="1" d="M 31.5 28 L 32 33 L 30 32.5 L 31.5 28 Z " /><path fill="rgb(96,145,0)" stroke="rgb(96,145,0)" stroke-width="1" opacity="1" d="M 5.5 29 Q 7.7 36.3 13.5 40 L 19 42.5 L 17.5 43 L 9 37.5 L 5 30.5 L 5.5 29 Z " /><path fill="rgb(96,145,0)" stroke="rgb(96,145,0)" stroke-width="1" opacity="1" d="M 40.5 34 L 39 36.5 L 37.5 39 L 34.5 41 L 40.5 34 Z " /><path fill="rgb(96,145,0)" stroke="rgb(96,145,0)" stroke-width="1" opacity="1" d="M 35.5 35 L 34.5 37 L 33 36.5 L 35.5 35 Z " /><path fill="rgb(96,145,0)" stroke="rgb(96,145,0)" stroke-width="1" opacity="1" d="M 20.5 43 L 28 43.5 L 20.5 44 L 20.5 43 Z " /><path fill="rgb(120,161,23)" stroke="rgb(120,161,23)" stroke-width="1" opacity="1" d="M 15.5 16 L 16 19.5 L 15 19.5 L 15.5 16 Z " /><path fill="rgb(120,161,23)" stroke="rgb(120,161,23)" stroke-width="1" opacity="1" d="M 32.5 16 L 33 19.5 L 32 19.5 L 32.5 16 Z " /><path fill="rgb(120,161,23)" stroke="rgb(120,161,23)" stroke-width="1" opacity="1" d="M 15.5 28 L 16 31.5 L 15 31.5 L 15.5 28 Z " /><path fill="rgb(120,161,23)" stroke="rgb(120,161,23)" stroke-width="1" opacity="1" d="M 32.5 28 L 33 31.5 L 32 31.5 L 32.5 28 Z " /><path fill="rgb(108,153,0)" stroke="rgb(108,153,0)" stroke-width="1" opacity="1" d="M 19.5 5 L 29 5.5 L 19.5 6 L 19.5 5 Z " /><path fill="rgb(108,153,0)" stroke="rgb(108,153,0)" stroke-width="1" opacity="1" d="M 14.5 10 L 18 10.5 L 15.5 12 L 14 11.5 L 13.5 13 L 13 11.5 L 14.5 10 Z " /><path fill="rgb(108,153,0)" stroke="rgb(108,153,0)" stroke-width="1" opacity="1" d="M 30.5 10 Q 34.3 9.3 35 11.5 L 31.5 11 L 30.5 10 Z " /><path fill="rgb(108,153,0)" stroke="rgb(108,153,0)" stroke-width="1" opacity="1" d="M 19.5 12 L 20 15 L 18 14.5 L 19.5 12 Z " /><path fill="rgb(108,153,0)" stroke="rgb(108,153,0)" stroke-width="1" opacity="1" d="M 28.5 12 L 30 14.5 L 28 15 L 28.5 12 Z " /><path fill="rgb(108,153,0)" stroke="rgb(108,153,0)" stroke-width="1" opacity="1" d="M 39.5 13 L 42 14.5 L 40.5 15 L 39.5 13 Z " /><path fill="rgb(108,153,0)" stroke="rgb(108,153,0)" stroke-width="1" opacity="1" d="M 10.5 15 L 11 20.5 L 8 22.5 Q 11.3 20.8 10.5 15 Z " /><path fill="rgb(108,153,0)" stroke="rgb(108,153,0)" stroke-width="1" opacity="1" d="M 37.5 15 Q 36.7 20.8 40 22.5 L 37 20.5 L 37.5 15 Z " /><path fill="rgb(108,153,0)" stroke="rgb(108,153,0)" stroke-width="1" opacity="1" d="M 5.5 19 L 6 28.5 L 5 28.5 L 5.5 19 Z " /><path fill="rgb(108,153,0)" stroke="rgb(108,153,0)" stroke-width="1" opacity="1" d="M 42.5 19 L 43 28.5 L 42 28.5 L 42.5 19 Z " /><path fill="rgb(108,153,0)" stroke="rgb(108,153,0)" stroke-width="1" opacity="1" d="M 16 20 L 21.5 22 L 24.5 20 L 27.5 22 Q 28.6 19.3 32 20 L 31.5 23 L 31 21 L 26.5 23 L 23.5 21 L 20.5 23 L 17 21 L 16.5 23 L 16 20 Z " /><path fill="rgb(108,153,0)" stroke="rgb(108,153,0)" stroke-width="1" opacity="1" d="M 8.5 25 Q 12.3 26.3 11 32.5 L 10 32.5 Q 10.8 26.3 8.5 25 Z " /><path fill="rgb(108,153,0)" stroke="rgb(108,153,0)" stroke-width="1" opacity="1" d="M 16.5 25 L 17 27 L 21.5 25 L 24.5 27 L 27.5 25 L 31 27 L 31.5 25 L 32 28 L 26.5 26 L 23.5 28 L 20.5 26 Q 19.4 28.8 16 28 L 16.5 25 Z " /><path fill="rgb(108,153,0)" stroke="rgb(108,153,0)" stroke-width="1" opacity="1" d="M 39.5 25 L 38 27.5 L 37.5 33 L 37 27.5 L 39.5 25 Z " /><path fill="rgb(108,153,0)" stroke="rgb(108,153,0)" stroke-width="1" opacity="1" d="M 18.5 33 Q 21.1 32.2 20 35.5 L 19 35.5 L 18.5 33 Z " /><path fill="rgb(108,153,0)" stroke="rgb(108,153,0)" stroke-width="1" opacity="1" d="M 28 33 L 30 33.5 L 28.5 36 L 28 33 Z " /><path fill="rgb(108,153,0)" stroke="rgb(108,153,0)" stroke-width="1" opacity="1" d="M 40.5 33 L 42 33.5 L 39.5 35 L 40.5 33 Z " /><path fill="rgb(108,153,0)" stroke="rgb(108,153,0)" stroke-width="1" opacity="1" d="M 13.5 36 L 18 37.5 L 14.5 38 L 13.5 36 Z " /><path fill="rgb(108,153,0)" stroke="rgb(108,153,0)" stroke-width="1" opacity="1" d="M 30.5 37 L 34 37.5 L 30.5 38 L 30.5 37 Z " /><path fill="rgb(108,153,0)" stroke="rgb(108,153,0)" stroke-width="1" opacity="1" d="M 34.5 39 L 34 40.5 L 33.5 42 L 33 40.5 L 34.5 39 Z " /><path fill="rgb(108,153,0)" stroke="rgb(108,153,0)" stroke-width="1" opacity="1" d="M 30.5 41 Q 32.8 40.3 32 42.5 L 30.5 41 Z " /><path fill="rgb(108,153,0)" stroke="rgb(108,153,0)" stroke-width="1" opacity="1" d="M 19.5 42 L 29 42.5 L 19.5 43 L 19.5 42 Z " /><path fill="rgb(109,154,0)" stroke="rgb(109,154,0)" stroke-width="1" opacity="1" d="M 18.5 6 L 29.5 6 L 39 12.5 Q 43.8 17.7 42 29.5 L 35.5 39 Q 30.3 43.8 18.5 42 L 9 35.5 Q 4.2 30.3 6 18.5 L 12.5 9 L 18.5 6 Z M 15 10 L 11 14 L 10 21 L 8 23 L 11 35 Q 12 37 14 35 L 15 38 L 18 38 L 15 37 L 20 36 Q 21 32 18 33 L 17 28 L 23 25 L 22 27 L 25 28 L 26 25 L 31 28 L 30 32 Q 31 34 28 33 L 28 36 L 33 37 L 30 38 L 34 38 L 37 35 L 38 28 L 40 26 L 37 14 Q 36 11 35 13 L 34 10 L 30 11 L 32 12 L 28 12 Q 27 16 30 15 L 31 20 L 26 23 L 26 22 L 24 20 L 23 23 L 17 20 L 18 17 Q 17 14 20 15 L 20 12 L 16 12 L 18 11 L 15 10 Z " /><path fill="rgb(245,248,219)" stroke="rgb(245,248,219)" stroke-width="1" opacity="0.14901960784313725" d="M 9.5 4 L 5.5 9 L 9.5 4 Z " /><path fill="rgb(245,248,219)" stroke="rgb(245,248,219)" stroke-width="1" opacity="0.14901960784313725" d="M 38.5 4 L 43.5 10 L 38.5 4 Z " /><path fill="rgb(245,248,219)" stroke="rgb(245,248,219)" stroke-width="1" opacity="0.14901960784313725" d="M 4.5 38 L 9.5 44 L 4.5 38 Z " /><path fill="rgb(245,248,219)" stroke="rgb(245,248,219)" stroke-width="1" opacity="0.14901960784313725" d="M 43.5 38 L 38.5 44 L 43.5 38 Z " /><path fill="rgb(249,250,245)" stroke="rgb(249,250,245)" stroke-width="1" opacity="0.5098039215686274" d="M 19.5 0 L 22 0.5 L 19.5 1 L 19.5 0 Z " /><path fill="rgb(249,250,245)" stroke="rgb(249,250,245)" stroke-width="1" opacity="0.5098039215686274" d="M 26.5 0 L 29 0.5 L 26.5 1 L 26.5 0 Z " /><path fill="rgb(249,250,245)" stroke="rgb(249,250,245)" stroke-width="1" opacity="0.5098039215686274" d="M 0.5 19 L 1 21.5 L 0 21.5 L 0.5 19 Z " /><path fill="rgb(249,250,245)" stroke="rgb(249,250,245)" stroke-width="1" opacity="0.5098039215686274" d="M 0.5 26 L 1 28.5 L 0 28.5 L 0.5 26 Z " /><path fill="rgb(171,197,111)" stroke="rgb(171,197,111)" stroke-width="1" opacity="1" d="M 16.5 14 L 18 14.5 L 15.5 16 L 16.5 14 Z " /><path fill="rgb(171,197,111)" stroke="rgb(171,197,111)" stroke-width="1" opacity="1" d="M 30.5 14 L 33 15.5 L 31.5 15 L 30.5 14 Z " /><path fill="rgb(171,197,111)" stroke="rgb(171,197,111)" stroke-width="1" opacity="1" d="M 10.5 22 L 10 23.5 L 11 25.5 L 9 24.5 L 10.5 22 Z " /><path fill="rgb(171,197,111)" stroke="rgb(171,197,111)" stroke-width="1" opacity="1" d="M 14.5 22 L 14 23.5 L 15 25.5 L 13 24.5 L 14.5 22 Z " /><path fill="rgb(171,197,111)" stroke="rgb(171,197,111)" stroke-width="1" opacity="1" d="M 17.5 22 L 17 23.5 L 18 25.5 L 16 24.5 L 17.5 22 Z " /><path fill="rgb(171,197,111)" stroke="rgb(171,197,111)" stroke-width="1" opacity="1" d="M 23.5 22 L 26 23.5 L 24.5 26 L 22 24.5 L 23.5 22 Z M 23 23 Q 22 26 25 25 Q 26 22 23 23 Z " /><path fill="rgb(171,197,111)" stroke="rgb(171,197,111)" stroke-width="1" opacity="1" d="M 30.5 22 L 32 24.5 L 30 25.5 L 31 23.5 L 30.5 22 Z " /><path fill="rgb(171,197,111)" stroke="rgb(171,197,111)" stroke-width="1" opacity="1" d="M 33.5 22 L 35 24.5 L 33 25.5 L 34 23.5 L 33.5 22 Z " /><path fill="rgb(171,197,111)" stroke="rgb(171,197,111)" stroke-width="1" opacity="1" d="M 37.5 22 L 39 24.5 L 37 25.5 L 38 23.5 L 37.5 22 Z " /><path fill="rgb(171,197,111)" stroke="rgb(171,197,111)" stroke-width="1" opacity="1" d="M 15.5 32 L 18 33.5 L 16.5 34 L 15.5 32 Z " /><path fill="rgb(171,197,111)" stroke="rgb(171,197,111)" stroke-width="1" opacity="1" d="M 32.5 32 L 31.5 34 L 30 33.5 L 32.5 32 Z " /><path fill="rgb(253,254,252)" stroke="rgb(253,254,252)" stroke-width="1" opacity="0.9803921568627451" d="M 22.5 0 Q 37.1 0.4 43 9.5 Q 48.1 15.4 48 26.5 Q 46 37.5 38.5 43 Q 32.6 48.1 21.5 48 Q 10.5 46 5 38.5 Q 0.2 32.8 0 22.5 L 3 12.5 L 9.5 5 L 14.5 2 L 22.5 0 Z M 21 3 L 11 8 Q 5 13 3 21 L 3 28 L 8 38 Q 12 43 21 45 L 28 45 L 37 41 Q 43 36 45 28 L 45 21 L 41 12 L 31 4 L 21 3 Z " /><path fill="rgb(253,254,252)" stroke="rgb(253,254,252)" stroke-width="1" opacity="0.9803921568627451" d="M 15.5 12 L 18 13.5 L 15 15.5 Q 15.8 21.8 13 24.5 L 16.5 34 L 18 34.5 L 15.5 36 L 13 33.5 Q 13.8 27.4 12 25 Q 9 26 10 23 Q 12.7 24.1 12 21.5 Q 14.5 20 13 14.5 L 15.5 12 Z " /><path fill="rgb(253,254,252)" stroke="rgb(253,254,252)" stroke-width="1" opacity="0.9803921568627451" d="M 31.5 12 L 35 14.5 Q 34.3 20.6 36 23 Q 38.7 21.9 38 24.5 L 35 27.5 Q 36.5 34.5 32.5 36 L 30 34.5 L 33 32.5 Q 32.2 26.2 35 23.5 L 31.5 14 L 30 13.5 L 31.5 12 Z " /><path fill="rgb(253,254,252)" stroke="rgb(253,254,252)" stroke-width="1" opacity="0.9803921568627451" d="M 17 23 Q 20 22 19 25 Q 16 26 17 23 Z " /><path fill="rgb(253,254,252)" stroke="rgb(253,254,252)" stroke-width="1" opacity="0.9803921568627451" d="M 23 23 Q 26 22 25 25 Q 22 26 23 23 Z " /><path fill="rgb(253,254,252)" stroke="rgb(253,254,252)" stroke-width="1" opacity="0.9803921568627451" d="M 29 23 Q 32 22 31 25 Q 28 26 29 23 Z " /></svg>