<svg width="48" height="48" version="1.1" xmlns="http://www.w3.org/2000/svg" desc="Created with imagetracer.js version 1.2.6" ><path fill="rgb(43,141,186)" stroke="rgb(43,141,186)" stroke-width="1" opacity="0.9647058823529412" d="M 21.5 1 L 27 1.5 L 21.5 2 L 21.5 1 Z " /><path fill="rgb(43,141,186)" stroke="rgb(43,141,186)" stroke-width="1" opacity="0.9647058823529412" d="M 38.5 6 L 41.5 10 L 38.5 6 Z " /><path fill="rgb(43,141,186)" stroke="rgb(43,141,186)" stroke-width="1" opacity="0.9647058823529412" d="M 8.5 7 L 7.5 9 L 8.5 7 Z " /><path fill="rgb(43,141,186)" stroke="rgb(43,141,186)" stroke-width="1" opacity="0.9647058823529412" d="M 46.5 21 L 47 26.5 L 46 26.5 L 46.5 21 Z " /><path fill="rgb(43,141,186)" stroke="rgb(43,141,186)" stroke-width="1" opacity="0.9647058823529412" d="M 1.5 22 L 2 25.5 L 1 25.5 L 1.5 22 Z " /><path fill="rgb(0,0,0)" stroke="rgb(0,0,0)" stroke-width="1" opacity="0" d="M 0 0 L 48 0 L 48 22.5 L 47 22.5 L 46 14.5 L 39.5 6 L 30.5 1 L 17.5 1 L 6 8.5 L 1 17.5 L 1 29.5 Q 3.7 39.3 11.5 44 Q 17.4 48.6 29.5 47 Q 39.3 44.3 44 36.5 Q 47.6 32.6 47.5 25 L 48 48 L 0 48 L 0 0 Z " /><path fill="rgb(42,141,186)" stroke="rgb(42,141,186)" stroke-width="1" opacity="1" d="M 12.5 6 L 11.5 8 L 12.5 6 Z " /><path fill="rgb(42,141,186)" stroke="rgb(42,141,186)" stroke-width="1" opacity="1" d="M 35.5 6 L 36.5 8 L 35.5 6 Z " /><path fill="rgb(42,141,186)" stroke="rgb(42,141,186)" stroke-width="1" opacity="1" d="M 24.5 7 L 30 9 L 30 11 Q 32.7 9.9 32 12.5 Q 34.5 14 33 19.5 L 30.5 23 L 30 21.5 L 31 20.5 L 31 12.5 L 25.5 8 L 19.5 12 L 20.5 10 L 24.5 7 Z " /><path fill="rgb(42,141,186)" stroke="rgb(42,141,186)" stroke-width="1" opacity="1" d="M 7.5 11 L 6.5 13 L 7.5 11 Z " /><path fill="rgb(42,141,186)" stroke="rgb(42,141,186)" stroke-width="1" opacity="1" d="M 40.5 11 L 41.5 13 L 40.5 11 Z " /><path fill="rgb(42,141,186)" stroke="rgb(42,141,186)" stroke-width="1" opacity="1" d="M 17.5 12 L 16 14.5 L 13 27.5 L 11 30.5 L 11 35.5 L 14.5 39 Q 19.3 37.8 20.5 40 L 34 37 L 34.5 35 L 35 36.5 L 26.5 41 L 18.5 41 L 13.5 40 L 11 37.5 L 9 31.5 L 14 19.5 L 13 17.5 L 17.5 12 Z " /><path fill="rgb(42,141,186)" stroke="rgb(42,141,186)" stroke-width="1" opacity="1" d="M 24 12 L 29 13 Q 30 20.6 26 24.5 L 26.5 26 L 25 23.5 Q 28.2 21.2 27 14.5 Q 25.3 11.3 23.5 15 Q 19.5 14.5 19 17.5 L 20 21.5 L 17 24.5 L 17 28.5 Q 14 29.8 15 34 L 18 34 Q 17 31 20 32 L 21.5 35 Q 28.2 36.2 30.5 33 L 31.5 35 Q 30 32.5 28.5 36 L 20 37 Q 21.3 32.9 18 34 L 16.5 37 L 13 31.5 Q 15.6 30.1 15 25.5 L 19 20.5 L 17 17.5 L 19 17 L 20.5 14 Q 25.3 15.3 24 12 Z " /><path fill="rgb(42,141,186)" stroke="rgb(42,141,186)" stroke-width="1" opacity="1" d="M 30.5 24 L 33.5 28 L 38.5 27 L 42 31.5 L 36 36 L 36.5 34 Q 38.3 36.8 40 32.5 Q 41.5 28.1 38.5 29 L 35.5 28 L 31.5 30 L 30.5 24 Z " /><path fill="rgb(42,141,186)" stroke="rgb(42,141,186)" stroke-width="1" opacity="1" d="M 27 27 L 29 27 L 29 33 L 27 32.5 L 28 29.5 L 27 27 Z " /><path fill="rgb(42,141,186)" stroke="rgb(42,141,186)" stroke-width="1" opacity="1" d="M 6.5 35 L 11.5 41 L 6.5 35 Z " /><path fill="rgb(42,141,186)" stroke="rgb(42,141,186)" stroke-width="1" opacity="1" d="M 41.5 35 L 35.5 42 L 41.5 35 Z " /><path fill="rgb(44,142,187)" stroke="rgb(44,142,187)" stroke-width="1" opacity="1" d="M 18.5 3 Q 28.1 1.9 33 4 L 33.5 6 L 35 5.5 L 35.5 7 Q 36.8 4.8 38 7.5 Q 37.3 9.8 39.5 9 Q 43.2 11 41.5 13 Q 43.8 12.3 43 14.5 Q 46.8 19.2 45 29.5 L 44 33 L 42 33.5 L 42.5 35 L 40 36.5 L 41 37.5 L 37.5 41 Q 36.3 38.8 35 41.5 L 34.5 43 L 33 42.5 L 33 44 Q 29.2 42.5 30 45.5 L 28.5 45 L 19.5 45 L 18.5 46 L 18 44 Q 14.3 45.5 15 42.5 L 12 41.5 L 11.5 40 L 10.5 41 L 7 37.5 Q 9.3 36.3 6.5 35 L 5 34.5 L 5.5 33 Q 2.9 33.8 4 30.5 L 3 29.5 L 3 18.5 L 4 15 L 6 14.5 L 5.5 13 L 7 12.5 L 6 11.5 L 11.5 6 L 13 6.5 L 13.5 5 L 15 5.5 Q 14.2 2.9 17.5 4 L 18.5 3 Z M 25 7 Q 22 8 24 10 L 23 9 L 18 12 L 13 18 L 14 20 L 9 32 L 11 38 L 14 40 L 19 41 L 27 41 L 38 36 L 42 31 Q 41 28 40 30 L 39 27 L 34 28 L 32 26 L 29 25 L 33 20 Q 35 14 32 13 Q 33 10 30 11 L 30 9 L 25 7 Z " /><path fill="rgb(44,142,187)" stroke="rgb(44,142,187)" stroke-width="1" opacity="1" d="M 26.5 12 L 27 14.5 Q 28 21.5 25 24.5 L 28 25.5 L 27 28.5 L 28 31.5 L 27.5 33 L 30 33.5 Q 27.6 36.1 21.5 35 L 20 32 Q 17 31 18 34 L 15 34 Q 14 29.8 17 28.5 L 17 24.5 L 20 20.5 L 18 20.5 L 21.5 15 L 24 14.5 L 23.5 13 Q 25 15.5 26.5 12 Z " /><path fill="rgb(44,142,187)" stroke="rgb(44,142,187)" stroke-width="1" opacity="1" d="M 14.5 35 L 15.5 37 L 14.5 35 Z " /><path fill="rgb(200,225,237)" stroke="rgb(200,225,237)" stroke-width="1" opacity="1" d="M 24.5 9 L 26.5 9 L 31 13.5 L 31 19.5 L 29 24.5 L 31.5 31 Q 33.2 28.2 38.5 29 L 40 31.5 L 37.5 34 L 26.5 39 L 18.5 39 L 13 38 L 11 31.5 L 16 19.5 L 15 17.5 L 17.5 14 L 23 12 L 24.5 9 Z M 26 10 L 24 13 L 22 13 L 17 17 L 18 21 L 13 31 L 14 36 L 17 37 L 19 34 L 19 37 L 28 37 L 37 32 Q 39 33 38 30 L 30 33 L 30 32 Q 30 26 27 25 L 29 21 L 29 14 L 28 13 L 26 10 Z " /><path fill="rgb(19,129,179)" stroke="rgb(19,129,179)" stroke-width="1" opacity="0.8627450980392157" d="M 18.5 12 L 17.5 14 L 18.5 12 Z " /><path fill="rgb(19,129,179)" stroke="rgb(19,129,179)" stroke-width="1" opacity="0.8627450980392157" d="M 15.5 20 L 14.5 22 L 15.5 20 Z " /><path fill="rgb(19,129,179)" stroke="rgb(19,129,179)" stroke-width="1" opacity="0.8627450980392157" d="M 17.5 22 L 16.5 24 L 17.5 22 Z " /><path fill="rgb(19,129,179)" stroke="rgb(19,129,179)" stroke-width="1" opacity="0.8627450980392157" d="M 34.5 31 L 38 31.5 L 30.5 35 L 31.5 33 L 34.5 31 Z " /><path fill="rgb(35,128,174)" stroke="rgb(35,128,174)" stroke-width="1" opacity="0.08627450980392157" d="M 8.5 6 L 6.5 9 L 8.5 6 Z " /><path fill="rgb(35,128,174)" stroke="rgb(35,128,174)" stroke-width="1" opacity="0.08627450980392157" d="M 39.5 6 L 41.5 9 L 39.5 6 Z " /><path fill="rgb(42,140,185)" stroke="rgb(42,140,185)" stroke-width="1" opacity="0.5725490196078431" d="M 10.5 5 L 9.5 7 L 10.5 5 Z " /><path fill="rgb(42,140,185)" stroke="rgb(42,140,185)" stroke-width="1" opacity="0.5725490196078431" d="M 6.5 9 L 5.5 11 L 6.5 9 Z " /><path fill="rgb(42,140,185)" stroke="rgb(42,140,185)" stroke-width="1" opacity="0.5725490196078431" d="M 1.5 19 L 2 21.5 L 1 21.5 L 1.5 19 Z " /><path fill="rgb(42,140,185)" stroke="rgb(42,140,185)" stroke-width="1" opacity="0.5725490196078431" d="M 1.5 26 L 2 28.5 L 1 28.5 L 1.5 26 Z " /><path fill="rgb(42,140,185)" stroke="rgb(42,140,185)" stroke-width="1" opacity="0.5725490196078431" d="M 5.5 37 L 10.5 43 L 5.5 37 Z " /><path fill="rgb(42,140,185)" stroke="rgb(42,140,185)" stroke-width="1" opacity="0.5725490196078431" d="M 42.5 37 L 37.5 43 L 42.5 37 Z " /><path fill="rgb(42,140,185)" stroke="rgb(42,140,185)" stroke-width="1" opacity="0.5725490196078431" d="M 19.5 46 L 29 46.5 L 19.5 47 L 19.5 46 Z " /><path fill="rgb(51,152,199)" stroke="rgb(51,152,199)" stroke-width="1" opacity="1" d="M 18.5 2 Q 37.2 0.3 43 11.5 Q 47.7 17.4 46 29.5 Q 43.9 37.9 37.5 42 L 30.5 45 L 30.5 44 Q 37.9 42.9 41 37.5 Q 46.8 31.8 45 18.5 Q 42.9 10.2 36.5 6 Q 30.7 1.4 18.5 3 Q 10.2 5.2 6 11.5 Q 1.4 17.4 3 29.5 Q 5.1 36.9 10.5 41 L 18 44.5 L 15.5 45 L 6 37.5 Q 0.2 31.8 2 18.5 Q 4.4 9.4 11.5 5 L 18.5 2 Z " /><path fill="rgb(51,152,199)" stroke="rgb(51,152,199)" stroke-width="1" opacity="1" d="M 25.5 10 L 24.5 12 L 25.5 10 Z " /><path fill="rgb(51,152,199)" stroke="rgb(51,152,199)" stroke-width="1" opacity="1" d="M 29.5 11 L 30.5 13 L 29.5 11 Z " /><path fill="rgb(51,152,199)" stroke="rgb(51,152,199)" stroke-width="1" opacity="1" d="M 19.5 12 L 18.5 14 L 19.5 12 Z " /><path fill="rgb(51,152,199)" stroke="rgb(51,152,199)" stroke-width="1" opacity="1" d="M 18.5 15 L 17.5 17 L 18.5 15 Z " /><path fill="rgb(51,152,199)" stroke="rgb(51,152,199)" stroke-width="1" opacity="1" d="M 27.5 22 L 26.5 24 L 27.5 22 Z " /><path fill="rgb(51,152,199)" stroke="rgb(51,152,199)" stroke-width="1" opacity="1" d="M 35.5 28 L 38 28.5 L 35.5 29 L 35.5 28 Z " /><path fill="rgb(51,152,199)" stroke="rgb(51,152,199)" stroke-width="1" opacity="1" d="M 29.5 29 L 30 31.5 L 29 31.5 L 29.5 29 Z " /><path fill="rgb(51,152,199)" stroke="rgb(51,152,199)" stroke-width="1" opacity="1" d="M 35.5 30 L 38 30.5 L 35.5 31 L 35.5 30 Z " /><path fill="rgb(51,152,199)" stroke="rgb(51,152,199)" stroke-width="1" opacity="1" d="M 39.5 32 L 38.5 34 L 39.5 32 Z " /><path fill="rgb(51,152,199)" stroke="rgb(51,152,199)" stroke-width="1" opacity="1" d="M 14.5 38 L 18 38.5 L 14.5 39 L 14.5 38 Z " /><path fill="rgb(51,152,199)" stroke="rgb(51,152,199)" stroke-width="1" opacity="1" d="M 19.5 45 L 29 45.5 L 19.5 46 L 19.5 45 Z " /></svg>